<ttFont>
    <TTGlyph name=".notdef" xMin="50" yMin="0" xMax="700" yMax="700">
      <contour>
        <pt x="50" y="700" on="1"/>
        <pt x="700" y="700" on="1"/>
        <pt x="700" y="0" on="1"/>
        <pt x="50" y="0" on="1"/>
      </contour>
      <contour>
        <pt x="570" y="650" on="1"/>
        <pt x="375" y="433" on="1"/>
        <pt x="180" y="650" on="1"/>
        <pt x="130" y="600" on="1"/>
        <pt x="327" y="380" on="1"/>
        <pt x="130" y="160" on="1"/>
        <pt x="180" y="110" on="1"/>
        <pt x="375" y="327" on="1"/>
        <pt x="570" y="110" on="1"/>
        <pt x="620" y="160" on="1"/>
        <pt x="422" y="380" on="1"/>
        <pt x="620" y="600" on="1"/>
      </contour>
      <contour>
        <pt x="162" y="68" on="1"/>
        <pt x="127" y="68" on="1"/>
        <pt x="127" y="61" on="1"/>
        <pt x="140" y="61" on="1"/>
        <pt x="140" y="26" on="1"/>
        <pt x="149" y="26" on="1"/>
        <pt x="149" y="61" on="1"/>
        <pt x="162" y="61" on="1"/>
      </contour>
      <contour>
        <pt x="271" y="58" on="1"/>
        <pt x="269" y="58" on="1"/>
        <pt x="268" y="58" on="0"/>
        <pt x="267" y="59" on="1"/>
        <pt x="263" y="59" on="0"/>
        <pt x="258" y="54" on="1"/>
        <pt x="258" y="58" on="1"/>
        <pt x="251" y="58" on="1"/>
        <pt x="251" y="26" on="1"/>
        <pt x="259" y="26" on="1"/>
        <pt x="259" y="46" on="1"/>
        <pt x="262" y="51" on="0"/>
        <pt x="266" y="51" on="1"/>
        <pt x="268" y="51" on="0"/>
        <pt x="270" y="50" on="1"/>
      </contour>
      <contour>
        <pt x="276" y="65" on="1"/>
        <pt x="276" y="60" on="0"/>
        <pt x="280" y="60" on="1"/>
        <pt x="285" y="60" on="0"/>
        <pt x="285" y="64" on="1"/>
        <pt x="285" y="69" on="0"/>
        <pt x="280" y="69" on="1"/>
        <pt x="276" y="69" on="0"/>
      </contour>
      <contour>
        <pt x="276" y="26" on="1"/>
        <pt x="285" y="26" on="1"/>
        <pt x="285" y="58" on="1"/>
        <pt x="276" y="58" on="1"/>
      </contour>
      <contour>
        <pt x="291" y="51" on="1"/>
        <pt x="296" y="51" on="1"/>
        <pt x="296" y="26" on="1"/>
        <pt x="304" y="26" on="1"/>
        <pt x="304" y="51" on="1"/>
        <pt x="312" y="51" on="1"/>
        <pt x="312" y="58" on="1"/>
        <pt x="304" y="58" on="1"/>
        <pt x="304" y="60" on="0"/>
        <pt x="305" y="61" on="1"/>
        <pt x="306" y="62" on="0"/>
        <pt x="308" y="62" on="1"/>
        <pt x="311" y="62" on="1"/>
        <pt x="314" y="62" on="1"/>
        <pt x="315" y="68" on="1"/>
        <pt x="315" y="69" on="0"/>
        <pt x="311" y="69" on="1"/>
        <pt x="306" y="69" on="1"/>
        <pt x="302" y="69" on="1"/>
        <pt x="301" y="69" on="0"/>
        <pt x="297" y="66" on="0"/>
        <pt x="297" y="65" on="1"/>
        <pt x="296" y="63" on="0"/>
        <pt x="296" y="60" on="1"/>
        <pt x="296" y="58" on="1"/>
        <pt x="291" y="58" on="1"/>
      </contour>
      <contour>
        <pt x="331" y="45" on="1"/>
        <pt x="331" y="20" on="0"/>
        <pt x="354" y="20" on="1"/>
        <pt x="365" y="20" on="0"/>
        <pt x="378" y="32" on="0"/>
        <pt x="378" y="45" on="1"/>
        <pt x="378" y="68" on="0"/>
        <pt x="354" y="68" on="1"/>
        <pt x="344" y="68" on="0"/>
        <pt x="331" y="56" on="0"/>
      </contour>
      <contour>
        <pt x="338" y="45" on="1"/>
        <pt x="338" y="62" on="0"/>
        <pt x="354" y="62" on="1"/>
        <pt x="371" y="62" on="0"/>
        <pt x="371" y="45" on="1"/>
        <pt x="371" y="27" on="0"/>
        <pt x="354" y="27" on="1"/>
        <pt x="338" y="27" on="0"/>
      </contour>
      <contour>
        <pt x="361" y="40" on="1"/>
        <pt x="359" y="39" on="0"/>
        <pt x="357" y="39" on="1"/>
        <pt x="352" y="39" on="0"/>
        <pt x="352" y="45" on="1"/>
        <pt x="352" y="49" on="0"/>
        <pt x="357" y="49" on="1"/>
        <pt x="360" y="49" on="1"/>
        <pt x="363" y="54" on="1"/>
        <pt x="359" y="56" on="0"/>
        <pt x="354" y="56" on="1"/>
        <pt x="344" y="56" on="0"/>
        <pt x="344" y="45" on="1"/>
        <pt x="344" y="32" on="0"/>
        <pt x="354" y="32" on="1"/>
        <pt x="359" y="32" on="0"/>
        <pt x="363" y="34" on="1"/>
      </contour>
      <contour>
        <pt x="402" y="27" on="1"/>
        <pt x="411" y="27" on="1"/>
        <pt x="411" y="41" on="1"/>
        <pt x="416" y="41" on="1"/>
        <pt x="423" y="41" on="0"/>
        <pt x="434" y="47" on="0"/>
        <pt x="434" y="55" on="1"/>
        <pt x="434" y="65" on="0"/>
        <pt x="422" y="69" on="0"/>
        <pt x="415" y="69" on="1"/>
        <pt x="402" y="69" on="1"/>
      </contour>
      <contour>
        <pt x="416" y="62" on="1"/>
        <pt x="425" y="62" on="0"/>
        <pt x="425" y="56" on="1"/>
        <pt x="425" y="50" on="0"/>
        <pt x="420" y="49" on="0"/>
        <pt x="415" y="49" on="1"/>
        <pt x="411" y="49" on="1"/>
        <pt x="411" y="62" on="1"/>
      </contour>
      <contour>
        <pt x="440" y="51" on="1"/>
        <pt x="443" y="52" on="0"/>
        <pt x="448" y="53" on="0"/>
        <pt x="451" y="53" on="1"/>
        <pt x="456" y="53" on="0"/>
        <pt x="456" y="48" on="1"/>
        <pt x="456" y="46" on="1"/>
        <pt x="455" y="46" on="0"/>
        <pt x="453" y="47" on="0"/>
        <pt x="451" y="47" on="1"/>
        <pt x="436" y="47" on="0"/>
        <pt x="436" y="35" on="1"/>
        <pt x="436" y="26" on="0"/>
        <pt x="446" y="26" on="1"/>
        <pt x="453" y="26" on="0"/>
        <pt x="456" y="32" on="1"/>
        <pt x="459" y="27" on="1"/>
        <pt x="466" y="27" on="1"/>
        <pt x="465" y="28" on="0"/>
        <pt x="465" y="35" on="1"/>
        <pt x="465" y="48" on="1"/>
        <pt x="465" y="60" on="0"/>
        <pt x="453" y="60" on="1"/>
        <pt x="448" y="60" on="0"/>
        <pt x="440" y="57" on="0"/>
        <pt x="438" y="56" on="1"/>
      </contour>
      <contour>
        <pt x="450" y="33" on="1"/>
        <pt x="445" y="33" on="0"/>
        <pt x="445" y="38" on="1"/>
        <pt x="445" y="42" on="0"/>
        <pt x="451" y="42" on="1"/>
        <pt x="453" y="42" on="0"/>
        <pt x="455" y="41" on="0"/>
        <pt x="456" y="41" on="1"/>
        <pt x="456" y="38" on="1"/>
        <pt x="455" y="33" on="0"/>
      </contour>
      <contour>
        <pt x="494" y="59" on="1"/>
        <pt x="492" y="60" on="0"/>
        <pt x="489" y="60" on="1"/>
        <pt x="484" y="60" on="0"/>
        <pt x="482" y="54" on="1"/>
        <pt x="481" y="54" on="1"/>
        <pt x="480" y="59" on="1"/>
        <pt x="473" y="59" on="1"/>
        <pt x="473" y="27" on="1"/>
        <pt x="482" y="27" on="1"/>
        <pt x="482" y="47" on="1"/>
        <pt x="482" y="52" on="0"/>
        <pt x="489" y="52" on="1"/>
        <pt x="490" y="52" on="0"/>
        <pt x="490" y="51" on="0"/>
        <pt x="491" y="51" on="1"/>
        <pt x="492" y="51" on="1"/>
      </contour>
      <contour>
        <pt x="499" y="51" on="1"/>
        <pt x="509" y="53" on="0"/>
        <pt x="510" y="53" on="1"/>
        <pt x="516" y="53" on="0"/>
        <pt x="516" y="48" on="1"/>
        <pt x="516" y="46" on="1"/>
        <pt x="514" y="46" on="0"/>
        <pt x="512" y="47" on="0"/>
        <pt x="510" y="47" on="1"/>
        <pt x="495" y="47" on="0"/>
        <pt x="495" y="35" on="1"/>
        <pt x="495" y="26" on="0"/>
        <pt x="505" y="26" on="1"/>
        <pt x="513" y="26" on="0"/>
        <pt x="516" y="32" on="1"/>
        <pt x="517" y="32" on="1"/>
        <pt x="518" y="27" on="1"/>
        <pt x="525" y="27" on="1"/>
        <pt x="524" y="28" on="0"/>
        <pt x="524" y="35" on="1"/>
        <pt x="524" y="48" on="1"/>
        <pt x="524" y="60" on="0"/>
        <pt x="512" y="60" on="1"/>
        <pt x="507" y="60" on="0"/>
        <pt x="501" y="57" on="0"/>
        <pt x="498" y="56" on="1"/>
      </contour>
      <contour>
        <pt x="509" y="33" on="1"/>
        <pt x="504" y="33" on="0"/>
        <pt x="504" y="38" on="1"/>
        <pt x="504" y="42" on="0"/>
        <pt x="510" y="42" on="1"/>
        <pt x="512" y="42" on="0"/>
        <pt x="514" y="41" on="0"/>
        <pt x="516" y="41" on="1"/>
        <pt x="516" y="38" on="1"/>
        <pt x="513" y="33" on="0"/>
      </contour>
      <contour>
        <pt x="557" y="69" on="1"/>
        <pt x="521" y="69" on="1"/>
        <pt x="521" y="62" on="1"/>
        <pt x="535" y="62" on="1"/>
        <pt x="535" y="27" on="1"/>
        <pt x="543" y="27" on="1"/>
        <pt x="543" y="62" on="1"/>
        <pt x="557" y="62" on="1"/>
      </contour>
      <contour>
        <pt x="567" y="59" on="1"/>
        <pt x="557" y="59" on="1"/>
        <pt x="571" y="27" on="1"/>
        <pt x="569" y="22" on="0"/>
        <pt x="566" y="22" on="1"/>
        <pt x="564" y="23" on="1"/>
        <pt x="562" y="16" on="1"/>
        <pt x="563" y="15" on="0"/>
        <pt x="568" y="15" on="1"/>
        <pt x="575" y="15" on="0"/>
        <pt x="579" y="30" on="1"/>
        <pt x="591" y="59" on="1"/>
        <pt x="582" y="59" on="1"/>
        <pt x="576" y="41" on="1"/>
        <pt x="576" y="35" on="1"/>
        <pt x="575" y="35" on="1"/>
        <pt x="574" y="41" on="1"/>
      </contour>
      <contour>
        <pt x="595" y="15" on="1"/>
        <pt x="604" y="15" on="1"/>
        <pt x="604" y="28" on="1"/>
        <pt x="606" y="26" on="0"/>
        <pt x="610" y="26" on="1"/>
        <pt x="626" y="26" on="0"/>
        <pt x="626" y="44" on="1"/>
        <pt x="626" y="60" on="0"/>
        <pt x="613" y="60" on="1"/>
        <pt x="607" y="60" on="0"/>
        <pt x="603" y="55" on="1"/>
        <pt x="601" y="55" on="1"/>
        <pt x="600" y="59" on="1"/>
        <pt x="595" y="59" on="1"/>
      </contour>
      <contour>
        <pt x="611" y="53" on="1"/>
        <pt x="617" y="53" on="0"/>
        <pt x="617" y="44" on="1"/>
        <pt x="617" y="33" on="0"/>
        <pt x="608" y="33" on="1"/>
        <pt x="606" y="33" on="0"/>
        <pt x="604" y="35" on="1"/>
        <pt x="604" y="47" on="1"/>
        <pt x="604" y="53" on="0"/>
      </contour>
      <contour>
        <pt x="656" y="35" on="1"/>
        <pt x="654" y="33" on="0"/>
        <pt x="648" y="33" on="1"/>
        <pt x="640" y="33" on="0"/>
        <pt x="640" y="40" on="1"/>
        <pt x="661" y="40" on="1"/>
        <pt x="661" y="47" on="1"/>
        <pt x="661" y="60" on="0"/>
        <pt x="647" y="60" on="1"/>
        <pt x="631" y="60" on="0"/>
        <pt x="631" y="42" on="1"/>
        <pt x="631" y="26" on="0"/>
        <pt x="647" y="26" on="1"/>
        <pt x="655" y="26" on="0"/>
        <pt x="659" y="30" on="1"/>
      </contour>
      <contour>
        <pt x="647" y="53" on="1"/>
        <pt x="654" y="53" on="0"/>
        <pt x="653" y="46" on="1"/>
        <pt x="640" y="46" on="1"/>
        <pt x="640" y="53" on="0"/>
      </contour>
      <contour>
        <pt x="92" y="27" on="1"/>
        <pt x="101" y="27" on="1"/>
        <pt x="101" y="41" on="1"/>
        <pt x="106" y="41" on="1"/>
        <pt x="113" y="41" on="0"/>
        <pt x="124" y="47" on="0"/>
        <pt x="124" y="55" on="1"/>
        <pt x="124" y="65" on="0"/>
        <pt x="112" y="69" on="0"/>
        <pt x="105" y="69" on="1"/>
        <pt x="92" y="69" on="1"/>
      </contour>
      <contour>
        <pt x="106" y="62" on="1"/>
        <pt x="115" y="62" on="0"/>
        <pt x="115" y="56" on="1"/>
        <pt x="115" y="50" on="0"/>
        <pt x="110" y="49" on="0"/>
        <pt x="105" y="49" on="1"/>
        <pt x="101" y="49" on="1"/>
        <pt x="101" y="62" on="1"/>
      </contour>
      <contour>
        <pt x="200" y="38" on="1"/>
        <pt x="200" y="33" on="0"/>
        <pt x="192" y="33" on="1"/>
        <pt x="189" y="33" on="0"/>
        <pt x="185" y="34" on="0"/>
        <pt x="181" y="36" on="1"/>
        <pt x="178" y="27" on="1"/>
        <pt x="182" y="26" on="0"/>
        <pt x="188" y="25" on="0"/>
        <pt x="193" y="25" on="1"/>
        <pt x="209" y="25" on="0"/>
        <pt x="209" y="39" on="1"/>
        <pt x="209" y="44" on="0"/>
        <pt x="202" y="49" on="0"/>
        <pt x="195" y="52" on="0"/>
        <pt x="188" y="55" on="0"/>
        <pt x="188" y="58" on="1"/>
        <pt x="188" y="61" on="0"/>
        <pt x="195" y="61" on="1"/>
        <pt x="198" y="61" on="0"/>
        <pt x="203" y="60" on="0"/>
        <pt x="206" y="59" on="1"/>
        <pt x="208" y="67" on="1"/>
        <pt x="204" y="68" on="0"/>
        <pt x="198" y="69" on="0"/>
        <pt x="195" y="69" on="1"/>
        <pt x="179" y="69" on="0"/>
        <pt x="179" y="56" on="1"/>
        <pt x="179" y="51" on="0"/>
        <pt x="186" y="46" on="0"/>
        <pt x="193" y="43" on="0"/>
        <pt x="200" y="40" on="0"/>
      </contour>
      <contour>
        <pt x="239" y="34" on="1"/>
        <pt x="237" y="32" on="0"/>
        <pt x="231" y="32" on="1"/>
        <pt x="223" y="32" on="0"/>
        <pt x="223" y="39" on="1"/>
        <pt x="244" y="39" on="1"/>
        <pt x="244" y="46" on="1"/>
        <pt x="244" y="59" on="0"/>
        <pt x="230" y="59" on="1"/>
        <pt x="214" y="59" on="0"/>
        <pt x="214" y="41" on="1"/>
        <pt x="214" y="25" on="0"/>
        <pt x="230" y="25" on="1"/>
        <pt x="238" y="25" on="0"/>
        <pt x="242" y="29" on="1"/>
      </contour>
      <contour>
        <pt x="230" y="52" on="1"/>
        <pt x="237" y="52" on="0"/>
        <pt x="236" y="45" on="1"/>
        <pt x="223" y="45" on="1"/>
        <pt x="223" y="52" on="0"/>
      </contour>
    </TTGlyph>
    <TTGlyph name="A" xMin="-49" yMin="0" xMax="639" yMax="712">
      <contour>
        <pt x="176" y="0" on="1"/>
        <pt x="-49" y="0" on="1"/>
        <pt x="-43" y="29" on="1"/>
        <pt x="-4" y="45" on="0"/>
        <pt x="35" y="53" on="1"/>
        <pt x="430" y="712" on="1"/>
        <pt x="456" y="712" on="1"/>
        <pt x="569" y="53" on="1"/>
        <pt x="587" y="49" on="0"/>
        <pt x="624" y="38" on="0"/>
        <pt x="639" y="29" on="1"/>
        <pt x="634" y="0" on="1"/>
        <pt x="380" y="0" on="1"/>
        <pt x="385" y="29" on="1"/>
        <pt x="430" y="46" on="0"/>
        <pt x="473" y="53" on="1"/>
        <pt x="443" y="236" on="1"/>
        <pt x="208" y="236" on="1"/>
        <pt x="101" y="53" on="1"/>
        <pt x="144" y="47" on="0"/>
        <pt x="181" y="29" on="1"/>
      </contour>
      <contour>
        <pt x="237" y="288" on="1"/>
        <pt x="435" y="288" on="1"/>
        <pt x="403" y="500" on="1"/>
        <pt x="401" y="586" on="1"/>
        <pt x="399" y="586" on="1"/>
        <pt x="359" y="498" on="1"/>
      </contour>
    </TTGlyph>
    <TTGlyph name="AE" xMin="-49" yMin="0" xMax="943" yMax="700">
      <contour>
        <pt x="943" y="700" on="1"/>
        <pt x="928" y="623" on="0"/>
        <pt x="897" y="538" on="1"/>
        <pt x="871" y="538" on="1"/>
        <pt x="854" y="648" on="1"/>
        <pt x="635" y="648" on="1"/>
        <pt x="580" y="383" on="1"/>
        <pt x="742" y="383" on="1"/>
        <pt x="797" y="457" on="1"/>
        <pt x="822" y="457" on="1"/>
        <pt x="815" y="407" on="0"/>
        <pt x="795" y="303" on="0"/>
        <pt x="779" y="255" on="1"/>
        <pt x="755" y="255" on="1"/>
        <pt x="731" y="331" on="1"/>
        <pt x="569" y="331" on="1"/>
        <pt x="509" y="51" on="1"/>
        <pt x="739" y="51" on="1"/>
        <pt x="814" y="172" on="1"/>
        <pt x="839" y="172" on="1"/>
        <pt x="837" y="131" on="0"/>
        <pt x="825" y="44" on="0"/>
        <pt x="814" y="0" on="1"/>
        <pt x="321" y="0" on="1"/>
        <pt x="326" y="29" on="1"/>
        <pt x="367" y="46" on="0"/>
        <pt x="414" y="53" on="1"/>
        <pt x="457" y="256" on="1"/>
        <pt x="264" y="256" on="1"/>
        <pt x="107" y="53" on="1"/>
        <pt x="128" y="50" on="0"/>
        <pt x="166" y="38" on="0"/>
        <pt x="186" y="29" on="1"/>
        <pt x="181" y="0" on="1"/>
        <pt x="-49" y="0" on="1"/>
        <pt x="-43" y="29" on="1"/>
        <pt x="-4" y="45" on="0"/>
        <pt x="35" y="53" on="1"/>
        <pt x="514" y="652" on="1"/>
        <pt x="485" y="658" on="0"/>
        <pt x="460" y="671" on="1"/>
        <pt x="467" y="700" on="1"/>
      </contour>
      <contour>
        <pt x="304" y="307" on="1"/>
        <pt x="468" y="307" on="1"/>
        <pt x="533" y="611" on="1"/>
        <pt x="531" y="611" on="1"/>
        <pt x="472" y="518" on="1"/>
      </contour>
    </TTGlyph>
    <TTGlyph name="Aacute" xMin="-49" yMin="0" xMax="664" yMax="894">
      <component glyphName="A" x="0" y="0" flags="0x204"/>
      <component glyphName="uniF6C9" x="75" y="0" flags="0x4"/>
    </TTGlyph>
    <TTGlyph name="Abreve" xMin="-49" yMin="0" xMax="639" yMax="890">
      <component glyphName="A" x="0" y="0" flags="0x204"/>
      <component glyphName="uniF406" x="13" y="0" flags="0x4"/>
    </TTGlyph>
    <TTGlyph name="Acircumflex" xMin="-49" yMin="0" xMax="639" yMax="887">
      <component glyphName="A" x="0" y="0" flags="0x204"/>
      <component glyphName="uniF408" x="17" y="0" flags="0x4"/>
    </TTGlyph>
    <TTGlyph name="Adieresis" xMin="-49" yMin="0" xMax="639" yMax="837">
      <component glyphName="A" x="0" y="0" flags="0x204"/>
      <component glyphName="uniF6CB" x="64" y="0" flags="0x4"/>
    </TTGlyph>
    <TTGlyph name="Agrave" xMin="-49" yMin="0" xMax="639" yMax="894">
      <component glyphName="A" x="0" y="0" flags="0x204"/>
      <component glyphName="uniF6CE" x="58" y="0" flags="0x4"/>
    </TTGlyph>
    <TTGlyph name="Amacron" xMin="-49" yMin="0" xMax="639" yMax="840">
      <component glyphName="A" x="0" y="0" flags="0x204"/>
      <component glyphName="uniF6D0" x="35" y="0" flags="0x4"/>
    </TTGlyph>
    <TTGlyph name="Aogonek" xMin="-49" yMin="-251" xMax="639" yMax="712">
      <contour>
        <pt x="176" y="0" on="1"/>
        <pt x="-49" y="0" on="1"/>
        <pt x="-43" y="29" on="1"/>
        <pt x="-4" y="45" on="0"/>
        <pt x="35" y="53" on="1"/>
        <pt x="430" y="712" on="1"/>
        <pt x="456" y="712" on="1"/>
        <pt x="569" y="53" on="1"/>
        <pt x="587" y="49" on="0"/>
        <pt x="624" y="38" on="0"/>
        <pt x="639" y="29" on="1"/>
        <pt x="637" y="18" on="1"/>
        <pt x="634" y="0" on="1"/>
        <pt x="594" y="0" on="1"/>
        <pt x="571" y="-12" on="0"/>
        <pt x="531" y="-41" on="0"/>
        <pt x="500" y="-75" on="0"/>
        <pt x="482" y="-114" on="0"/>
        <pt x="482" y="-135" on="1"/>
        <pt x="482" y="-163" on="0"/>
        <pt x="518" y="-199" on="0"/>
        <pt x="549" y="-199" on="1"/>
        <pt x="580" y="-199" on="0"/>
        <pt x="604" y="-193" on="1"/>
        <pt x="604" y="-222" on="1"/>
        <pt x="590" y="-233" on="0"/>
        <pt x="546" y="-251" on="0"/>
        <pt x="513" y="-251" on="1"/>
        <pt x="490" y="-251" on="0"/>
        <pt x="449" y="-237" on="0"/>
        <pt x="418" y="-211" on="0"/>
        <pt x="400" y="-174" on="0"/>
        <pt x="400" y="-152" on="1"/>
        <pt x="400" y="-101" on="0"/>
        <pt x="476" y="-27" on="0"/>
        <pt x="538" y="0" on="1"/>
        <pt x="380" y="0" on="1"/>
        <pt x="385" y="29" on="1"/>
        <pt x="430" y="46" on="0"/>
        <pt x="473" y="53" on="1"/>
        <pt x="443" y="236" on="1"/>
        <pt x="208" y="236" on="1"/>
        <pt x="101" y="53" on="1"/>
        <pt x="144" y="47" on="0"/>
        <pt x="181" y="29" on="1"/>
      </contour>
      <contour>
        <pt x="237" y="288" on="1"/>
        <pt x="435" y="288" on="1"/>
        <pt x="403" y="500" on="1"/>
        <pt x="401" y="586" on="1"/>
        <pt x="399" y="586" on="1"/>
        <pt x="359" y="498" on="1"/>
      </contour>
    </TTGlyph>
    <TTGlyph name="Aring" xMin="-49" yMin="0" xMax="639" yMax="874">
      <contour>
        <pt x="346" y="778" on="1"/>
        <pt x="346" y="798" on="0"/>
        <pt x="368" y="833" on="0"/>
        <pt x="404" y="859" on="0"/>
        <pt x="452" y="874" on="0"/>
        <pt x="479" y="874" on="1"/>
        <pt x="496" y="874" on="0"/>
        <pt x="529" y="868" on="0"/>
        <pt x="554" y="851" on="0"/>
        <pt x="570" y="823" on="0"/>
        <pt x="570" y="802" on="1"/>
        <pt x="570" y="783" on="0"/>
        <pt x="551" y="751" on="0"/>
        <pt x="519" y="726" on="0"/>
        <pt x="478" y="711" on="0"/>
        <pt x="456" y="709" on="1"/>
        <pt x="569" y="53" on="1"/>
        <pt x="587" y="49" on="0"/>
        <pt x="624" y="38" on="0"/>
        <pt x="639" y="29" on="1"/>
        <pt x="634" y="0" on="1"/>
        <pt x="380" y="0" on="1"/>
        <pt x="385" y="29" on="1"/>
        <pt x="430" y="46" on="0"/>
        <pt x="473" y="53" on="1"/>
        <pt x="443" y="236" on="1"/>
        <pt x="208" y="236" on="1"/>
        <pt x="101" y="53" on="1"/>
        <pt x="144" y="47" on="0"/>
        <pt x="181" y="29" on="1"/>
        <pt x="176" y="0" on="1"/>
        <pt x="-49" y="0" on="1"/>
        <pt x="-43" y="29" on="1"/>
        <pt x="-4" y="45" on="0"/>
        <pt x="35" y="53" on="1"/>
        <pt x="428" y="709" on="1"/>
        <pt x="390" y="711" on="0"/>
        <pt x="346" y="746" on="0"/>
      </contour>
      <contour>
        <pt x="237" y="288" on="1"/>
        <pt x="435" y="288" on="1"/>
        <pt x="403" y="500" on="1"/>
        <pt x="401" y="586" on="1"/>
        <pt x="399" y="586" on="1"/>
        <pt x="359" y="498" on="1"/>
      </contour>
      <contour>
        <pt x="402" y="781" on="1"/>
        <pt x="402" y="764" on="0"/>
        <pt x="428" y="750" on="0"/>
        <pt x="447" y="750" on="1"/>
        <pt x="476" y="750" on="0"/>
        <pt x="514" y="777" on="0"/>
        <pt x="514" y="797" on="1"/>
        <pt x="514" y="817" on="0"/>
        <pt x="488" y="833" on="0"/>
        <pt x="469" y="833" on="1"/>
        <pt x="440" y="833" on="0"/>
        <pt x="402" y="804" on="0"/>
      </contour>
    </TTGlyph>
    <TTGlyph name="Atilde" xMin="-49" yMin="0" xMax="639" yMax="862">
      <component glyphName="A" x="0" y="0" flags="0x204"/>
      <component glyphName="uniF40D" x="-73" y="0" flags="0x4"/>
    </TTGlyph>
    <TTGlyph name="B" xMin="-20" yMin="-6" xMax="599" yMax="706">
      <contour>
        <pt x="-20" y="0" on="1"/>
        <pt x="-15" y="29" on="1"/>
        <pt x="30" y="48" on="0"/>
        <pt x="73" y="53" on="1"/>
        <pt x="198" y="646" on="1"/>
        <pt x="178" y="650" on="0"/>
        <pt x="140" y="663" on="0"/>
        <pt x="121" y="671" on="1"/>
        <pt x="128" y="700" on="1"/>
        <pt x="234" y="700" on="1"/>
        <pt x="271" y="700" on="0"/>
        <pt x="345" y="706" on="0"/>
        <pt x="401" y="706" on="1"/>
        <pt x="441" y="706" on="0"/>
        <pt x="513" y="692" on="0"/>
        <pt x="567" y="662" on="0"/>
        <pt x="599" y="613" on="0"/>
        <pt x="599" y="577" on="1"/>
        <pt x="599" y="542" on="0"/>
        <pt x="578" y="479" on="0"/>
        <pt x="534" y="426" on="0"/>
        <pt x="467" y="386" on="0"/>
        <pt x="422" y="374" on="1"/>
        <pt x="422" y="370" on="1"/>
        <pt x="445" y="368" on="0"/>
        <pt x="493" y="352" on="0"/>
        <pt x="532" y="321" on="0"/>
        <pt x="556" y="274" on="0"/>
        <pt x="556" y="242" on="1"/>
        <pt x="556" y="189" on="0"/>
        <pt x="516" y="99" on="0"/>
        <pt x="437" y="32" on="0"/>
        <pt x="317" y="-6" on="0"/>
        <pt x="237" y="-6" on="1"/>
        <pt x="202" y="-6" on="0"/>
        <pt x="117" y="0" on="0"/>
        <pt x="76" y="0" on="1"/>
      </contour>
      <contour>
        <pt x="256" y="46" on="1"/>
        <pt x="297" y="45" on="0"/>
        <pt x="371" y="69" on="0"/>
        <pt x="427" y="115" on="0"/>
        <pt x="460" y="182" on="0"/>
        <pt x="460" y="225" on="1"/>
        <pt x="460" y="258" on="0"/>
        <pt x="437" y="300" on="0"/>
        <pt x="394" y="322" on="0"/>
        <pt x="334" y="330" on="0"/>
        <pt x="297" y="330" on="1"/>
        <pt x="221" y="330" on="1"/>
        <pt x="163" y="54" on="1"/>
        <pt x="176" y="50" on="0"/>
        <pt x="214" y="45" on="0"/>
      </contour>
      <contour>
        <pt x="282" y="382" on="1"/>
        <pt x="299" y="382" on="0"/>
        <pt x="346" y="385" on="0"/>
        <pt x="363" y="387" on="1"/>
        <pt x="442" y="415" on="0"/>
        <pt x="503" y="510" on="0"/>
        <pt x="503" y="566" on="1"/>
        <pt x="503" y="605" on="0"/>
        <pt x="447" y="654" on="0"/>
        <pt x="381" y="654" on="1"/>
        <pt x="349" y="654" on="0"/>
        <pt x="304" y="651" on="0"/>
        <pt x="289" y="649" on="1"/>
        <pt x="232" y="382" on="1"/>
      </contour>
    </TTGlyph>
    <TTGlyph name="C" xMin="66" yMin="-12" xMax="669" yMax="712">
      <contour>
        <pt x="557" y="182" on="1"/>
        <pt x="582" y="182" on="1"/>
        <pt x="582" y="154" on="0"/>
        <pt x="571" y="69" on="0"/>
        <pt x="560" y="29" on="1"/>
        <pt x="540" y="18" on="0"/>
        <pt x="494" y="2" on="0"/>
        <pt x="444" y="-8" on="0"/>
        <pt x="396" y="-12" on="0"/>
        <pt x="375" y="-12" on="1"/>
        <pt x="290" y="-12" on="0"/>
        <pt x="172" y="36" on="0"/>
        <pt x="99" y="114" on="0"/>
        <pt x="66" y="210" on="0"/>
        <pt x="66" y="258" on="1"/>
        <pt x="66" y="360" on="0"/>
        <pt x="124" y="527" on="0"/>
        <pt x="231" y="646" on="0"/>
        <pt x="384" y="712" on="0"/>
        <pt x="480" y="712" on="1"/>
        <pt x="546" y="712" on="0"/>
        <pt x="638" y="694" on="0"/>
        <pt x="669" y="678" on="1"/>
        <pt x="666" y="662" on="0"/>
        <pt x="655" y="619" on="0"/>
        <pt x="640" y="571" on="0"/>
        <pt x="624" y="525" on="0"/>
        <pt x="617" y="506" on="1"/>
        <pt x="591" y="506" on="1"/>
        <pt x="570" y="650" on="1"/>
        <pt x="557" y="655" on="0"/>
        <pt x="504" y="660" on="0"/>
        <pt x="479" y="660" on="1"/>
        <pt x="413" y="660" on="0"/>
        <pt x="301" y="609" on="0"/>
        <pt x="219" y="509" on="0"/>
        <pt x="173" y="359" on="0"/>
        <pt x="173" y="260" on="1"/>
        <pt x="173" y="198" on="0"/>
        <pt x="216" y="113" on="0"/>
        <pt x="281" y="61" on="0"/>
        <pt x="357" y="39" on="0"/>
        <pt x="391" y="40" on="1"/>
        <pt x="425" y="39" on="0"/>
        <pt x="472" y="51" on="0"/>
        <pt x="483" y="58" on="1"/>
      </contour>
    </TTGlyph>
    <TTGlyph name="Cacute" xMin="66" yMin="-12" xMax="669" yMax="894">
      <component glyphName="C" x="0" y="0" flags="0x204"/>
      <component glyphName="uniF6C9" x="49" y="0" flags="0x4"/>
    </TTGlyph>
    <TTGlyph name="Ccaron" xMin="66" yMin="-12" xMax="669" yMax="888">
      <component glyphName="C" x="0" y="0" flags="0x204"/>
      <component glyphName="uniF6CA" x="61" y="0" flags="0x4"/>
    </TTGlyph>
    <TTGlyph name="Ccedilla" xMin="66" yMin="-272" xMax="669" yMax="712">
      <contour>
        <pt x="557" y="182" on="1"/>
        <pt x="582" y="182" on="1"/>
        <pt x="582" y="154" on="0"/>
        <pt x="571" y="69" on="0"/>
        <pt x="560" y="29" on="1"/>
        <pt x="522" y="7" on="0"/>
        <pt x="426" y="-11" on="0"/>
        <pt x="384" y="-12" on="1"/>
        <pt x="347" y="-75" on="1"/>
        <pt x="402" y="-76" on="0"/>
        <pt x="439" y="-117" on="0"/>
        <pt x="439" y="-148" on="1"/>
        <pt x="439" y="-180" on="0"/>
        <pt x="398" y="-227" on="0"/>
        <pt x="338" y="-257" on="0"/>
        <pt x="268" y="-272" on="0"/>
        <pt x="239" y="-272" on="1"/>
        <pt x="239" y="-239" on="1"/>
        <pt x="258" y="-236" on="0"/>
        <pt x="299" y="-225" on="0"/>
        <pt x="331" y="-207" on="0"/>
        <pt x="351" y="-181" on="0"/>
        <pt x="351" y="-163" on="1"/>
        <pt x="351" y="-153" on="0"/>
        <pt x="345" y="-136" on="0"/>
        <pt x="330" y="-125" on="0"/>
        <pt x="304" y="-118" on="0"/>
        <pt x="282" y="-116" on="1"/>
        <pt x="335" y="-10" on="1"/>
        <pt x="261" y="-4" on="0"/>
        <pt x="159" y="47" on="0"/>
        <pt x="95" y="122" on="0"/>
        <pt x="66" y="213" on="0"/>
        <pt x="66" y="258" on="1"/>
        <pt x="66" y="360" on="0"/>
        <pt x="124" y="527" on="0"/>
        <pt x="231" y="646" on="0"/>
        <pt x="384" y="712" on="0"/>
        <pt x="480" y="712" on="1"/>
        <pt x="546" y="712" on="0"/>
        <pt x="638" y="694" on="0"/>
        <pt x="669" y="678" on="1"/>
        <pt x="666" y="662" on="0"/>
        <pt x="655" y="619" on="0"/>
        <pt x="640" y="571" on="0"/>
        <pt x="624" y="525" on="0"/>
        <pt x="617" y="506" on="1"/>
        <pt x="591" y="506" on="1"/>
        <pt x="570" y="650" on="1"/>
        <pt x="557" y="655" on="0"/>
        <pt x="504" y="660" on="0"/>
        <pt x="479" y="660" on="1"/>
        <pt x="413" y="660" on="0"/>
        <pt x="301" y="609" on="0"/>
        <pt x="219" y="509" on="0"/>
        <pt x="173" y="359" on="0"/>
        <pt x="173" y="260" on="1"/>
        <pt x="173" y="198" on="0"/>
        <pt x="216" y="113" on="0"/>
        <pt x="281" y="61" on="0"/>
        <pt x="357" y="39" on="0"/>
        <pt x="391" y="40" on="1"/>
        <pt x="425" y="39" on="0"/>
        <pt x="472" y="51" on="0"/>
        <pt x="483" y="58" on="1"/>
      </contour>
    </TTGlyph>
    <TTGlyph name="Ccircumflex" xMin="66" yMin="-12" xMax="669" yMax="887">
      <component glyphName="C" x="0" y="0" flags="0x204"/>
      <component glyphName="uniF408" x="50" y="0" flags="0x4"/>
    </TTGlyph>
    <TTGlyph name="D" xMin="-20" yMin="-9" xMax="695" yMax="708">
      <contour>
        <pt x="-20" y="0" on="1"/>
        <pt x="-15" y="29" on="1"/>
        <pt x="26" y="46" on="0"/>
        <pt x="73" y="53" on="1"/>
        <pt x="198" y="646" on="1"/>
        <pt x="176" y="651" on="0"/>
        <pt x="137" y="664" on="0"/>
        <pt x="121" y="671" on="1"/>
        <pt x="128" y="700" on="1"/>
        <pt x="229" y="700" on="1"/>
        <pt x="246" y="700" on="0"/>
        <pt x="293" y="702" on="0"/>
        <pt x="342" y="705" on="0"/>
        <pt x="388" y="708" on="0"/>
        <pt x="403" y="708" on="1"/>
        <pt x="483" y="708" on="0"/>
        <pt x="595" y="670" on="0"/>
        <pt x="664" y="605" on="0"/>
        <pt x="695" y="516" on="0"/>
        <pt x="695" y="465" on="1"/>
        <pt x="695" y="414" on="0"/>
        <pt x="678" y="303" on="0"/>
        <pt x="638" y="198" on="0"/>
        <pt x="571" y="104" on="0"/>
        <pt x="470" y="33" on="0"/>
        <pt x="332" y="-9" on="0"/>
        <pt x="242" y="-9" on="1"/>
        <pt x="227" y="-9" on="0"/>
        <pt x="186" y="-6" on="0"/>
        <pt x="140" y="-3" on="0"/>
        <pt x="94" y="0" on="0"/>
        <pt x="75" y="0" on="1"/>
      </contour>
      <contour>
        <pt x="383" y="656" on="1"/>
        <pt x="357" y="656" on="0"/>
        <pt x="303" y="654" on="0"/>
        <pt x="289" y="652" on="1"/>
        <pt x="161" y="46" on="1"/>
        <pt x="171" y="45" on="0"/>
        <pt x="200" y="44" on="0"/>
        <pt x="229" y="43" on="0"/>
        <pt x="252" y="42" on="0"/>
        <pt x="258" y="43" on="1"/>
        <pt x="352" y="42" on="0"/>
        <pt x="479" y="118" on="0"/>
        <pt x="556" y="241" on="0"/>
        <pt x="588" y="394" on="0"/>
        <pt x="588" y="471" on="1"/>
        <pt x="588" y="510" on="0"/>
        <pt x="570" y="578" on="0"/>
        <pt x="524" y="627" on="0"/>
        <pt x="445" y="656" on="0"/>
      </contour>
    </TTGlyph>
    <TTGlyph name="Dcaron" xMin="-20" yMin="-9" xMax="695" yMax="888">
      <component glyphName="D" x="0" y="0" flags="0x204"/>
      <component glyphName="uniF6CA" x="-36" y="0" flags="0x4"/>
    </TTGlyph>
    <TTGlyph name="Dcroat" xMin="-20" yMin="-9" xMax="695" yMax="708">
      <contour>
        <pt x="-20" y="0" on="1"/>
        <pt x="-15" y="29" on="1"/>
        <pt x="26" y="46" on="0"/>
        <pt x="73" y="53" on="1"/>
        <pt x="132" y="331" on="1"/>
        <pt x="42" y="331" on="1"/>
        <pt x="53" y="383" on="1"/>
        <pt x="142" y="383" on="1"/>
        <pt x="198" y="646" on="1"/>
        <pt x="176" y="651" on="0"/>
        <pt x="137" y="664" on="0"/>
        <pt x="121" y="671" on="1"/>
        <pt x="128" y="700" on="1"/>
        <pt x="229" y="700" on="1"/>
        <pt x="246" y="700" on="0"/>
        <pt x="293" y="702" on="0"/>
        <pt x="342" y="705" on="0"/>
        <pt x="388" y="708" on="0"/>
        <pt x="403" y="708" on="1"/>
        <pt x="483" y="708" on="0"/>
        <pt x="595" y="670" on="0"/>
        <pt x="664" y="605" on="0"/>
        <pt x="695" y="516" on="0"/>
        <pt x="695" y="465" on="1"/>
        <pt x="695" y="414" on="0"/>
        <pt x="678" y="303" on="0"/>
        <pt x="638" y="198" on="0"/>
        <pt x="571" y="104" on="0"/>
        <pt x="470" y="33" on="0"/>
        <pt x="332" y="-9" on="0"/>
        <pt x="242" y="-9" on="1"/>
        <pt x="227" y="-9" on="0"/>
        <pt x="186" y="-6" on="0"/>
        <pt x="140" y="-3" on="0"/>
        <pt x="94" y="0" on="0"/>
        <pt x="75" y="0" on="1"/>
      </contour>
      <contour>
        <pt x="383" y="656" on="1"/>
        <pt x="357" y="656" on="0"/>
        <pt x="303" y="654" on="0"/>
        <pt x="289" y="652" on="1"/>
        <pt x="232" y="383" on="1"/>
        <pt x="399" y="383" on="1"/>
        <pt x="388" y="331" on="1"/>
        <pt x="221" y="331" on="1"/>
        <pt x="161" y="47" on="1"/>
        <pt x="171" y="46" on="0"/>
        <pt x="200" y="45" on="0"/>
        <pt x="229" y="44" on="0"/>
        <pt x="252" y="43" on="0"/>
        <pt x="258" y="43" on="1"/>
        <pt x="352" y="42" on="0"/>
        <pt x="479" y="118" on="0"/>
        <pt x="556" y="241" on="0"/>
        <pt x="588" y="394" on="0"/>
        <pt x="588" y="471" on="1"/>
        <pt x="588" y="510" on="0"/>
        <pt x="570" y="578" on="0"/>
        <pt x="524" y="627" on="0"/>
        <pt x="445" y="656" on="0"/>
      </contour>
    </TTGlyph>
    <TTGlyph name="E" xMin="-20" yMin="0" xMax="601" yMax="700">
      <contour>
        <pt x="601" y="700" on="1"/>
        <pt x="593" y="660" on="0"/>
        <pt x="571" y="578" on="0"/>
        <pt x="556" y="538" on="1"/>
        <pt x="530" y="538" on="1"/>
        <pt x="513" y="648" on="1"/>
        <pt x="294" y="648" on="1"/>
        <pt x="239" y="383" on="1"/>
        <pt x="401" y="383" on="1"/>
        <pt x="456" y="457" on="1"/>
        <pt x="481" y="457" on="1"/>
        <pt x="473" y="407" on="0"/>
        <pt x="452" y="306" on="0"/>
        <pt x="438" y="255" on="1"/>
        <pt x="413" y="255" on="1"/>
        <pt x="390" y="331" on="1"/>
        <pt x="227" y="331" on="1"/>
        <pt x="169" y="52" on="1"/>
        <pt x="398" y="52" on="1"/>
        <pt x="473" y="172" on="1"/>
        <pt x="498" y="172" on="1"/>
        <pt x="496" y="133" on="0"/>
        <pt x="484" y="44" on="0"/>
        <pt x="473" y="0" on="1"/>
        <pt x="-20" y="0" on="1"/>
        <pt x="-15" y="29" on="1"/>
        <pt x="26" y="46" on="0"/>
        <pt x="73" y="53" on="1"/>
        <pt x="198" y="646" on="1"/>
        <pt x="178" y="651" on="0"/>
        <pt x="140" y="663" on="0"/>
        <pt x="121" y="671" on="1"/>
        <pt x="128" y="700" on="1"/>
      </contour>
    </TTGlyph>
    <TTGlyph name="Eacute" xMin="-20" yMin="0" xMax="601" yMax="894">
      <component glyphName="E" x="0" y="0" flags="0x204"/>
      <component glyphName="uniF6C9" x="-28" y="0" flags="0x4"/>
    </TTGlyph>
    <TTGlyph name="Ecaron" xMin="-20" yMin="0" xMax="601" yMax="888">
      <component glyphName="E" x="0" y="0" flags="0x204"/>
      <component glyphName="uniF6CA" x="-33" y="0" flags="0x4"/>
    </TTGlyph>
    <TTGlyph name="Ecircumflex" xMin="-20" yMin="0" xMax="601" yMax="887">
      <component glyphName="E" x="0" y="0" flags="0x204"/>
      <component glyphName="uniF408" x="-18" y="0" flags="0x4"/>
    </TTGlyph>
    <TTGlyph name="Edieresis" xMin="-20" yMin="0" xMax="601" yMax="837">
      <component glyphName="E" x="0" y="0" flags="0x204"/>
      <component glyphName="uniF6CB" x="10" y="0" flags="0x4"/>
    </TTGlyph>
    <TTGlyph name="Edotaccent" xMin="-20" yMin="0" xMax="601" yMax="871">
      <component glyphName="E" x="0" y="0" flags="0x204"/>
      <component glyphName="uniF40B" x="58" y="0" flags="0x4"/>
    </TTGlyph>
    <TTGlyph name="Egrave" xMin="-20" yMin="0" xMax="601" yMax="894">
      <component glyphName="E" x="0" y="0" flags="0x204"/>
      <component glyphName="uniF6CE" x="31" y="0" flags="0x4"/>
    </TTGlyph>
    <TTGlyph name="Emacron" xMin="-20" yMin="0" xMax="601" yMax="840">
      <component glyphName="E" x="0" y="0" flags="0x204"/>
      <component glyphName="uniF6D0" x="-29" y="0" flags="0x4"/>
    </TTGlyph>
    <TTGlyph name="Eogonek" xMin="-20" yMin="-251" xMax="601" yMax="700">
      <contour>
        <pt x="601" y="700" on="1"/>
        <pt x="593" y="660" on="0"/>
        <pt x="571" y="578" on="0"/>
        <pt x="556" y="538" on="1"/>
        <pt x="530" y="538" on="1"/>
        <pt x="513" y="648" on="1"/>
        <pt x="294" y="648" on="1"/>
        <pt x="239" y="383" on="1"/>
        <pt x="401" y="383" on="1"/>
        <pt x="456" y="457" on="1"/>
        <pt x="481" y="457" on="1"/>
        <pt x="473" y="407" on="0"/>
        <pt x="452" y="306" on="0"/>
        <pt x="438" y="255" on="1"/>
        <pt x="413" y="255" on="1"/>
        <pt x="390" y="331" on="1"/>
        <pt x="227" y="331" on="1"/>
        <pt x="169" y="52" on="1"/>
        <pt x="398" y="52" on="1"/>
        <pt x="473" y="172" on="1"/>
        <pt x="498" y="172" on="1"/>
        <pt x="496" y="133" on="0"/>
        <pt x="484" y="44" on="0"/>
        <pt x="473" y="0" on="1"/>
        <pt x="426" y="0" on="1"/>
        <pt x="403" y="-12" on="0"/>
        <pt x="363" y="-41" on="0"/>
        <pt x="332" y="-75" on="0"/>
        <pt x="314" y="-114" on="0"/>
        <pt x="314" y="-135" on="1"/>
        <pt x="314" y="-163" on="0"/>
        <pt x="350" y="-199" on="0"/>
        <pt x="381" y="-199" on="1"/>
        <pt x="412" y="-199" on="0"/>
        <pt x="436" y="-193" on="1"/>
        <pt x="436" y="-222" on="1"/>
        <pt x="422" y="-233" on="0"/>
        <pt x="378" y="-251" on="0"/>
        <pt x="345" y="-251" on="1"/>
        <pt x="322" y="-251" on="0"/>
        <pt x="281" y="-237" on="0"/>
        <pt x="250" y="-211" on="0"/>
        <pt x="232" y="-174" on="0"/>
        <pt x="232" y="-152" on="1"/>
        <pt x="232" y="-101" on="0"/>
        <pt x="308" y="-27" on="0"/>
        <pt x="370" y="0" on="1"/>
        <pt x="-20" y="0" on="1"/>
        <pt x="-15" y="29" on="1"/>
        <pt x="26" y="46" on="0"/>
        <pt x="73" y="53" on="1"/>
        <pt x="198" y="646" on="1"/>
        <pt x="178" y="651" on="0"/>
        <pt x="140" y="663" on="0"/>
        <pt x="121" y="671" on="1"/>
        <pt x="128" y="700" on="1"/>
      </contour>
    </TTGlyph>
    <TTGlyph name="Eth" xMin="-20" yMin="-9" xMax="695" yMax="708">
      <contour>
        <pt x="-20" y="0" on="1"/>
        <pt x="-15" y="29" on="1"/>
        <pt x="26" y="46" on="0"/>
        <pt x="73" y="53" on="1"/>
        <pt x="132" y="331" on="1"/>
        <pt x="42" y="331" on="1"/>
        <pt x="53" y="383" on="1"/>
        <pt x="142" y="383" on="1"/>
        <pt x="198" y="646" on="1"/>
        <pt x="176" y="651" on="0"/>
        <pt x="137" y="664" on="0"/>
        <pt x="121" y="671" on="1"/>
        <pt x="128" y="700" on="1"/>
        <pt x="229" y="700" on="1"/>
        <pt x="246" y="700" on="0"/>
        <pt x="293" y="702" on="0"/>
        <pt x="342" y="705" on="0"/>
        <pt x="388" y="708" on="0"/>
        <pt x="403" y="708" on="1"/>
        <pt x="483" y="708" on="0"/>
        <pt x="595" y="670" on="0"/>
        <pt x="664" y="605" on="0"/>
        <pt x="695" y="516" on="0"/>
        <pt x="695" y="465" on="1"/>
        <pt x="695" y="414" on="0"/>
        <pt x="678" y="303" on="0"/>
        <pt x="638" y="198" on="0"/>
        <pt x="571" y="104" on="0"/>
        <pt x="470" y="33" on="0"/>
        <pt x="332" y="-9" on="0"/>
        <pt x="242" y="-9" on="1"/>
        <pt x="227" y="-9" on="0"/>
        <pt x="186" y="-6" on="0"/>
        <pt x="140" y="-3" on="0"/>
        <pt x="94" y="0" on="0"/>
        <pt x="75" y="0" on="1"/>
      </contour>
      <contour>
        <pt x="383" y="656" on="1"/>
        <pt x="357" y="656" on="0"/>
        <pt x="303" y="654" on="0"/>
        <pt x="289" y="652" on="1"/>
        <pt x="232" y="383" on="1"/>
        <pt x="399" y="383" on="1"/>
        <pt x="388" y="331" on="1"/>
        <pt x="221" y="331" on="1"/>
        <pt x="161" y="46" on="1"/>
        <pt x="171" y="45" on="0"/>
        <pt x="200" y="44" on="0"/>
        <pt x="229" y="43" on="0"/>
        <pt x="252" y="42" on="0"/>
        <pt x="258" y="43" on="1"/>
        <pt x="352" y="42" on="0"/>
        <pt x="479" y="118" on="0"/>
        <pt x="556" y="241" on="0"/>
        <pt x="588" y="394" on="0"/>
        <pt x="588" y="471" on="1"/>
        <pt x="588" y="510" on="0"/>
        <pt x="570" y="578" on="0"/>
        <pt x="524" y="627" on="0"/>
        <pt x="445" y="656" on="0"/>
      </contour>
    </TTGlyph>
    <TTGlyph name="Euro" xMin="-49" yMin="-12" xMax="604" yMax="712">
      <contour>
        <pt x="166" y="383" on="1"/>
        <pt x="164" y="366" on="0"/>
        <pt x="160" y="331" on="0"/>
        <pt x="158" y="314" on="1"/>
        <pt x="413" y="314" on="1"/>
        <pt x="385" y="258" on="1"/>
        <pt x="157" y="258" on="1"/>
        <pt x="157" y="195" on="0"/>
        <pt x="186" y="112" on="0"/>
        <pt x="235" y="61" on="0"/>
        <pt x="298" y="40" on="0"/>
        <pt x="331" y="40" on="1"/>
        <pt x="365" y="40" on="0"/>
        <pt x="408" y="52" on="0"/>
        <pt x="418" y="59" on="1"/>
        <pt x="492" y="182" on="1"/>
        <pt x="518" y="182" on="1"/>
        <pt x="517" y="154" on="0"/>
        <pt x="506" y="69" on="0"/>
        <pt x="496" y="29" on="1"/>
        <pt x="457" y="6" on="0"/>
        <pt x="357" y="-12" on="0"/>
        <pt x="315" y="-12" on="1"/>
        <pt x="236" y="-12" on="0"/>
        <pt x="134" y="36" on="0"/>
        <pt x="75" y="113" on="0"/>
        <pt x="52" y="209" on="0"/>
        <pt x="52" y="258" on="1"/>
        <pt x="-49" y="258" on="1"/>
        <pt x="-22" y="314" on="1"/>
        <pt x="54" y="314" on="1"/>
        <pt x="56" y="331" on="0"/>
        <pt x="60" y="366" on="0"/>
        <pt x="64" y="383" on="1"/>
        <pt x="-23" y="383" on="1"/>
        <pt x="5" y="439" on="1"/>
        <pt x="77" y="439" on="1"/>
        <pt x="96" y="502" on="0"/>
        <pt x="162" y="603" on="0"/>
        <pt x="250" y="674" on="0"/>
        <pt x="357" y="712" on="0"/>
        <pt x="419" y="712" on="1"/>
        <pt x="485" y="712" on="0"/>
        <pt x="573" y="694" on="0"/>
        <pt x="604" y="678" on="1"/>
        <pt x="601" y="662" on="0"/>
        <pt x="590" y="619" on="0"/>
        <pt x="575" y="571" on="0"/>
        <pt x="559" y="525" on="0"/>
        <pt x="552" y="506" on="1"/>
        <pt x="526" y="506" on="1"/>
        <pt x="505" y="650" on="1"/>
        <pt x="493" y="655" on="0"/>
        <pt x="444" y="660" on="0"/>
        <pt x="419" y="660" on="1"/>
        <pt x="338" y="660" on="0"/>
        <pt x="209" y="550" on="0"/>
        <pt x="178" y="439" on="1"/>
        <pt x="474" y="439" on="1"/>
        <pt x="446" y="383" on="1"/>
      </contour>
    </TTGlyph>
    <TTGlyph name="F" xMin="-20" yMin="0" xMax="597" yMax="700">
      <contour>
        <pt x="159" y="53" on="1"/>
        <pt x="201" y="47" on="0"/>
        <pt x="239" y="29" on="1"/>
        <pt x="234" y="0" on="1"/>
        <pt x="-20" y="0" on="1"/>
        <pt x="-15" y="29" on="1"/>
        <pt x="3" y="37" on="0"/>
        <pt x="43" y="49" on="0"/>
        <pt x="63" y="53" on="1"/>
        <pt x="188" y="646" on="1"/>
        <pt x="168" y="652" on="0"/>
        <pt x="134" y="664" on="0"/>
        <pt x="121" y="671" on="1"/>
        <pt x="128" y="700" on="1"/>
        <pt x="597" y="700" on="1"/>
        <pt x="588" y="661" on="0"/>
        <pt x="566" y="579" on="0"/>
        <pt x="551" y="538" on="1"/>
        <pt x="525" y="538" on="1"/>
        <pt x="508" y="648" on="1"/>
        <pt x="284" y="648" on="1"/>
        <pt x="224" y="363" on="1"/>
        <pt x="399" y="363" on="1"/>
        <pt x="453" y="437" on="1"/>
        <pt x="478" y="437" on="1"/>
        <pt x="473" y="392" on="0"/>
        <pt x="450" y="281" on="0"/>
        <pt x="436" y="235" on="1"/>
        <pt x="411" y="235" on="1"/>
        <pt x="389" y="312" on="1"/>
        <pt x="213" y="312" on="1"/>
      </contour>
    </TTGlyph>
    <TTGlyph name="G" xMin="66" yMin="-12" xMax="693" yMax="712">
      <contour>
        <pt x="571" y="48" on="1"/>
        <pt x="549" y="35" on="0"/>
        <pt x="493" y="13" on="0"/>
        <pt x="434" y="-3" on="0"/>
        <pt x="375" y="-12" on="0"/>
        <pt x="350" y="-12" on="1"/>
        <pt x="217" y="-12" on="0"/>
        <pt x="66" y="129" on="0"/>
        <pt x="66" y="259" on="1"/>
        <pt x="66" y="360" on="0"/>
        <pt x="123" y="527" on="0"/>
        <pt x="231" y="646" on="0"/>
        <pt x="386" y="712" on="0"/>
        <pt x="484" y="712" on="1"/>
        <pt x="550" y="712" on="0"/>
        <pt x="644" y="695" on="0"/>
        <pt x="675" y="678" on="1"/>
        <pt x="672" y="663" on="0"/>
        <pt x="661" y="619" on="0"/>
        <pt x="646" y="571" on="0"/>
        <pt x="630" y="524" on="0"/>
        <pt x="623" y="506" on="1"/>
        <pt x="597" y="506" on="1"/>
        <pt x="576" y="650" on="1"/>
        <pt x="558" y="655" on="0"/>
        <pt x="504" y="660" on="0"/>
        <pt x="479" y="660" on="1"/>
        <pt x="402" y="660" on="0"/>
        <pt x="287" y="597" on="0"/>
        <pt x="211" y="489" on="0"/>
        <pt x="173" y="344" on="0"/>
        <pt x="173" y="261" on="1"/>
        <pt x="173" y="190" on="0"/>
        <pt x="213" y="103" on="0"/>
        <pt x="272" y="55" on="0"/>
        <pt x="339" y="39" on="0"/>
        <pt x="367" y="40" on="1"/>
        <pt x="407" y="39" on="0"/>
        <pt x="475" y="65" on="0"/>
        <pt x="488" y="75" on="1"/>
        <pt x="532" y="277" on="1"/>
        <pt x="506" y="279" on="0"/>
        <pt x="462" y="293" on="0"/>
        <pt x="441" y="301" on="1"/>
        <pt x="448" y="330" on="1"/>
        <pt x="693" y="330" on="1"/>
        <pt x="687" y="301" on="1"/>
        <pt x="676" y="294" on="0"/>
        <pt x="644" y="282" on="0"/>
        <pt x="619" y="277" on="1"/>
      </contour>
    </TTGlyph>
    <TTGlyph name="Gbreve" xMin="66" yMin="-12" xMax="693" yMax="890">
      <component glyphName="G" x="0" y="0" flags="0x204"/>
      <component glyphName="uniF406" x="62" y="0" flags="0x4"/>
    </TTGlyph>
    <TTGlyph name="Gcircumflex" xMin="66" yMin="-12" xMax="693" yMax="887">
      <component glyphName="G" x="0" y="0" flags="0x204"/>
      <component glyphName="uniF408" x="53" y="0" flags="0x4"/>
    </TTGlyph>
    <TTGlyph name="Gcommaaccent" xMin="66" yMin="-272" xMax="693" yMax="712">
      <component glyphName="G" x="0" y="0" flags="0x204"/>
      <component glyphName="uniF409" x="245" y="0" flags="0x4"/>
    </TTGlyph>
    <TTGlyph name="H" xMin="-20" yMin="0" xMax="798" yMax="700">
      <contour>
        <pt x="233" y="0" on="1"/>
        <pt x="-20" y="0" on="1"/>
        <pt x="-15" y="29" on="1"/>
        <pt x="7" y="39" on="0"/>
        <pt x="51" y="50" on="0"/>
        <pt x="73" y="53" on="1"/>
        <pt x="198" y="646" on="1"/>
        <pt x="153" y="655" on="0"/>
        <pt x="121" y="671" on="1"/>
        <pt x="128" y="700" on="1"/>
        <pt x="381" y="700" on="1"/>
        <pt x="375" y="671" on="1"/>
        <pt x="358" y="662" on="0"/>
        <pt x="314" y="650" on="0"/>
        <pt x="294" y="646" on="1"/>
        <pt x="239" y="385" on="1"/>
        <pt x="553" y="385" on="1"/>
        <pt x="609" y="646" on="1"/>
        <pt x="589" y="651" on="0"/>
        <pt x="554" y="662" on="0"/>
        <pt x="538" y="671" on="1"/>
        <pt x="545" y="700" on="1"/>
        <pt x="798" y="700" on="1"/>
        <pt x="792" y="671" on="1"/>
        <pt x="772" y="661" on="0"/>
        <pt x="727" y="650" on="0"/>
        <pt x="705" y="646" on="1"/>
        <pt x="579" y="53" on="1"/>
        <pt x="624" y="45" on="0"/>
        <pt x="655" y="29" on="1"/>
        <pt x="650" y="0" on="1"/>
        <pt x="397" y="0" on="1"/>
        <pt x="402" y="29" on="1"/>
        <pt x="421" y="37" on="0"/>
        <pt x="462" y="49" on="0"/>
        <pt x="483" y="53" on="1"/>
        <pt x="542" y="333" on="1"/>
        <pt x="227" y="333" on="1"/>
        <pt x="169" y="53" on="1"/>
        <pt x="187" y="49" on="0"/>
        <pt x="223" y="37" on="0"/>
        <pt x="238" y="29" on="1"/>
      </contour>
    </TTGlyph>
    <TTGlyph name="Hbar" xMin="-20" yMin="0" xMax="798" yMax="700">
      <contour>
        <pt x="99" y="557" on="1"/>
        <pt x="179" y="557" on="1"/>
        <pt x="198" y="646" on="1"/>
        <pt x="153" y="655" on="0"/>
        <pt x="121" y="671" on="1"/>
        <pt x="128" y="700" on="1"/>
        <pt x="381" y="700" on="1"/>
        <pt x="375" y="671" on="1"/>
        <pt x="358" y="662" on="0"/>
        <pt x="314" y="650" on="0"/>
        <pt x="294" y="646" on="1"/>
        <pt x="275" y="557" on="1"/>
        <pt x="589" y="557" on="1"/>
        <pt x="609" y="646" on="1"/>
        <pt x="589" y="651" on="0"/>
        <pt x="554" y="662" on="0"/>
        <pt x="538" y="671" on="1"/>
        <pt x="545" y="700" on="1"/>
        <pt x="798" y="700" on="1"/>
        <pt x="792" y="671" on="1"/>
        <pt x="772" y="661" on="0"/>
        <pt x="727" y="650" on="0"/>
        <pt x="705" y="646" on="1"/>
        <pt x="686" y="557" on="1"/>
        <pt x="767" y="557" on="1"/>
        <pt x="755" y="505" on="1"/>
        <pt x="675" y="505" on="1"/>
        <pt x="579" y="53" on="1"/>
        <pt x="624" y="45" on="0"/>
        <pt x="655" y="29" on="1"/>
        <pt x="650" y="0" on="1"/>
        <pt x="397" y="0" on="1"/>
        <pt x="402" y="29" on="1"/>
        <pt x="421" y="37" on="0"/>
        <pt x="462" y="49" on="0"/>
        <pt x="483" y="53" on="1"/>
        <pt x="542" y="333" on="1"/>
        <pt x="227" y="333" on="1"/>
        <pt x="169" y="53" on="1"/>
        <pt x="187" y="49" on="0"/>
        <pt x="223" y="37" on="0"/>
        <pt x="238" y="29" on="1"/>
        <pt x="233" y="0" on="1"/>
        <pt x="-20" y="0" on="1"/>
        <pt x="-15" y="29" on="1"/>
        <pt x="7" y="39" on="0"/>
        <pt x="51" y="50" on="0"/>
        <pt x="73" y="53" on="1"/>
        <pt x="168" y="505" on="1"/>
        <pt x="88" y="505" on="1"/>
      </contour>
      <contour>
        <pt x="553" y="385" on="1"/>
        <pt x="579" y="505" on="1"/>
        <pt x="264" y="505" on="1"/>
        <pt x="239" y="385" on="1"/>
      </contour>
    </TTGlyph>
    <TTGlyph name="Hcircumflex" xMin="-20" yMin="0" xMax="798" yMax="887">
      <component glyphName="H" x="0" y="0" flags="0x204"/>
      <component glyphName="uniF408" x="55" y="0" flags="0x4"/>
    </TTGlyph>
    <TTGlyph name="I" xMin="-1" yMin="0" xMax="403" yMax="700">
      <contour>
        <pt x="255" y="0" on="1"/>
        <pt x="-1" y="0" on="1"/>
        <pt x="4" y="29" on="1"/>
        <pt x="48" y="47" on="0"/>
        <pt x="90" y="53" on="1"/>
        <pt x="215" y="646" on="1"/>
        <pt x="195" y="650" on="0"/>
        <pt x="159" y="663" on="0"/>
        <pt x="140" y="671" on="1"/>
        <pt x="147" y="700" on="1"/>
        <pt x="403" y="700" on="1"/>
        <pt x="397" y="671" on="1"/>
        <pt x="377" y="663" on="0"/>
        <pt x="331" y="650" on="0"/>
        <pt x="311" y="646" on="1"/>
        <pt x="186" y="53" on="1"/>
        <pt x="206" y="49" on="0"/>
        <pt x="245" y="37" on="0"/>
        <pt x="260" y="29" on="1"/>
      </contour>
    </TTGlyph>
    <TTGlyph name="Iacute" xMin="-1" yMin="0" xMax="437" yMax="894">
      <component glyphName="I" x="0" y="0" flags="0x204"/>
      <component glyphName="uniF6C9" x="-152" y="0" flags="0x4"/>
    </TTGlyph>
    <TTGlyph name="Icircumflex" xMin="-1" yMin="0" xMax="416" yMax="887">
      <component glyphName="I" x="0" y="0" flags="0x204"/>
      <component glyphName="uniF408" x="-143" y="0" flags="0x4"/>
    </TTGlyph>
    <TTGlyph name="Idieresis" xMin="-1" yMin="0" xMax="450" yMax="837">
      <component glyphName="I" x="0" y="0" flags="0x204"/>
      <component glyphName="uniF6CB" x="-106" y="0" flags="0x4"/>
    </TTGlyph>
    <TTGlyph name="Idotaccent" xMin="-1" yMin="0" xMax="403" yMax="871">
      <component glyphName="I" x="0" y="0" flags="0x204"/>
      <component glyphName="uniF40B" x="-48" y="0" flags="0x4"/>
    </TTGlyph>
    <TTGlyph name="Igrave" xMin="-1" yMin="0" xMax="403" yMax="894">
      <component glyphName="I" x="0" y="0" flags="0x204"/>
      <component glyphName="uniF6CE" x="-68" y="0" flags="0x4"/>
    </TTGlyph>
    <TTGlyph name="Imacron" xMin="-1" yMin="0" xMax="450" yMax="840">
      <component glyphName="I" x="0" y="0" flags="0x204"/>
      <component glyphName="uniF6D0" x="-134" y="0" flags="0x4"/>
    </TTGlyph>
    <TTGlyph name="Iogonek" xMin="-1" yMin="-251" xMax="403" yMax="700">
      <contour>
        <pt x="255" y="0" on="1"/>
        <pt x="204" y="0" on="1"/>
        <pt x="158" y="-23" on="0"/>
        <pt x="92" y="-93" on="0"/>
        <pt x="92" y="-135" on="1"/>
        <pt x="92" y="-163" on="0"/>
        <pt x="128" y="-199" on="0"/>
        <pt x="159" y="-199" on="1"/>
        <pt x="190" y="-199" on="0"/>
        <pt x="214" y="-193" on="1"/>
        <pt x="214" y="-222" on="1"/>
        <pt x="200" y="-233" on="0"/>
        <pt x="156" y="-251" on="0"/>
        <pt x="123" y="-251" on="1"/>
        <pt x="100" y="-251" on="0"/>
        <pt x="59" y="-237" on="0"/>
        <pt x="28" y="-211" on="0"/>
        <pt x="10" y="-174" on="0"/>
        <pt x="10" y="-152" on="1"/>
        <pt x="10" y="-101" on="0"/>
        <pt x="86" y="-27" on="0"/>
        <pt x="148" y="0" on="1"/>
        <pt x="-1" y="0" on="1"/>
        <pt x="4" y="29" on="1"/>
        <pt x="48" y="47" on="0"/>
        <pt x="90" y="53" on="1"/>
        <pt x="215" y="646" on="1"/>
        <pt x="195" y="650" on="0"/>
        <pt x="159" y="663" on="0"/>
        <pt x="140" y="671" on="1"/>
        <pt x="147" y="700" on="1"/>
        <pt x="403" y="700" on="1"/>
        <pt x="397" y="671" on="1"/>
        <pt x="377" y="663" on="0"/>
        <pt x="331" y="650" on="0"/>
        <pt x="311" y="646" on="1"/>
        <pt x="186" y="53" on="1"/>
        <pt x="206" y="49" on="0"/>
        <pt x="245" y="37" on="0"/>
        <pt x="260" y="29" on="1"/>
      </contour>
    </TTGlyph>
    <TTGlyph name="J" xMin="-32" yMin="-160" xMax="391" yMax="700">
      <contour>
        <pt x="136" y="700" on="1"/>
        <pt x="391" y="700" on="1"/>
        <pt x="386" y="671" on="1"/>
        <pt x="366" y="662" on="0"/>
        <pt x="320" y="650" on="0"/>
        <pt x="300" y="646" on="1"/>
        <pt x="182" y="86" on="1"/>
        <pt x="167" y="17" on="0"/>
        <pt x="116" y="-73" on="0"/>
        <pt x="57" y="-128" on="0"/>
        <pt x="-2" y="-155" on="0"/>
        <pt x="-25" y="-160" on="1"/>
        <pt x="-32" y="-145" on="1"/>
        <pt x="-12" y="-129" on="0"/>
        <pt x="21" y="-96" on="0"/>
        <pt x="49" y="-47" on="0"/>
        <pt x="73" y="23" on="0"/>
        <pt x="84" y="75" on="1"/>
        <pt x="204" y="646" on="1"/>
        <pt x="161" y="656" on="0"/>
        <pt x="130" y="671" on="1"/>
      </contour>
    </TTGlyph>
    <TTGlyph name="Jcircumflex" xMin="-32" yMin="-160" xMax="408" yMax="887">
      <component glyphName="J" x="0" y="0" flags="0x204"/>
      <component glyphName="uniF408" x="-151" y="0" flags="0x4"/>
    </TTGlyph>
    <TTGlyph name="K" xMin="-20" yMin="0" xMax="703" yMax="700">
      <contour>
        <pt x="476" y="700" on="1"/>
        <pt x="703" y="700" on="1"/>
        <pt x="696" y="671" on="1"/>
        <pt x="678" y="662" on="0"/>
        <pt x="634" y="650" on="0"/>
        <pt x="615" y="646" on="1"/>
        <pt x="356" y="376" on="1"/>
        <pt x="374" y="343" on="0"/>
        <pt x="421" y="263" on="0"/>
        <pt x="474" y="177" on="0"/>
        <pt x="531" y="89" on="0"/>
        <pt x="559" y="49" on="1"/>
        <pt x="602" y="25" on="1"/>
        <pt x="597" y="0" on="1"/>
        <pt x="476" y="0" on="1"/>
        <pt x="447" y="24" on="1"/>
        <pt x="402" y="93" on="0"/>
        <pt x="318" y="253" on="0"/>
        <pt x="281" y="335" on="1"/>
        <pt x="228" y="335" on="1"/>
        <pt x="169" y="53" on="1"/>
        <pt x="210" y="45" on="0"/>
        <pt x="238" y="29" on="1"/>
        <pt x="233" y="0" on="1"/>
        <pt x="-20" y="0" on="1"/>
        <pt x="-15" y="29" on="1"/>
        <pt x="30" y="47" on="0"/>
        <pt x="73" y="53" on="1"/>
        <pt x="198" y="646" on="1"/>
        <pt x="176" y="650" on="0"/>
        <pt x="137" y="662" on="0"/>
        <pt x="121" y="671" on="1"/>
        <pt x="128" y="700" on="1"/>
        <pt x="381" y="700" on="1"/>
        <pt x="375" y="671" on="1"/>
        <pt x="341" y="655" on="0"/>
        <pt x="294" y="646" on="1"/>
        <pt x="236" y="369" on="1"/>
        <pt x="296" y="383" on="1"/>
        <pt x="536" y="646" on="1"/>
        <pt x="516" y="651" on="0"/>
        <pt x="484" y="662" on="0"/>
        <pt x="469" y="671" on="1"/>
      </contour>
    </TTGlyph>
    <TTGlyph name="Kcommaaccent" xMin="-20" yMin="-272" xMax="703" yMax="700">
      <component glyphName="K" x="0" y="0" flags="0x204"/>
      <component glyphName="uniF409" x="193" y="0" flags="0x4"/>
    </TTGlyph>
    <TTGlyph name="L" xMin="-20" yMin="0" xMax="517" yMax="700">
      <contour>
        <pt x="128" y="700" on="1"/>
        <pt x="402" y="700" on="1"/>
        <pt x="395" y="671" on="1"/>
        <pt x="370" y="662" on="0"/>
        <pt x="319" y="649" on="0"/>
        <pt x="294" y="646" on="1"/>
        <pt x="169" y="52" on="1"/>
        <pt x="398" y="52" on="1"/>
        <pt x="491" y="213" on="1"/>
        <pt x="517" y="213" on="1"/>
        <pt x="515" y="192" on="0"/>
        <pt x="509" y="137" on="0"/>
        <pt x="500" y="78" on="0"/>
        <pt x="489" y="22" on="0"/>
        <pt x="483" y="0" on="1"/>
        <pt x="-20" y="0" on="1"/>
        <pt x="-15" y="29" on="1"/>
        <pt x="12" y="40" on="0"/>
        <pt x="54" y="50" on="0"/>
        <pt x="73" y="53" on="1"/>
        <pt x="198" y="646" on="1"/>
        <pt x="151" y="655" on="0"/>
        <pt x="121" y="671" on="1"/>
      </contour>
    </TTGlyph>
    <TTGlyph name="Lacute" xMin="-20" yMin="0" xMax="517" yMax="894">
      <component glyphName="L" x="0" y="0" flags="0x204"/>
      <component glyphName="uniF6C9" x="-99" y="0" flags="0x4"/>
    </TTGlyph>
    <TTGlyph name="Lcaron" xMin="-20" yMin="0" xMax="589" yMax="713">
      <component glyphName="L" x="0" y="0" flags="0x204"/>
      <component glyphName="caron.L" x="105" y="0" flags="0x4"/>
    </TTGlyph>
    <TTGlyph name="Lcommaaccent" xMin="-20" yMin="-272" xMax="517" yMax="700">
      <component glyphName="L" x="0" y="0" flags="0x204"/>
      <component glyphName="uniF409" x="146" y="0" flags="0x4"/>
    </TTGlyph>
    <TTGlyph name="Lslash" xMin="-20" yMin="0" xMax="517" yMax="700">
      <contour>
        <pt x="128" y="700" on="1"/>
        <pt x="402" y="700" on="1"/>
        <pt x="395" y="671" on="1"/>
        <pt x="370" y="662" on="0"/>
        <pt x="319" y="649" on="0"/>
        <pt x="294" y="646" on="1"/>
        <pt x="240" y="392" on="1"/>
        <pt x="393" y="476" on="1"/>
        <pt x="379" y="410" on="1"/>
        <pt x="227" y="326" on="1"/>
        <pt x="169" y="52" on="1"/>
        <pt x="398" y="52" on="1"/>
        <pt x="491" y="213" on="1"/>
        <pt x="517" y="213" on="1"/>
        <pt x="515" y="192" on="0"/>
        <pt x="509" y="137" on="0"/>
        <pt x="500" y="78" on="0"/>
        <pt x="489" y="22" on="0"/>
        <pt x="483" y="0" on="1"/>
        <pt x="-20" y="0" on="1"/>
        <pt x="-15" y="29" on="1"/>
        <pt x="12" y="40" on="0"/>
        <pt x="54" y="50" on="0"/>
        <pt x="73" y="53" on="1"/>
        <pt x="118" y="268" on="1"/>
        <pt x="12" y="210" on="1"/>
        <pt x="26" y="275" on="1"/>
        <pt x="131" y="333" on="1"/>
        <pt x="198" y="646" on="1"/>
        <pt x="151" y="655" on="0"/>
        <pt x="121" y="671" on="1"/>
      </contour>
    </TTGlyph>
    <TTGlyph name="M" xMin="-20" yMin="0" xMax="936" yMax="700">
      <contour>
        <pt x="787" y="0" on="1"/>
        <pt x="539" y="0" on="1"/>
        <pt x="544" y="29" on="1"/>
        <pt x="566" y="37" on="0"/>
        <pt x="608" y="48" on="0"/>
        <pt x="631" y="53" on="1"/>
        <pt x="725" y="503" on="1"/>
        <pt x="755" y="620" on="1"/>
        <pt x="747" y="620" on="1"/>
        <pt x="693" y="513" on="1"/>
        <pt x="377" y="0" on="1"/>
        <pt x="351" y="0" on="1"/>
        <pt x="264" y="513" on="1"/>
        <pt x="253" y="630" on="1"/>
        <pt x="244" y="630" on="1"/>
        <pt x="218" y="503" on="1"/>
        <pt x="123" y="53" on="1"/>
        <pt x="141" y="49" on="0"/>
        <pt x="177" y="37" on="0"/>
        <pt x="194" y="29" on="1"/>
        <pt x="188" y="0" on="1"/>
        <pt x="-20" y="0" on="1"/>
        <pt x="-15" y="29" on="1"/>
        <pt x="25" y="46" on="0"/>
        <pt x="72" y="54" on="1"/>
        <pt x="197" y="646" on="1"/>
        <pt x="177" y="650" on="0"/>
        <pt x="137" y="663" on="0"/>
        <pt x="120" y="671" on="1"/>
        <pt x="126" y="700" on="1"/>
        <pt x="334" y="700" on="1"/>
        <pt x="405" y="243" on="1"/>
        <pt x="417" y="140" on="1"/>
        <pt x="418" y="140" on="1"/>
        <pt x="470" y="245" on="1"/>
        <pt x="752" y="700" on="1"/>
        <pt x="936" y="700" on="1"/>
        <pt x="929" y="671" on="1"/>
        <pt x="890" y="654" on="0"/>
        <pt x="848" y="646" on="1"/>
        <pt x="722" y="52" on="1"/>
        <pt x="742" y="48" on="0"/>
        <pt x="778" y="37" on="0"/>
        <pt x="792" y="29" on="1"/>
      </contour>
    </TTGlyph>
    <TTGlyph name="N" xMin="-20" yMin="-12" xMax="801" yMax="700">
      <contour>
        <pt x="588" y="700" on="1"/>
        <pt x="801" y="700" on="1"/>
        <pt x="795" y="671" on="1"/>
        <pt x="775" y="657" on="0"/>
        <pt x="727" y="637" on="0"/>
        <pt x="705" y="631" on="1"/>
        <pt x="568" y="-12" on="1"/>
        <pt x="514" y="-12" on="1"/>
        <pt x="263" y="539" on="1"/>
        <pt x="242" y="617" on="1"/>
        <pt x="239" y="617" on="1"/>
        <pt x="229" y="539" on="1"/>
        <pt x="129" y="64" on="1"/>
        <pt x="147" y="59" on="0"/>
        <pt x="183" y="41" on="0"/>
        <pt x="198" y="29" on="1"/>
        <pt x="192" y="0" on="1"/>
        <pt x="-20" y="0" on="1"/>
        <pt x="-15" y="29" on="1"/>
        <pt x="28" y="55" on="0"/>
        <pt x="75" y="64" on="1"/>
        <pt x="197" y="637" on="1"/>
        <pt x="178" y="645" on="0"/>
        <pt x="143" y="663" on="0"/>
        <pt x="129" y="672" on="1"/>
        <pt x="134" y="700" on="1"/>
        <pt x="300" y="700" on="1"/>
        <pt x="515" y="225" on="1"/>
        <pt x="545" y="139" on="1"/>
        <pt x="549" y="139" on="1"/>
        <pt x="565" y="225" on="1"/>
        <pt x="651" y="631" on="1"/>
        <pt x="611" y="648" on="0"/>
        <pt x="582" y="671" on="1"/>
      </contour>
    </TTGlyph>
    <TTGlyph name="Nacute" xMin="-20" yMin="-12" xMax="801" yMax="894">
      <component glyphName="N" x="0" y="0" flags="0x204"/>
      <component glyphName="uniF6C9" x="30" y="0" flags="0x4"/>
    </TTGlyph>
    <TTGlyph name="Ncaron" xMin="-20" yMin="-12" xMax="801" yMax="888">
      <component glyphName="N" x="0" y="0" flags="0x204"/>
      <component glyphName="uniF6CA" x="43" y="0" flags="0x4"/>
    </TTGlyph>
    <TTGlyph name="Ncommaaccent" xMin="-20" yMin="-272" xMax="801" yMax="700">
      <component glyphName="N" x="0" y="0" flags="0x204"/>
      <component glyphName="uniF409" x="192" y="0" flags="0x4"/>
    </TTGlyph>
    <TTGlyph name="Ntilde" xMin="-20" yMin="-12" xMax="801" yMax="862">
      <component glyphName="N" x="0" y="0" flags="0x204"/>
      <component glyphName="uniF40D" x="-70" y="0" flags="0x4"/>
    </TTGlyph>
    <TTGlyph name="O" xMin="66" yMin="-12" xMax="724" yMax="712">
      <contour>
        <pt x="66" y="278" on="1"/>
        <pt x="66" y="369" on="0"/>
        <pt x="121" y="527" on="0"/>
        <pt x="225" y="644" on="0"/>
        <pt x="371" y="712" on="0"/>
        <pt x="463" y="712" on="1"/>
        <pt x="536" y="712" on="0"/>
        <pt x="636" y="664" on="0"/>
        <pt x="697" y="586" on="0"/>
        <pt x="724" y="485" on="0"/>
        <pt x="724" y="431" on="1"/>
        <pt x="724" y="351" on="0"/>
        <pt x="679" y="192" on="0"/>
        <pt x="585" y="66" on="0"/>
        <pt x="442" y="-12" on="0"/>
        <pt x="344" y="-12" on="1"/>
        <pt x="272" y="-12" on="0"/>
        <pt x="167" y="35" on="0"/>
        <pt x="99" y="114" on="0"/>
        <pt x="66" y="219" on="0"/>
      </contour>
      <contour>
        <pt x="173" y="277" on="1"/>
        <pt x="173" y="222" on="0"/>
        <pt x="202" y="134" on="0"/>
        <pt x="253" y="72" on="0"/>
        <pt x="322" y="39" on="0"/>
        <pt x="363" y="40" on="1"/>
        <pt x="436" y="39" on="0"/>
        <pt x="533" y="112" on="0"/>
        <pt x="592" y="227" on="0"/>
        <pt x="617" y="366" on="0"/>
        <pt x="617" y="432" on="1"/>
        <pt x="617" y="483" on="0"/>
        <pt x="594" y="567" on="0"/>
        <pt x="548" y="627" on="0"/>
        <pt x="481" y="660" on="0"/>
        <pt x="437" y="660" on="1"/>
        <pt x="368" y="660" on="0"/>
        <pt x="268" y="588" on="0"/>
        <pt x="203" y="476" on="0"/>
        <pt x="173" y="340" on="0"/>
      </contour>
    </TTGlyph>
    <TTGlyph name="OE" xMin="66" yMin="-12" xMax="975" yMax="712">
      <contour>
        <pt x="437" y="0" on="1"/>
        <pt x="410" y="-5" on="0"/>
        <pt x="366" y="-12" on="0"/>
        <pt x="339" y="-12" on="1"/>
        <pt x="201" y="-12" on="0"/>
        <pt x="66" y="125" on="0"/>
        <pt x="66" y="256" on="1"/>
        <pt x="66" y="336" on="0"/>
        <pt x="111" y="499" on="0"/>
        <pt x="208" y="630" on="0"/>
        <pt x="359" y="712" on="0"/>
        <pt x="465" y="712" on="1"/>
        <pt x="488" y="712" on="0"/>
        <pt x="556" y="706" on="0"/>
        <pt x="584" y="700" on="1"/>
        <pt x="975" y="700" on="1"/>
        <pt x="966" y="660" on="0"/>
        <pt x="944" y="579" on="0"/>
        <pt x="930" y="538" on="1"/>
        <pt x="904" y="538" on="1"/>
        <pt x="887" y="648" on="1"/>
        <pt x="668" y="648" on="1"/>
        <pt x="613" y="383" on="1"/>
        <pt x="775" y="383" on="1"/>
        <pt x="830" y="457" on="1"/>
        <pt x="855" y="457" on="1"/>
        <pt x="847" y="407" on="0"/>
        <pt x="826" y="306" on="0"/>
        <pt x="812" y="255" on="1"/>
        <pt x="787" y="255" on="1"/>
        <pt x="764" y="331" on="1"/>
        <pt x="601" y="331" on="1"/>
        <pt x="542" y="52" on="1"/>
        <pt x="772" y="52" on="1"/>
        <pt x="847" y="172" on="1"/>
        <pt x="872" y="172" on="1"/>
        <pt x="870" y="130" on="0"/>
        <pt x="858" y="44" on="0"/>
        <pt x="847" y="0" on="1"/>
      </contour>
      <contour>
        <pt x="339" y="40" on="1"/>
        <pt x="365" y="39" on="0"/>
        <pt x="421" y="48" on="0"/>
        <pt x="448" y="59" on="1"/>
        <pt x="570" y="636" on="1"/>
        <pt x="547" y="647" on="0"/>
        <pt x="487" y="660" on="0"/>
        <pt x="453" y="660" on="1"/>
        <pt x="388" y="660" on="0"/>
        <pt x="284" y="596" on="0"/>
        <pt x="212" y="485" on="0"/>
        <pt x="173" y="335" on="0"/>
        <pt x="173" y="249" on="1"/>
        <pt x="173" y="213" on="0"/>
        <pt x="187" y="138" on="0"/>
        <pt x="223" y="77" on="0"/>
        <pt x="288" y="39" on="0"/>
      </contour>
    </TTGlyph>
    <TTGlyph name="Oacute" xMin="66" yMin="-12" xMax="724" yMax="894">
      <component glyphName="O" x="0" y="0" flags="0x204"/>
      <component glyphName="uniF6C9" x="46" y="0" flags="0x4"/>
    </TTGlyph>
    <TTGlyph name="Ocircumflex" xMin="66" yMin="-12" xMax="724" yMax="887">
      <component glyphName="O" x="0" y="0" flags="0x204"/>
      <component glyphName="uniF408" x="45" y="0" flags="0x4"/>
    </TTGlyph>
    <TTGlyph name="Odieresis" xMin="66" yMin="-12" xMax="724" yMax="837">
      <component glyphName="O" x="0" y="0" flags="0x204"/>
      <component glyphName="uniF6CB" x="80" y="0" flags="0x4"/>
    </TTGlyph>
    <TTGlyph name="Ograve" xMin="66" yMin="-12" xMax="724" yMax="894">
      <component glyphName="O" x="0" y="0" flags="0x204"/>
      <component glyphName="uniF6CE" x="109" y="0" flags="0x4"/>
    </TTGlyph>
    <TTGlyph name="Ohungarumlaut" xMin="66" yMin="-12" xMax="724" yMax="889">
      <component glyphName="O" x="0" y="0" flags="0x204"/>
      <component glyphName="uniF6CF" x="28" y="0" flags="0x4"/>
    </TTGlyph>
    <TTGlyph name="Omacron" xMin="66" yMin="-12" xMax="724" yMax="840">
      <component glyphName="O" x="0" y="0" flags="0x204"/>
      <component glyphName="uniF6D0" x="52" y="0" flags="0x4"/>
    </TTGlyph>
    <TTGlyph name="Oslash" xMin="66" yMin="-13" xMax="724" yMax="713">
      <contour>
        <pt x="66" y="278" on="1"/>
        <pt x="66" y="369" on="0"/>
        <pt x="121" y="527" on="0"/>
        <pt x="225" y="644" on="0"/>
        <pt x="371" y="712" on="0"/>
        <pt x="463" y="712" on="1"/>
        <pt x="515" y="712" on="0"/>
        <pt x="594" y="688" on="0"/>
        <pt x="623" y="667" on="1"/>
        <pt x="662" y="713" on="1"/>
        <pt x="702" y="681" on="1"/>
        <pt x="661" y="632" on="1"/>
        <pt x="695" y="593" on="0"/>
        <pt x="724" y="487" on="0"/>
        <pt x="724" y="431" on="1"/>
        <pt x="724" y="351" on="0"/>
        <pt x="679" y="192" on="0"/>
        <pt x="585" y="66" on="0"/>
        <pt x="442" y="-12" on="0"/>
        <pt x="344" y="-12" on="1"/>
        <pt x="287" y="-12" on="0"/>
        <pt x="199" y="17" on="0"/>
        <pt x="166" y="43" on="1"/>
        <pt x="119" y="-13" on="1"/>
        <pt x="80" y="20" on="1"/>
        <pt x="129" y="78" on="1"/>
        <pt x="97" y="118" on="0"/>
        <pt x="66" y="221" on="0"/>
      </contour>
      <contour>
        <pt x="363" y="40" on="1"/>
        <pt x="411" y="39" on="0"/>
        <pt x="486" y="72" on="0"/>
        <pt x="542" y="129" on="0"/>
        <pt x="581" y="205" on="0"/>
        <pt x="605" y="291" on="0"/>
        <pt x="616" y="382" on="0"/>
        <pt x="617" y="426" on="1"/>
        <pt x="616" y="496" on="0"/>
        <pt x="593" y="551" on="1"/>
        <pt x="223" y="110" on="1"/>
        <pt x="275" y="39" on="0"/>
      </contour>
      <contour>
        <pt x="437" y="660" on="1"/>
        <pt x="368" y="660" on="0"/>
        <pt x="269" y="589" on="0"/>
        <pt x="205" y="480" on="0"/>
        <pt x="174" y="346" on="0"/>
        <pt x="173" y="283" on="1"/>
        <pt x="173" y="248" on="0"/>
        <pt x="185" y="185" on="0"/>
        <pt x="196" y="159" on="1"/>
        <pt x="567" y="600" on="1"/>
        <pt x="544" y="629" on="0"/>
        <pt x="479" y="660" on="0"/>
      </contour>
    </TTGlyph>
    <TTGlyph name="Otilde" xMin="66" yMin="-12" xMax="724" yMax="862">
      <component glyphName="O" x="0" y="0" flags="0x204"/>
      <component glyphName="uniF40D" x="-68" y="0" flags="0x4"/>
    </TTGlyph>
    <TTGlyph name="P" xMin="-20" yMin="0" xMax="614" yMax="708">
      <contour>
        <pt x="169" y="53" on="1"/>
        <pt x="195" y="50" on="0"/>
        <pt x="240" y="37" on="0"/>
        <pt x="259" y="29" on="1"/>
        <pt x="254" y="0" on="1"/>
        <pt x="-20" y="0" on="1"/>
        <pt x="-15" y="29" on="1"/>
        <pt x="8" y="39" on="0"/>
        <pt x="51" y="49" on="0"/>
        <pt x="73" y="53" on="1"/>
        <pt x="198" y="646" on="1"/>
        <pt x="176" y="650" on="0"/>
        <pt x="138" y="663" on="0"/>
        <pt x="121" y="671" on="1"/>
        <pt x="128" y="700" on="1"/>
        <pt x="218" y="700" on="1"/>
        <pt x="258" y="700" on="0"/>
        <pt x="353" y="708" on="0"/>
        <pt x="396" y="708" on="1"/>
        <pt x="444" y="708" on="0"/>
        <pt x="525" y="689" on="0"/>
        <pt x="582" y="648" on="0"/>
        <pt x="614" y="587" on="0"/>
        <pt x="614" y="545" on="1"/>
        <pt x="614" y="486" on="0"/>
        <pt x="571" y="386" on="0"/>
        <pt x="490" y="312" on="0"/>
        <pt x="376" y="270" on="0"/>
        <pt x="306" y="270" on="1"/>
        <pt x="301" y="270" on="0"/>
        <pt x="278" y="270" on="0"/>
        <pt x="251" y="271" on="0"/>
        <pt x="224" y="273" on="0"/>
        <pt x="215" y="274" on="1"/>
      </contour>
      <contour>
        <pt x="370" y="656" on="1"/>
        <pt x="346" y="656" on="0"/>
        <pt x="309" y="653" on="0"/>
        <pt x="295" y="651" on="1"/>
        <pt x="227" y="327" on="1"/>
        <pt x="232" y="326" on="0"/>
        <pt x="251" y="324" on="0"/>
        <pt x="272" y="323" on="0"/>
        <pt x="291" y="322" on="0"/>
        <pt x="297" y="322" on="1"/>
        <pt x="401" y="322" on="0"/>
        <pt x="507" y="441" on="0"/>
        <pt x="507" y="544" on="1"/>
        <pt x="507" y="569" on="0"/>
        <pt x="496" y="610" on="0"/>
        <pt x="465" y="640" on="0"/>
        <pt x="412" y="656" on="0"/>
      </contour>
    </TTGlyph>
    <TTGlyph name="Q" xMin="66" yMin="-202" xMax="742" yMax="712">
      <contour>
        <pt x="742" y="-115" on="1"/>
        <pt x="694" y="-151" on="0"/>
        <pt x="600" y="-202" on="0"/>
        <pt x="551" y="-201" on="1"/>
        <pt x="510" y="-201" on="0"/>
        <pt x="427" y="-171" on="0"/>
        <pt x="334" y="-129" on="0"/>
        <pt x="228" y="-83" on="0"/>
        <pt x="165" y="-66" on="1"/>
        <pt x="200" y="-46" on="1"/>
        <pt x="247" y="-40" on="0"/>
        <pt x="334" y="-52" on="0"/>
        <pt x="417" y="-76" on="0"/>
        <pt x="501" y="-103" on="0"/>
        <pt x="589" y="-120" on="0"/>
        <pt x="685" y="-118" on="0"/>
        <pt x="740" y="-101" on="1"/>
      </contour>
      <contour>
        <pt x="66" y="278" on="1"/>
        <pt x="66" y="369" on="0"/>
        <pt x="121" y="527" on="0"/>
        <pt x="225" y="644" on="0"/>
        <pt x="371" y="712" on="0"/>
        <pt x="463" y="712" on="1"/>
        <pt x="536" y="712" on="0"/>
        <pt x="636" y="664" on="0"/>
        <pt x="697" y="586" on="0"/>
        <pt x="724" y="485" on="0"/>
        <pt x="724" y="431" on="1"/>
        <pt x="724" y="351" on="0"/>
        <pt x="679" y="192" on="0"/>
        <pt x="585" y="66" on="0"/>
        <pt x="442" y="-12" on="0"/>
        <pt x="344" y="-12" on="1"/>
        <pt x="272" y="-12" on="0"/>
        <pt x="167" y="35" on="0"/>
        <pt x="99" y="114" on="0"/>
        <pt x="66" y="219" on="0"/>
      </contour>
      <contour>
        <pt x="173" y="277" on="1"/>
        <pt x="173" y="222" on="0"/>
        <pt x="202" y="134" on="0"/>
        <pt x="253" y="72" on="0"/>
        <pt x="322" y="39" on="0"/>
        <pt x="363" y="40" on="1"/>
        <pt x="436" y="39" on="0"/>
        <pt x="533" y="112" on="0"/>
        <pt x="592" y="227" on="0"/>
        <pt x="617" y="366" on="0"/>
        <pt x="617" y="432" on="1"/>
        <pt x="617" y="483" on="0"/>
        <pt x="594" y="567" on="0"/>
        <pt x="548" y="627" on="0"/>
        <pt x="481" y="660" on="0"/>
        <pt x="437" y="660" on="1"/>
        <pt x="368" y="660" on="0"/>
        <pt x="268" y="588" on="0"/>
        <pt x="203" y="476" on="0"/>
        <pt x="173" y="340" on="0"/>
      </contour>
    </TTGlyph>
    <TTGlyph name="R" xMin="-20" yMin="0" xMax="593" yMax="708">
      <contour>
        <pt x="169" y="53" on="1"/>
        <pt x="213" y="45" on="0"/>
        <pt x="248" y="29" on="1"/>
        <pt x="243" y="0" on="1"/>
        <pt x="-20" y="0" on="1"/>
        <pt x="-15" y="29" on="1"/>
        <pt x="9" y="39" on="0"/>
        <pt x="52" y="49" on="0"/>
        <pt x="73" y="53" on="1"/>
        <pt x="198" y="646" on="1"/>
        <pt x="174" y="652" on="0"/>
        <pt x="135" y="664" on="0"/>
        <pt x="121" y="671" on="1"/>
        <pt x="128" y="700" on="1"/>
        <pt x="216" y="700" on="1"/>
        <pt x="256" y="700" on="0"/>
        <pt x="353" y="708" on="0"/>
        <pt x="397" y="708" on="1"/>
        <pt x="496" y="708" on="0"/>
        <pt x="593" y="623" on="0"/>
        <pt x="593" y="545" on="1"/>
        <pt x="593" y="506" on="0"/>
        <pt x="566" y="434" on="0"/>
        <pt x="517" y="376" on="0"/>
        <pt x="446" y="333" on="0"/>
        <pt x="401" y="322" on="1"/>
        <pt x="430" y="254" on="0"/>
        <pt x="499" y="120" on="0"/>
        <pt x="536" y="54" on="1"/>
        <pt x="583" y="25" on="1"/>
        <pt x="578" y="0" on="1"/>
        <pt x="464" y="0" on="1"/>
        <pt x="430" y="28" on="1"/>
        <pt x="409" y="63" on="0"/>
        <pt x="376" y="131" on="0"/>
        <pt x="349" y="199" on="0"/>
        <pt x="328" y="271" on="0"/>
        <pt x="319" y="310" on="1"/>
        <pt x="223" y="310" on="1"/>
      </contour>
      <contour>
        <pt x="364" y="656" on="1"/>
        <pt x="341" y="656" on="0"/>
        <pt x="308" y="653" on="0"/>
        <pt x="294" y="651" on="1"/>
        <pt x="232" y="353" on="1"/>
        <pt x="303" y="353" on="1"/>
        <pt x="356" y="352" on="0"/>
        <pt x="429" y="386" on="0"/>
        <pt x="474" y="443" on="0"/>
        <pt x="495" y="515" on="0"/>
        <pt x="495" y="553" on="1"/>
        <pt x="496" y="607" on="0"/>
        <pt x="433" y="656" on="0"/>
      </contour>
    </TTGlyph>
    <TTGlyph name="Racute" xMin="-20" yMin="0" xMax="593" yMax="894">
      <component glyphName="R" x="0" y="0" flags="0x204"/>
      <component glyphName="uniF6C9" x="-19" y="0" flags="0x4"/>
    </TTGlyph>
    <TTGlyph name="Rcaron" xMin="-20" yMin="0" xMax="593" yMax="888">
      <component glyphName="R" x="0" y="0" flags="0x204"/>
      <component glyphName="uniF6CA" x="-47" y="0" flags="0x4"/>
    </TTGlyph>
    <TTGlyph name="Rcommaaccent" xMin="-20" yMin="-272" xMax="593" yMax="708">
      <component glyphName="R" x="0" y="0" flags="0x204"/>
      <component glyphName="uniF409" x="164" y="0" flags="0x4"/>
    </TTGlyph>
    <TTGlyph name="S" xMin="22" yMin="-12" xMax="563" yMax="712">
      <contour>
        <pt x="121" y="69" on="1"/>
        <pt x="132" y="60" on="0"/>
        <pt x="184" y="39" on="0"/>
        <pt x="213" y="40" on="1"/>
        <pt x="246" y="39" on="0"/>
        <pt x="308" y="51" on="0"/>
        <pt x="358" y="81" on="0"/>
        <pt x="388" y="130" on="0"/>
        <pt x="388" y="167" on="1"/>
        <pt x="388" y="208" on="0"/>
        <pt x="349" y="264" on="0"/>
        <pt x="291" y="307" on="0"/>
        <pt x="224" y="346" on="0"/>
        <pt x="166" y="394" on="0"/>
        <pt x="127" y="459" on="0"/>
        <pt x="127" y="507" on="1"/>
        <pt x="127" y="553" on="0"/>
        <pt x="160" y="628" on="0"/>
        <pt x="225" y="682" on="0"/>
        <pt x="319" y="712" on="0"/>
        <pt x="379" y="712" on="1"/>
        <pt x="440" y="712" on="0"/>
        <pt x="536" y="693" on="0"/>
        <pt x="563" y="679" on="1"/>
        <pt x="559" y="662" on="0"/>
        <pt x="544" y="617" on="0"/>
        <pt x="528" y="569" on="0"/>
        <pt x="510" y="524" on="0"/>
        <pt x="503" y="507" on="1"/>
        <pt x="477" y="507" on="1"/>
        <pt x="465" y="644" on="1"/>
        <pt x="448" y="652" on="0"/>
        <pt x="395" y="660" on="0"/>
        <pt x="364" y="660" on="1"/>
        <pt x="334" y="660" on="0"/>
        <pt x="281" y="646" on="0"/>
        <pt x="242" y="617" on="0"/>
        <pt x="220" y="573" on="0"/>
        <pt x="220" y="543" on="1"/>
        <pt x="220" y="503" on="0"/>
        <pt x="259" y="450" on="0"/>
        <pt x="317" y="408" on="0"/>
        <pt x="384" y="369" on="0"/>
        <pt x="442" y="319" on="0"/>
        <pt x="481" y="248" on="0"/>
        <pt x="481" y="196" on="1"/>
        <pt x="481" y="149" on="0"/>
        <pt x="444" y="73" on="0"/>
        <pt x="375" y="18" on="0"/>
        <pt x="274" y="-12" on="0"/>
        <pt x="210" y="-12" on="1"/>
        <pt x="178" y="-12" on="0"/>
        <pt x="119" y="-4" on="0"/>
        <pt x="70" y="10" on="0"/>
        <pt x="32" y="27" on="0"/>
        <pt x="22" y="35" on="1"/>
        <pt x="26" y="53" on="0"/>
        <pt x="41" y="102" on="0"/>
        <pt x="59" y="152" on="0"/>
        <pt x="77" y="199" on="0"/>
        <pt x="85" y="216" on="1"/>
        <pt x="111" y="216" on="1"/>
      </contour>
    </TTGlyph>
    <TTGlyph name="Sacute" xMin="22" yMin="-12" xMax="563" yMax="894">
      <component glyphName="S" x="0" y="0" flags="0x204"/>
      <component glyphName="uniF6C9" x="-45" y="0" flags="0x4"/>
    </TTGlyph>
    <TTGlyph name="Scaron" xMin="22" yMin="-12" xMax="566" yMax="888">
      <component glyphName="S" x="0" y="0" flags="0x204"/>
      <component glyphName="uniF6CA" x="-38" y="0" flags="0x4"/>
    </TTGlyph>
    <TTGlyph name="Scedilla" xMin="22" yMin="-272" xMax="563" yMax="712">
      <contour>
        <pt x="121" y="69" on="1"/>
        <pt x="132" y="60" on="0"/>
        <pt x="184" y="39" on="0"/>
        <pt x="213" y="39" on="1"/>
        <pt x="246" y="39" on="0"/>
        <pt x="308" y="51" on="0"/>
        <pt x="358" y="81" on="0"/>
        <pt x="388" y="130" on="0"/>
        <pt x="388" y="167" on="1"/>
        <pt x="388" y="208" on="0"/>
        <pt x="349" y="264" on="0"/>
        <pt x="291" y="307" on="0"/>
        <pt x="224" y="346" on="0"/>
        <pt x="166" y="394" on="0"/>
        <pt x="127" y="459" on="0"/>
        <pt x="127" y="507" on="1"/>
        <pt x="127" y="553" on="0"/>
        <pt x="160" y="628" on="0"/>
        <pt x="225" y="682" on="0"/>
        <pt x="319" y="712" on="0"/>
        <pt x="379" y="712" on="1"/>
        <pt x="440" y="712" on="0"/>
        <pt x="536" y="693" on="0"/>
        <pt x="563" y="679" on="1"/>
        <pt x="559" y="662" on="0"/>
        <pt x="544" y="617" on="0"/>
        <pt x="528" y="569" on="0"/>
        <pt x="510" y="524" on="0"/>
        <pt x="503" y="507" on="1"/>
        <pt x="477" y="507" on="1"/>
        <pt x="465" y="644" on="1"/>
        <pt x="448" y="652" on="0"/>
        <pt x="395" y="660" on="0"/>
        <pt x="364" y="660" on="1"/>
        <pt x="334" y="660" on="0"/>
        <pt x="281" y="646" on="0"/>
        <pt x="242" y="617" on="0"/>
        <pt x="220" y="573" on="0"/>
        <pt x="220" y="543" on="1"/>
        <pt x="220" y="503" on="0"/>
        <pt x="259" y="450" on="0"/>
        <pt x="317" y="408" on="0"/>
        <pt x="384" y="369" on="0"/>
        <pt x="442" y="319" on="0"/>
        <pt x="481" y="248" on="0"/>
        <pt x="481" y="196" on="1"/>
        <pt x="481" y="151" on="0"/>
        <pt x="448" y="77" on="0"/>
        <pt x="384" y="23" on="0"/>
        <pt x="292" y="-8" on="0"/>
        <pt x="233" y="-11" on="1"/>
        <pt x="196" y="-75" on="1"/>
        <pt x="251" y="-76" on="0"/>
        <pt x="288" y="-117" on="0"/>
        <pt x="288" y="-148" on="1"/>
        <pt x="288" y="-180" on="0"/>
        <pt x="247" y="-227" on="0"/>
        <pt x="186" y="-257" on="0"/>
        <pt x="116" y="-272" on="0"/>
        <pt x="87" y="-272" on="1"/>
        <pt x="87" y="-239" on="1"/>
        <pt x="107" y="-236" on="0"/>
        <pt x="147" y="-225" on="0"/>
        <pt x="180" y="-207" on="0"/>
        <pt x="200" y="-181" on="0"/>
        <pt x="200" y="-163" on="1"/>
        <pt x="200" y="-153" on="0"/>
        <pt x="194" y="-136" on="0"/>
        <pt x="179" y="-125" on="0"/>
        <pt x="152" y="-118" on="0"/>
        <pt x="130" y="-116" on="1"/>
        <pt x="183" y="-11" on="1"/>
        <pt x="128" y="-8" on="0"/>
        <pt x="40" y="20" on="0"/>
        <pt x="22" y="35" on="1"/>
        <pt x="26" y="53" on="0"/>
        <pt x="41" y="102" on="0"/>
        <pt x="59" y="152" on="0"/>
        <pt x="77" y="199" on="0"/>
        <pt x="85" y="216" on="1"/>
        <pt x="111" y="216" on="1"/>
      </contour>
    </TTGlyph>
    <TTGlyph name="Scircumflex" xMin="22" yMin="-12" xMax="563" yMax="887">
      <component glyphName="S" x="0" y="0" flags="0x204"/>
      <component glyphName="uniF408" x="-29" y="0" flags="0x4"/>
    </TTGlyph>
    <TTGlyph name="Scommaaccent" xMin="22" yMin="-272" xMax="563" yMax="712">
      <component glyphName="S" x="0" y="0" flags="0x204"/>
      <component glyphName="uniF409" x="105" y="0" flags="0x4"/>
    </TTGlyph>
    <TTGlyph name="T" xMin="88" yMin="0" xMax="698" yMax="700">
      <contour>
        <pt x="401" y="0" on="1"/>
        <pt x="120" y="0" on="1"/>
        <pt x="125" y="29" on="1"/>
        <pt x="149" y="38" on="0"/>
        <pt x="196" y="49" on="0"/>
        <pt x="224" y="53" on="1"/>
        <pt x="350" y="648" on="1"/>
        <pt x="197" y="648" on="1"/>
        <pt x="114" y="505" on="1"/>
        <pt x="88" y="505" on="1"/>
        <pt x="89" y="525" on="0"/>
        <pt x="96" y="576" on="0"/>
        <pt x="104" y="629" on="0"/>
        <pt x="113" y="680" on="0"/>
        <pt x="118" y="700" on="1"/>
        <pt x="698" y="700" on="1"/>
        <pt x="694" y="680" on="0"/>
        <pt x="682" y="630" on="0"/>
        <pt x="668" y="577" on="0"/>
        <pt x="653" y="526" on="0"/>
        <pt x="646" y="505" on="1"/>
        <pt x="620" y="505" on="1"/>
        <pt x="599" y="648" on="1"/>
        <pt x="446" y="648" on="1"/>
        <pt x="320" y="53" on="1"/>
        <pt x="344" y="48" on="0"/>
        <pt x="387" y="38" on="0"/>
        <pt x="406" y="29" on="1"/>
      </contour>
    </TTGlyph>
    <TTGlyph name="Tcaron" xMin="88" yMin="0" xMax="698" yMax="888">
      <component glyphName="T" x="0" y="0" flags="0x204"/>
      <component glyphName="uniF6CA" x="-6" y="0" flags="0x4"/>
    </TTGlyph>
    <TTGlyph name="Tcedilla" xMin="88" yMin="-272" xMax="698" yMax="700">
      <contour>
        <pt x="401" y="0" on="1"/>
        <pt x="283" y="0" on="1"/>
        <pt x="239" y="-75" on="1"/>
        <pt x="294" y="-76" on="0"/>
        <pt x="331" y="-117" on="0"/>
        <pt x="331" y="-148" on="1"/>
        <pt x="331" y="-180" on="0"/>
        <pt x="290" y="-227" on="0"/>
        <pt x="230" y="-257" on="0"/>
        <pt x="160" y="-272" on="0"/>
        <pt x="131" y="-272" on="1"/>
        <pt x="131" y="-239" on="1"/>
        <pt x="150" y="-236" on="0"/>
        <pt x="191" y="-225" on="0"/>
        <pt x="223" y="-207" on="0"/>
        <pt x="243" y="-181" on="0"/>
        <pt x="243" y="-163" on="1"/>
        <pt x="243" y="-153" on="0"/>
        <pt x="237" y="-136" on="0"/>
        <pt x="222" y="-125" on="0"/>
        <pt x="196" y="-118" on="0"/>
        <pt x="174" y="-116" on="1"/>
        <pt x="233" y="0" on="1"/>
        <pt x="120" y="0" on="1"/>
        <pt x="125" y="29" on="1"/>
        <pt x="149" y="38" on="0"/>
        <pt x="196" y="49" on="0"/>
        <pt x="224" y="53" on="1"/>
        <pt x="350" y="648" on="1"/>
        <pt x="197" y="648" on="1"/>
        <pt x="114" y="505" on="1"/>
        <pt x="88" y="505" on="1"/>
        <pt x="89" y="525" on="0"/>
        <pt x="96" y="576" on="0"/>
        <pt x="104" y="629" on="0"/>
        <pt x="113" y="680" on="0"/>
        <pt x="118" y="700" on="1"/>
        <pt x="698" y="700" on="1"/>
        <pt x="694" y="680" on="0"/>
        <pt x="682" y="630" on="0"/>
        <pt x="668" y="577" on="0"/>
        <pt x="653" y="526" on="0"/>
        <pt x="646" y="505" on="1"/>
        <pt x="620" y="505" on="1"/>
        <pt x="599" y="648" on="1"/>
        <pt x="446" y="648" on="1"/>
        <pt x="320" y="53" on="1"/>
        <pt x="344" y="48" on="0"/>
        <pt x="387" y="38" on="0"/>
        <pt x="406" y="29" on="1"/>
      </contour>
    </TTGlyph>
    <TTGlyph name="Tcommaaccent" xMin="88" yMin="-272" xMax="698" yMax="700">
      <component glyphName="T" x="0" y="0" flags="0x204"/>
      <component glyphName="uniF409" x="148" y="0" flags="0x4"/>
    </TTGlyph>
    <TTGlyph name="Thorn" xMin="-20" yMin="0" xMax="594" yMax="700">
      <contour>
        <pt x="169" y="53" on="1"/>
        <pt x="195" y="49" on="0"/>
        <pt x="240" y="37" on="0"/>
        <pt x="259" y="28" on="1"/>
        <pt x="254" y="0" on="1"/>
        <pt x="-20" y="0" on="1"/>
        <pt x="-15" y="28" on="1"/>
        <pt x="8" y="39" on="0"/>
        <pt x="51" y="49" on="0"/>
        <pt x="73" y="53" on="1"/>
        <pt x="198" y="647" on="1"/>
        <pt x="178" y="651" on="0"/>
        <pt x="140" y="663" on="0"/>
        <pt x="121" y="672" on="1"/>
        <pt x="128" y="700" on="1"/>
        <pt x="386" y="700" on="1"/>
        <pt x="380" y="672" on="1"/>
        <pt x="360" y="663" on="0"/>
        <pt x="314" y="651" on="0"/>
        <pt x="294" y="647" on="1"/>
        <pt x="284" y="598" on="1"/>
        <pt x="307" y="600" on="0"/>
        <pt x="353" y="602" on="0"/>
        <pt x="374" y="602" on="1"/>
        <pt x="479" y="602" on="0"/>
        <pt x="594" y="520" on="0"/>
        <pt x="594" y="434" on="1"/>
        <pt x="594" y="389" on="0"/>
        <pt x="556" y="297" on="0"/>
        <pt x="478" y="222" on="0"/>
        <pt x="356" y="175" on="0"/>
        <pt x="272" y="175" on="1"/>
        <pt x="267" y="175" on="0"/>
        <pt x="246" y="175" on="0"/>
        <pt x="222" y="176" on="0"/>
        <pt x="200" y="178" on="0"/>
        <pt x="195" y="179" on="1"/>
      </contour>
      <contour>
        <pt x="343" y="550" on="1"/>
        <pt x="318" y="550" on="0"/>
        <pt x="287" y="548" on="0"/>
        <pt x="273" y="544" on="1"/>
        <pt x="206" y="232" on="1"/>
        <pt x="211" y="230" on="0"/>
        <pt x="230" y="229" on="0"/>
        <pt x="251" y="227" on="0"/>
        <pt x="270" y="227" on="0"/>
        <pt x="276" y="227" on="1"/>
        <pt x="325" y="227" on="0"/>
        <pt x="404" y="255" on="0"/>
        <pt x="458" y="307" on="0"/>
        <pt x="487" y="380" on="0"/>
        <pt x="487" y="424" on="1"/>
        <pt x="487" y="490" on="0"/>
        <pt x="422" y="550" on="0"/>
      </contour>
    </TTGlyph>
    <TTGlyph name="U" xMin="85" yMin="-9" xMax="765" yMax="700">
      <contour>
        <pt x="112" y="700" on="1"/>
        <pt x="366" y="700" on="1"/>
        <pt x="360" y="671" on="1"/>
        <pt x="321" y="654" on="0"/>
        <pt x="279" y="646" on="1"/>
        <pt x="194" y="249" on="1"/>
        <pt x="183" y="196" on="0"/>
        <pt x="193" y="121" on="0"/>
        <pt x="231" y="73" on="0"/>
        <pt x="293" y="51" on="0"/>
        <pt x="334" y="51" on="1"/>
        <pt x="415" y="51" on="0"/>
        <pt x="512" y="141" on="0"/>
        <pt x="532" y="238" on="1"/>
        <pt x="617" y="637" on="1"/>
        <pt x="573" y="652" on="0"/>
        <pt x="545" y="671" on="1"/>
        <pt x="551" y="700" on="1"/>
        <pt x="765" y="700" on="1"/>
        <pt x="758" y="671" on="1"/>
        <pt x="741" y="660" on="0"/>
        <pt x="695" y="642" on="0"/>
        <pt x="673" y="637" on="1"/>
        <pt x="588" y="236" on="1"/>
        <pt x="560" y="105" on="0"/>
        <pt x="419" y="-9" on="0"/>
        <pt x="308" y="-9" on="1"/>
        <pt x="242" y="-9" on="0"/>
        <pt x="151" y="29" on="0"/>
        <pt x="99" y="96" on="0"/>
        <pt x="85" y="189" on="0"/>
        <pt x="97" y="243" on="1"/>
        <pt x="183" y="646" on="1"/>
        <pt x="163" y="650" on="0"/>
        <pt x="121" y="663" on="0"/>
        <pt x="106" y="671" on="1"/>
      </contour>
    </TTGlyph>
    <TTGlyph name="Uacute" xMin="85" yMin="-9" xMax="765" yMax="894">
      <component glyphName="U" x="0" y="0" flags="0x204"/>
      <component glyphName="uniF6C9" x="77" y="0" flags="0x4"/>
    </TTGlyph>
    <TTGlyph name="Ubreve" xMin="85" yMin="-9" xMax="765" yMax="890">
      <component glyphName="U" x="0" y="0" flags="0x204"/>
      <component glyphName="uniF406" x="25" y="0" flags="0x4"/>
    </TTGlyph>
    <TTGlyph name="Ucircumflex" xMin="85" yMin="-9" xMax="765" yMax="887">
      <component glyphName="U" x="0" y="0" flags="0x204"/>
      <component glyphName="uniF408" x="31" y="0" flags="0x4"/>
    </TTGlyph>
    <TTGlyph name="Udieresis" xMin="85" yMin="-9" xMax="765" yMax="837">
      <component glyphName="U" x="0" y="0" flags="0x204"/>
      <component glyphName="uniF6CB" x="83" y="0" flags="0x4"/>
    </TTGlyph>
    <TTGlyph name="Ugrave" xMin="85" yMin="-9" xMax="765" yMax="894">
      <component glyphName="U" x="0" y="0" flags="0x204"/>
      <component glyphName="uniF6CE" x="77" y="0" flags="0x4"/>
    </TTGlyph>
    <TTGlyph name="Uhungarumlaut" xMin="85" yMin="-9" xMax="765" yMax="889">
      <component glyphName="U" x="0" y="0" flags="0x204"/>
      <component glyphName="uniF6CF" x="38" y="0" flags="0x4"/>
    </TTGlyph>
    <TTGlyph name="Umacron" xMin="85" yMin="-9" xMax="765" yMax="840">
      <component glyphName="U" x="0" y="0" flags="0x204"/>
      <component glyphName="uniF6D0" x="35" y="0" flags="0x4"/>
    </TTGlyph>
    <TTGlyph name="Uogonek" xMin="85" yMin="-251" xMax="765" yMax="700">
      <contour>
        <pt x="112" y="700" on="1"/>
        <pt x="366" y="700" on="1"/>
        <pt x="360" y="671" on="1"/>
        <pt x="321" y="654" on="0"/>
        <pt x="279" y="646" on="1"/>
        <pt x="194" y="249" on="1"/>
        <pt x="183" y="196" on="0"/>
        <pt x="193" y="121" on="0"/>
        <pt x="231" y="73" on="0"/>
        <pt x="293" y="51" on="0"/>
        <pt x="334" y="51" on="1"/>
        <pt x="415" y="51" on="0"/>
        <pt x="512" y="141" on="0"/>
        <pt x="532" y="238" on="1"/>
        <pt x="617" y="637" on="1"/>
        <pt x="573" y="652" on="0"/>
        <pt x="545" y="671" on="1"/>
        <pt x="551" y="700" on="1"/>
        <pt x="765" y="700" on="1"/>
        <pt x="758" y="671" on="1"/>
        <pt x="741" y="660" on="0"/>
        <pt x="695" y="642" on="0"/>
        <pt x="673" y="637" on="1"/>
        <pt x="588" y="236" on="1"/>
        <pt x="567" y="137" on="0"/>
        <pt x="476" y="25" on="0"/>
        <pt x="407" y="4" on="1"/>
        <pt x="383" y="-7" on="0"/>
        <pt x="340" y="-37" on="0"/>
        <pt x="307" y="-72" on="0"/>
        <pt x="287" y="-113" on="0"/>
        <pt x="287" y="-135" on="1"/>
        <pt x="287" y="-163" on="0"/>
        <pt x="323" y="-199" on="0"/>
        <pt x="355" y="-199" on="1"/>
        <pt x="386" y="-199" on="0"/>
        <pt x="410" y="-193" on="1"/>
        <pt x="410" y="-222" on="1"/>
        <pt x="396" y="-233" on="0"/>
        <pt x="352" y="-251" on="0"/>
        <pt x="319" y="-251" on="1"/>
        <pt x="296" y="-251" on="0"/>
        <pt x="255" y="-237" on="0"/>
        <pt x="223" y="-211" on="0"/>
        <pt x="205" y="-174" on="0"/>
        <pt x="205" y="-152" on="1"/>
        <pt x="205" y="-105" on="0"/>
        <pt x="271" y="-35" on="0"/>
        <pt x="324" y="-8" on="1"/>
        <pt x="320" y="-8" on="0"/>
        <pt x="313" y="-9" on="0"/>
        <pt x="308" y="-9" on="1"/>
        <pt x="242" y="-9" on="0"/>
        <pt x="151" y="29" on="0"/>
        <pt x="99" y="96" on="0"/>
        <pt x="85" y="189" on="0"/>
        <pt x="97" y="243" on="1"/>
        <pt x="183" y="646" on="1"/>
        <pt x="163" y="650" on="0"/>
        <pt x="121" y="663" on="0"/>
        <pt x="106" y="671" on="1"/>
      </contour>
    </TTGlyph>
    <TTGlyph name="Uring" xMin="85" yMin="-9" xMax="765" yMax="874">
      <component glyphName="U" x="0" y="0" flags="0x204"/>
      <component glyphName="uniF40C" x="54" y="0" flags="0x4"/>
    </TTGlyph>
    <TTGlyph name="V" xMin="95" yMin="-12" xMax="782" yMax="700">
      <contour>
        <pt x="634" y="646" on="1"/>
        <pt x="611" y="651" on="0"/>
        <pt x="571" y="663" on="0"/>
        <pt x="553" y="671" on="1"/>
        <pt x="560" y="700" on="1"/>
        <pt x="782" y="700" on="1"/>
        <pt x="776" y="671" on="1"/>
        <pt x="759" y="663" on="0"/>
        <pt x="722" y="651" on="0"/>
        <pt x="699" y="646" on="1"/>
        <pt x="337" y="0" on="1"/>
        <pt x="282" y="-12" on="1"/>
        <pt x="166" y="646" on="1"/>
        <pt x="143" y="651" on="0"/>
        <pt x="108" y="664" on="0"/>
        <pt x="95" y="671" on="1"/>
        <pt x="101" y="700" on="1"/>
        <pt x="364" y="700" on="1"/>
        <pt x="358" y="671" on="1"/>
        <pt x="340" y="663" on="0"/>
        <pt x="294" y="651" on="0"/>
        <pt x="271" y="646" on="1"/>
        <pt x="344" y="189" on="1"/>
        <pt x="349" y="109" on="1"/>
        <pt x="351" y="109" on="1"/>
        <pt x="388" y="191" on="1"/>
      </contour>
    </TTGlyph>
    <TTGlyph name="W" xMin="95" yMin="-12" xMax="1033" yMax="700">
      <contour>
        <pt x="887" y="646" on="1"/>
        <pt x="867" y="650" on="0"/>
        <pt x="824" y="662" on="0"/>
        <pt x="807" y="671" on="1"/>
        <pt x="813" y="700" on="1"/>
        <pt x="1033" y="700" on="1"/>
        <pt x="1027" y="671" on="1"/>
        <pt x="1008" y="661" on="0"/>
        <pt x="969" y="651" on="0"/>
        <pt x="950" y="646" on="1"/>
        <pt x="646" y="0" on="1"/>
        <pt x="582" y="-12" on="1"/>
        <pt x="536" y="532" on="1"/>
        <pt x="265" y="0" on="1"/>
        <pt x="203" y="-12" on="1"/>
        <pt x="166" y="646" on="1"/>
        <pt x="127" y="655" on="0"/>
        <pt x="95" y="671" on="1"/>
        <pt x="101" y="700" on="1"/>
        <pt x="359" y="700" on="1"/>
        <pt x="353" y="671" on="1"/>
        <pt x="333" y="663" on="0"/>
        <pt x="290" y="651" on="0"/>
        <pt x="266" y="646" on="1"/>
        <pt x="279" y="241" on="1"/>
        <pt x="276" y="111" on="1"/>
        <pt x="278" y="111" on="1"/>
        <pt x="339" y="243" on="1"/>
        <pt x="572" y="700" on="1"/>
        <pt x="607" y="700" on="1"/>
        <pt x="649" y="243" on="1"/>
        <pt x="654" y="113" on="1"/>
        <pt x="656" y="113" on="1"/>
        <pt x="709" y="245" on="1"/>
      </contour>
    </TTGlyph>
    <TTGlyph name="X" xMin="-40" yMin="0" xMax="729" yMax="700">
      <contour>
        <pt x="499" y="700" on="1"/>
        <pt x="729" y="700" on="1"/>
        <pt x="722" y="671" on="1"/>
        <pt x="704" y="663" on="0"/>
        <pt x="663" y="651" on="0"/>
        <pt x="642" y="646" on="1"/>
        <pt x="404" y="375" on="1"/>
        <pt x="541" y="53" on="1"/>
        <pt x="587" y="45" on="0"/>
        <pt x="616" y="29" on="1"/>
        <pt x="611" y="0" on="1"/>
        <pt x="345" y="0" on="1"/>
        <pt x="350" y="29" on="1"/>
        <pt x="388" y="47" on="0"/>
        <pt x="431" y="53" on="1"/>
        <pt x="330" y="304" on="1"/>
        <pt x="120" y="52" on="1"/>
        <pt x="140" y="49" on="0"/>
        <pt x="179" y="40" on="0"/>
        <pt x="196" y="29" on="1"/>
        <pt x="190" y="0" on="1"/>
        <pt x="-40" y="0" on="1"/>
        <pt x="-34" y="29" on="1"/>
        <pt x="-14" y="39" on="0"/>
        <pt x="26" y="49" on="0"/>
        <pt x="46" y="53" on="1"/>
        <pt x="308" y="352" on="1"/>
        <pt x="184" y="646" on="1"/>
        <pt x="164" y="651" on="0"/>
        <pt x="128" y="662" on="0"/>
        <pt x="110" y="671" on="1"/>
        <pt x="116" y="700" on="1"/>
        <pt x="382" y="700" on="1"/>
        <pt x="376" y="671" on="1"/>
        <pt x="345" y="657" on="0"/>
        <pt x="294" y="646" on="1"/>
        <pt x="383" y="420" on="1"/>
        <pt x="570" y="646" on="1"/>
        <pt x="551" y="651" on="0"/>
        <pt x="513" y="661" on="0"/>
        <pt x="493" y="671" on="1"/>
      </contour>
    </TTGlyph>
    <TTGlyph name="Y" xMin="92" yMin="0" xMax="743" yMax="700">
      <contour>
        <pt x="520" y="700" on="1"/>
        <pt x="743" y="700" on="1"/>
        <pt x="736" y="671" on="1"/>
        <pt x="716" y="661" on="0"/>
        <pt x="676" y="650" on="0"/>
        <pt x="656" y="646" on="1"/>
        <pt x="393" y="298" on="1"/>
        <pt x="341" y="53" on="1"/>
        <pt x="378" y="48" on="0"/>
        <pt x="411" y="29" on="1"/>
        <pt x="406" y="0" on="1"/>
        <pt x="152" y="0" on="1"/>
        <pt x="157" y="29" on="1"/>
        <pt x="197" y="47" on="0"/>
        <pt x="245" y="53" on="1"/>
        <pt x="297" y="297" on="1"/>
        <pt x="168" y="646" on="1"/>
        <pt x="146" y="650" on="0"/>
        <pt x="109" y="663" on="0"/>
        <pt x="92" y="671" on="1"/>
        <pt x="99" y="700" on="1"/>
        <pt x="363" y="700" on="1"/>
        <pt x="357" y="671" on="1"/>
        <pt x="341" y="665" on="0"/>
        <pt x="301" y="651" on="0"/>
        <pt x="275" y="646" on="1"/>
        <pt x="376" y="352" on="1"/>
        <pt x="588" y="646" on="1"/>
        <pt x="567" y="651" on="0"/>
        <pt x="530" y="663" on="0"/>
        <pt x="514" y="671" on="1"/>
      </contour>
    </TTGlyph>
    <TTGlyph name="Yacute" xMin="92" yMin="0" xMax="743" yMax="894">
      <component glyphName="Y" x="0" y="0" flags="0x204"/>
      <component glyphName="uniF6C9" x="34" y="0" flags="0x4"/>
    </TTGlyph>
    <TTGlyph name="Ydieresis" xMin="92" yMin="0" xMax="743" yMax="837">
      <component glyphName="Y" x="0" y="0" flags="0x204"/>
      <component glyphName="uniF6CB" x="56" y="0" flags="0x4"/>
    </TTGlyph>
    <TTGlyph name="Z" xMin="5" yMin="0" xMax="650" yMax="700">
      <contour>
        <pt x="529" y="192" on="1"/>
        <pt x="555" y="192" on="1"/>
        <pt x="553" y="171" on="0"/>
        <pt x="547" y="121" on="0"/>
        <pt x="539" y="70" on="0"/>
        <pt x="530" y="20" on="0"/>
        <pt x="525" y="0" on="1"/>
        <pt x="5" y="0" on="1"/>
        <pt x="5" y="51" on="1"/>
        <pt x="531" y="648" on="1"/>
        <pt x="240" y="648" on="1"/>
        <pt x="149" y="508" on="1"/>
        <pt x="123" y="508" on="1"/>
        <pt x="124" y="529" on="0"/>
        <pt x="131" y="579" on="0"/>
        <pt x="139" y="631" on="0"/>
        <pt x="148" y="680" on="0"/>
        <pt x="153" y="700" on="1"/>
        <pt x="650" y="700" on="1"/>
        <pt x="650" y="648" on="1"/>
        <pt x="124" y="52" on="1"/>
        <pt x="438" y="52" on="1"/>
      </contour>
    </TTGlyph>
    <TTGlyph name="Zacute" xMin="5" yMin="0" xMax="650" yMax="894">
      <component glyphName="Z" x="0" y="0" flags="0x204"/>
      <component glyphName="uniF6C9" x="9" y="0" flags="0x4"/>
    </TTGlyph>
    <TTGlyph name="Zcaron" xMin="5" yMin="0" xMax="650" yMax="888">
      <component glyphName="Z" x="0" y="0" flags="0x204"/>
      <component glyphName="uniF6CA" x="-29" y="0" flags="0x4"/>
    </TTGlyph>
    <TTGlyph name="Zdotaccent" xMin="5" yMin="0" xMax="650" yMax="871">
      <component glyphName="Z" x="0" y="0" flags="0x204"/>
      <component glyphName="uniF40B" x="73" y="0" flags="0x4"/>
    </TTGlyph>
    <TTGlyph name="a" xMin="43" yMin="-12" xMax="497" yMax="512">
      <contour>
        <pt x="189" y="50" on="1"/>
        <pt x="216" y="50" on="0"/>
        <pt x="270" y="101" on="0"/>
        <pt x="318" y="173" on="0"/>
        <pt x="356" y="251" on="0"/>
        <pt x="367" y="277" on="1"/>
        <pt x="399" y="448" on="1"/>
        <pt x="385" y="458" on="0"/>
        <pt x="359" y="466" on="0"/>
        <pt x="336" y="466" on="1"/>
        <pt x="290" y="466" on="0"/>
        <pt x="215" y="409" on="0"/>
        <pt x="162" y="319" on="0"/>
        <pt x="133" y="209" on="0"/>
        <pt x="133" y="156" on="1"/>
        <pt x="133" y="105" on="0"/>
        <pt x="158" y="50" on="0"/>
      </contour>
      <contour>
        <pt x="347" y="196" on="1"/>
        <pt x="334" y="160" on="0"/>
        <pt x="295" y="86" on="0"/>
        <pt x="244" y="26" on="0"/>
        <pt x="182" y="-12" on="0"/>
        <pt x="147" y="-12" on="1"/>
        <pt x="43" y="-12" on="0"/>
        <pt x="43" y="139" on="1"/>
        <pt x="43" y="209" on="0"/>
        <pt x="83" y="342" on="0"/>
        <pt x="159" y="446" on="0"/>
        <pt x="268" y="509" on="0"/>
        <pt x="337" y="509" on="1"/>
        <pt x="362" y="509" on="0"/>
        <pt x="392" y="500" on="0"/>
        <pt x="413" y="491" on="1"/>
        <pt x="453" y="512" on="0"/>
        <pt x="497" y="512" on="1"/>
        <pt x="407" y="55" on="1"/>
        <pt x="480" y="55" on="1"/>
        <pt x="480" y="30" on="1"/>
        <pt x="460" y="14" on="0"/>
        <pt x="404" y="-6" on="0"/>
        <pt x="377" y="-6" on="1"/>
        <pt x="348" y="-6" on="0"/>
        <pt x="323" y="19" on="0"/>
        <pt x="323" y="33" on="1"/>
        <pt x="323" y="51" on="0"/>
        <pt x="337" y="133" on="0"/>
        <pt x="351" y="196" on="1"/>
      </contour>
    </TTGlyph>
    <TTGlyph name="aacute" xMin="43" yMin="-12" xMax="505" yMax="768">
      <component glyphName="a" x="0" y="0" flags="0x204"/>
      <component glyphName="acute" x="61" y="0" flags="0x4"/>
    </TTGlyph>
    <TTGlyph name="abreve" xMin="43" yMin="-12" xMax="507" yMax="734">
      <component glyphName="a" x="0" y="0" flags="0x204"/>
      <component glyphName="breve" x="-4" y="0" flags="0x4"/>
    </TTGlyph>
    <TTGlyph name="acircumflex" xMin="43" yMin="-12" xMax="497" yMax="796">
      <component glyphName="a" x="0" y="0" flags="0x204"/>
      <component glyphName="circumflex" x="24" y="0" flags="0x4"/>
    </TTGlyph>
    <TTGlyph name="acute" xMin="225" yMin="575" xMax="444" yMax="768">
      <contour>
        <pt x="352" y="767" on="1"/>
        <pt x="360" y="768" on="0"/>
        <pt x="386" y="765" on="0"/>
        <pt x="414" y="759" on="0"/>
        <pt x="438" y="750" on="0"/>
        <pt x="444" y="745" on="1"/>
        <pt x="444" y="726" on="1"/>
        <pt x="247" y="575" on="1"/>
        <pt x="225" y="593" on="1"/>
      </contour>
    </TTGlyph>
    <TTGlyph name="acutecomb" xMin="-232" yMin="575" xMax="-13" yMax="768">
      <component glyphName="acute" x="-457" y="0" flags="0x4"/>
    </TTGlyph>
    <TTGlyph name="adieresis" xMin="43" yMin="-12" xMax="505" yMax="715">
      <component glyphName="a" x="0" y="0" flags="0x204"/>
      <component glyphName="dieresis" x="15" y="0" flags="0x4"/>
    </TTGlyph>
    <TTGlyph name="ae" xMin="29" yMin="-12" xMax="719" yMax="512">
      <component glyphName="uni04D5" x="0" y="0" flags="0x204"/>
    </TTGlyph>
    <TTGlyph name="afii10017" xMin="-49" yMin="0" xMax="639" yMax="712">
      <component glyphName="A" x="0" y="0" flags="0x204"/>
    </TTGlyph>
    <TTGlyph name="afii10018" xMin="-20" yMin="-3" xMax="607" yMax="700">
      <contour>
        <pt x="198" y="646" on="1"/>
        <pt x="176" y="650" on="0"/>
        <pt x="138" y="663" on="0"/>
        <pt x="121" y="671" on="1"/>
        <pt x="128" y="700" on="1"/>
        <pt x="607" y="700" on="1"/>
        <pt x="600" y="660" on="0"/>
        <pt x="574" y="561" on="0"/>
        <pt x="557" y="519" on="1"/>
        <pt x="531" y="519" on="1"/>
        <pt x="508" y="648" on="1"/>
        <pt x="294" y="648" on="1"/>
        <pt x="244" y="407" on="1"/>
        <pt x="268" y="411" on="0"/>
        <pt x="315" y="414" on="0"/>
        <pt x="335" y="414" on="1"/>
        <pt x="434" y="414" on="0"/>
        <pt x="547" y="341" on="0"/>
        <pt x="547" y="263" on="1"/>
        <pt x="547" y="206" on="0"/>
        <pt x="504" y="109" on="0"/>
        <pt x="423" y="38" on="0"/>
        <pt x="306" y="-3" on="0"/>
        <pt x="233" y="-3" on="1"/>
        <pt x="228" y="-3" on="0"/>
        <pt x="199" y="-2" on="0"/>
        <pt x="161" y="-1" on="0"/>
        <pt x="121" y="0" on="0"/>
        <pt x="106" y="0" on="1"/>
        <pt x="-20" y="0" on="1"/>
        <pt x="-15" y="29" on="1"/>
        <pt x="28" y="47" on="0"/>
        <pt x="73" y="53" on="1"/>
      </contour>
      <contour>
        <pt x="311" y="362" on="1"/>
        <pt x="288" y="362" on="0"/>
        <pt x="251" y="359" on="0"/>
        <pt x="233" y="357" on="1"/>
        <pt x="169" y="54" on="1"/>
        <pt x="173" y="52" on="0"/>
        <pt x="192" y="51" on="0"/>
        <pt x="213" y="49" on="0"/>
        <pt x="233" y="49" on="0"/>
        <pt x="239" y="49" on="1"/>
        <pt x="286" y="49" on="0"/>
        <pt x="361" y="79" on="0"/>
        <pt x="413" y="134" on="0"/>
        <pt x="440" y="209" on="0"/>
        <pt x="440" y="253" on="1"/>
        <pt x="440" y="276" on="0"/>
        <pt x="430" y="316" on="0"/>
        <pt x="402" y="345" on="0"/>
        <pt x="351" y="362" on="0"/>
      </contour>
    </TTGlyph>
    <TTGlyph name="afii10019" xMin="-20" yMin="-6" xMax="599" yMax="706">
      <component glyphName="B" x="0" y="0" flags="0x204"/>
    </TTGlyph>
    <TTGlyph name="afii10020" xMin="-20" yMin="0" xMax="596" yMax="700">
      <contour>
        <pt x="169" y="53" on="1"/>
        <pt x="218" y="45" on="0"/>
        <pt x="259" y="29" on="1"/>
        <pt x="254" y="0" on="1"/>
        <pt x="-20" y="0" on="1"/>
        <pt x="-15" y="29" on="1"/>
        <pt x="30" y="46" on="0"/>
        <pt x="73" y="53" on="1"/>
        <pt x="198" y="646" on="1"/>
        <pt x="178" y="650" on="0"/>
        <pt x="140" y="663" on="0"/>
        <pt x="121" y="671" on="1"/>
        <pt x="128" y="700" on="1"/>
        <pt x="596" y="700" on="1"/>
        <pt x="592" y="680" on="0"/>
        <pt x="580" y="628" on="0"/>
        <pt x="565" y="572" on="0"/>
        <pt x="549" y="519" on="0"/>
        <pt x="542" y="498" on="1"/>
        <pt x="516" y="498" on="1"/>
        <pt x="496" y="648" on="1"/>
        <pt x="294" y="648" on="1"/>
      </contour>
    </TTGlyph>
    <TTGlyph name="afii10021" xMin="-56" yMin="-151" xMax="739" yMax="700">
      <contour>
        <pt x="634" y="52" on="1"/>
        <pt x="629" y="31" on="0"/>
        <pt x="615" y="-21" on="0"/>
        <pt x="599" y="-77" on="0"/>
        <pt x="580" y="-131" on="0"/>
        <pt x="571" y="-151" on="1"/>
        <pt x="545" y="-151" on="1"/>
        <pt x="539" y="0" on="1"/>
        <pt x="47" y="0" on="1"/>
        <pt x="-32" y="-151" on="1"/>
        <pt x="-56" y="-151" on="1"/>
        <pt x="-55" y="-132" on="0"/>
        <pt x="-51" y="-78" on="0"/>
        <pt x="-46" y="-22" on="0"/>
        <pt x="-39" y="31" on="0"/>
        <pt x="-35" y="52" on="1"/>
        <pt x="48" y="52" on="1"/>
        <pt x="83" y="93" on="0"/>
        <pt x="156" y="224" on="0"/>
        <pt x="223" y="382" on="0"/>
        <pt x="280" y="556" on="0"/>
        <pt x="298" y="641" on="1"/>
        <pt x="273" y="646" on="0"/>
        <pt x="222" y="661" on="0"/>
        <pt x="202" y="671" on="1"/>
        <pt x="209" y="700" on="1"/>
        <pt x="739" y="700" on="1"/>
        <pt x="732" y="671" on="1"/>
        <pt x="700" y="657" on="0"/>
        <pt x="645" y="646" on="1"/>
        <pt x="520" y="52" on="1"/>
      </contour>
      <contour>
        <pt x="424" y="52" on="1"/>
        <pt x="549" y="648" on="1"/>
        <pt x="359" y="648" on="1"/>
        <pt x="327" y="525" on="0"/>
        <pt x="261" y="332" on="0"/>
        <pt x="198" y="185" on="0"/>
        <pt x="139" y="83" on="0"/>
        <pt x="113" y="52" on="1"/>
      </contour>
    </TTGlyph>
    <TTGlyph name="afii10022" xMin="-20" yMin="0" xMax="601" yMax="700">
      <component glyphName="E" x="0" y="0" flags="0x204"/>
    </TTGlyph>
    <TTGlyph name="afii10023" xMin="-20" yMin="0" xMax="601" yMax="837">
      <component glyphName="E" x="0" y="0" flags="0x204"/>
      <component glyphName="uniF6CB" x="11" y="0" flags="0x4"/>
    </TTGlyph>
    <TTGlyph name="afii10024" xMin="-36" yMin="0" xMax="1004" yMax="700">
      <contour>
        <pt x="512" y="646" on="1"/>
        <pt x="492" y="652" on="0"/>
        <pt x="460" y="664" on="0"/>
        <pt x="446" y="671" on="1"/>
        <pt x="452" y="700" on="1"/>
        <pt x="683" y="700" on="1"/>
        <pt x="677" y="671" on="1"/>
        <pt x="664" y="665" on="0"/>
        <pt x="629" y="652" on="0"/>
        <pt x="607" y="646" on="1"/>
        <pt x="548" y="369" on="1"/>
        <pt x="615" y="383" on="1"/>
        <pt x="838" y="646" on="1"/>
        <pt x="820" y="651" on="0"/>
        <pt x="788" y="663" on="0"/>
        <pt x="771" y="671" on="1"/>
        <pt x="777" y="700" on="1"/>
        <pt x="1004" y="700" on="1"/>
        <pt x="998" y="671" on="1"/>
        <pt x="978" y="663" on="0"/>
        <pt x="937" y="651" on="0"/>
        <pt x="917" y="646" on="1"/>
        <pt x="674" y="375" on="1"/>
        <pt x="690" y="344" on="0"/>
        <pt x="730" y="264" on="0"/>
        <pt x="776" y="177" on="0"/>
        <pt x="828" y="89" on="0"/>
        <pt x="857" y="49" on="1"/>
        <pt x="899" y="25" on="1"/>
        <pt x="894" y="0" on="1"/>
        <pt x="775" y="0" on="1"/>
        <pt x="747" y="25" on="1"/>
        <pt x="724" y="59" on="0"/>
        <pt x="686" y="135" on="0"/>
        <pt x="651" y="214" on="0"/>
        <pt x="619" y="295" on="0"/>
        <pt x="601" y="335" on="1"/>
        <pt x="541" y="335" on="1"/>
        <pt x="481" y="53" on="1"/>
        <pt x="497" y="48" on="0"/>
        <pt x="527" y="37" on="0"/>
        <pt x="541" y="29" on="1"/>
        <pt x="536" y="0" on="1"/>
        <pt x="304" y="0" on="1"/>
        <pt x="309" y="29" on="1"/>
        <pt x="344" y="46" on="0"/>
        <pt x="387" y="53" on="1"/>
        <pt x="448" y="343" on="1"/>
        <pt x="379" y="329" on="1"/>
        <pt x="355" y="295" on="0"/>
        <pt x="300" y="218" on="0"/>
        <pt x="238" y="138" on="0"/>
        <pt x="171" y="59" on="0"/>
        <pt x="134" y="25" on="1"/>
        <pt x="95" y="0" on="1"/>
        <pt x="-36" y="0" on="1"/>
        <pt x="-31" y="25" on="1"/>
        <pt x="21" y="49" on="1"/>
        <pt x="66" y="89" on="0"/>
        <pt x="150" y="176" on="0"/>
        <pt x="227" y="263" on="0"/>
        <pt x="296" y="343" on="0"/>
        <pt x="325" y="376" on="1"/>
        <pt x="197" y="646" on="1"/>
        <pt x="157" y="657" on="0"/>
        <pt x="132" y="671" on="1"/>
        <pt x="138" y="700" on="1"/>
        <pt x="351" y="700" on="1"/>
        <pt x="345" y="671" on="1"/>
        <pt x="314" y="656" on="0"/>
        <pt x="272" y="646" on="1"/>
        <pt x="386" y="377" on="1"/>
        <pt x="455" y="377" on="1"/>
      </contour>
    </TTGlyph>
    <TTGlyph name="afii10025" xMin="10" yMin="-12" xMax="554" yMax="712">
      <contour>
        <pt x="197" y="-12" on="1"/>
        <pt x="140" y="-12" on="0"/>
        <pt x="40" y="11" on="0"/>
        <pt x="10" y="28" on="1"/>
        <pt x="13" y="44" on="0"/>
        <pt x="26" y="86" on="0"/>
        <pt x="43" y="131" on="0"/>
        <pt x="61" y="176" on="0"/>
        <pt x="70" y="194" on="1"/>
        <pt x="95" y="194" on="1"/>
        <pt x="108" y="56" on="1"/>
        <pt x="114" y="53" on="0"/>
        <pt x="137" y="47" on="0"/>
        <pt x="166" y="42" on="0"/>
        <pt x="196" y="40" on="0"/>
        <pt x="209" y="40" on="1"/>
        <pt x="252" y="40" on="0"/>
        <pt x="325" y="63" on="0"/>
        <pt x="379" y="112" on="0"/>
        <pt x="409" y="187" on="0"/>
        <pt x="410" y="238" on="1"/>
        <pt x="409" y="289" on="0"/>
        <pt x="338" y="335" on="0"/>
        <pt x="279" y="335" on="1"/>
        <pt x="200" y="324" on="1"/>
        <pt x="200" y="338" on="0"/>
        <pt x="204" y="368" on="0"/>
        <pt x="211" y="382" on="1"/>
        <pt x="243" y="382" on="1"/>
        <pt x="260" y="382" on="0"/>
        <pt x="310" y="385" on="0"/>
        <pt x="327" y="387" on="1"/>
        <pt x="355" y="397" on="0"/>
        <pt x="403" y="431" on="0"/>
        <pt x="437" y="476" on="0"/>
        <pt x="457" y="528" on="0"/>
        <pt x="458" y="557" on="1"/>
        <pt x="457" y="614" on="0"/>
        <pt x="403" y="660" on="0"/>
        <pt x="337" y="660" on="1"/>
        <pt x="307" y="660" on="0"/>
        <pt x="266" y="648" on="0"/>
        <pt x="254" y="641" on="1"/>
        <pt x="176" y="519" on="1"/>
        <pt x="150" y="519" on="1"/>
        <pt x="151" y="538" on="0"/>
        <pt x="153" y="574" on="0"/>
        <pt x="157" y="610" on="0"/>
        <pt x="165" y="648" on="0"/>
        <pt x="171" y="671" on="1"/>
        <pt x="211" y="694" on="0"/>
        <pt x="311" y="712" on="0"/>
        <pt x="354" y="712" on="1"/>
        <pt x="394" y="712" on="0"/>
        <pt x="467" y="696" on="0"/>
        <pt x="522" y="661" on="0"/>
        <pt x="554" y="608" on="0"/>
        <pt x="554" y="571" on="1"/>
        <pt x="554" y="545" on="0"/>
        <pt x="540" y="490" on="0"/>
        <pt x="503" y="438" on="0"/>
        <pt x="439" y="391" on="0"/>
        <pt x="389" y="374" on="1"/>
        <pt x="389" y="370" on="1"/>
        <pt x="409" y="367" on="0"/>
        <pt x="451" y="349" on="0"/>
        <pt x="485" y="316" on="0"/>
        <pt x="506" y="270" on="0"/>
        <pt x="506" y="240" on="1"/>
        <pt x="506" y="182" on="0"/>
        <pt x="463" y="89" on="0"/>
        <pt x="384" y="23" on="0"/>
        <pt x="269" y="-12" on="0"/>
      </contour>
    </TTGlyph>
    <TTGlyph name="afii10026" xMin="-20" yMin="0" xMax="808" yMax="700">
      <contour>
        <pt x="233" y="0" on="1"/>
        <pt x="-20" y="0" on="1"/>
        <pt x="-15" y="29" on="1"/>
        <pt x="29" y="47" on="0"/>
        <pt x="73" y="53" on="1"/>
        <pt x="198" y="646" on="1"/>
        <pt x="179" y="651" on="0"/>
        <pt x="139" y="662" on="0"/>
        <pt x="121" y="671" on="1"/>
        <pt x="128" y="700" on="1"/>
        <pt x="381" y="700" on="1"/>
        <pt x="375" y="671" on="1"/>
        <pt x="358" y="663" on="0"/>
        <pt x="317" y="651" on="0"/>
        <pt x="294" y="646" on="1"/>
        <pt x="202" y="212" on="1"/>
        <pt x="176" y="137" on="1"/>
        <pt x="237" y="218" on="1"/>
        <pt x="619" y="622" on="1"/>
        <pt x="624" y="646" on="1"/>
        <pt x="602" y="651" on="0"/>
        <pt x="564" y="663" on="0"/>
        <pt x="549" y="671" on="1"/>
        <pt x="555" y="700" on="1"/>
        <pt x="808" y="700" on="1"/>
        <pt x="802" y="671" on="1"/>
        <pt x="782" y="663" on="0"/>
        <pt x="738" y="651" on="0"/>
        <pt x="715" y="646" on="1"/>
        <pt x="589" y="53" on="1"/>
        <pt x="610" y="49" on="0"/>
        <pt x="649" y="37" on="0"/>
        <pt x="665" y="29" on="1"/>
        <pt x="660" y="0" on="1"/>
        <pt x="407" y="0" on="1"/>
        <pt x="412" y="29" on="1"/>
        <pt x="429" y="36" on="0"/>
        <pt x="471" y="49" on="0"/>
        <pt x="494" y="53" on="1"/>
        <pt x="586" y="486" on="1"/>
        <pt x="612" y="561" on="1"/>
        <pt x="556" y="485" on="1"/>
        <pt x="167" y="75" on="1"/>
        <pt x="163" y="53" on="1"/>
        <pt x="185" y="49" on="0"/>
        <pt x="223" y="37" on="0"/>
        <pt x="238" y="29" on="1"/>
      </contour>
    </TTGlyph>
    <TTGlyph name="afii10027" xMin="-20" yMin="0" xMax="808" yMax="871">
      <component glyphName="afii10026" x="0" y="0" flags="0x204"/>
      <component glyphName="uniF6D1" x="-5" y="0" flags="0x4"/>
    </TTGlyph>
    <TTGlyph name="afii10028" xMin="-20" yMin="0" xMax="703" yMax="700">
      <component glyphName="K" x="0" y="0" flags="0x204"/>
    </TTGlyph>
    <TTGlyph name="afii10029" xMin="-40" yMin="-12" xMax="724" yMax="700">
      <contour>
        <pt x="288" y="641" on="1"/>
        <pt x="229" y="652" on="0"/>
        <pt x="193" y="671" on="1"/>
        <pt x="199" y="700" on="1"/>
        <pt x="724" y="700" on="1"/>
        <pt x="718" y="671" on="1"/>
        <pt x="700" y="663" on="0"/>
        <pt x="656" y="650" on="0"/>
        <pt x="631" y="646" on="1"/>
        <pt x="506" y="53" on="1"/>
        <pt x="527" y="49" on="0"/>
        <pt x="566" y="37" on="0"/>
        <pt x="582" y="29" on="1"/>
        <pt x="576" y="0" on="1"/>
        <pt x="322" y="0" on="1"/>
        <pt x="328" y="29" on="1"/>
        <pt x="348" y="37" on="0"/>
        <pt x="389" y="48" on="0"/>
        <pt x="410" y="53" on="1"/>
        <pt x="535" y="648" on="1"/>
        <pt x="349" y="648" on="1"/>
        <pt x="324" y="543" on="0"/>
        <pt x="278" y="383" on="0"/>
        <pt x="236" y="261" on="0"/>
        <pt x="196" y="172" on="0"/>
        <pt x="157" y="106" on="0"/>
        <pt x="118" y="58" on="0"/>
        <pt x="98" y="38" on="1"/>
        <pt x="72" y="12" on="0"/>
        <pt x="8" y="-12" on="0"/>
        <pt x="-18" y="-12" on="1"/>
        <pt x="-24" y="-4" on="0"/>
        <pt x="-33" y="25" on="0"/>
        <pt x="-39" y="58" on="0"/>
        <pt x="-40" y="91" on="0"/>
        <pt x="-38" y="104" on="1"/>
        <pt x="-18" y="129" on="1"/>
        <pt x="93" y="108" on="1"/>
        <pt x="113" y="133" on="0"/>
        <pt x="160" y="215" on="0"/>
        <pt x="210" y="342" on="0"/>
        <pt x="262" y="520" on="0"/>
      </contour>
    </TTGlyph>
    <TTGlyph name="afii10030" xMin="-20" yMin="0" xMax="936" yMax="700">
      <component glyphName="M" x="0" y="0" flags="0x204"/>
    </TTGlyph>
    <TTGlyph name="afii10031" xMin="-20" yMin="0" xMax="798" yMax="700">
      <component glyphName="H" x="0" y="0" flags="0x204"/>
    </TTGlyph>
    <TTGlyph name="afii10032" xMin="66" yMin="-12" xMax="724" yMax="712">
      <component glyphName="O" x="0" y="0" flags="0x204"/>
    </TTGlyph>
    <TTGlyph name="afii10033" xMin="-20" yMin="0" xMax="788" yMax="700">
      <contour>
        <pt x="233" y="0" on="1"/>
        <pt x="-20" y="0" on="1"/>
        <pt x="-15" y="29" on="1"/>
        <pt x="2" y="37" on="0"/>
        <pt x="44" y="49" on="0"/>
        <pt x="73" y="53" on="1"/>
        <pt x="198" y="646" on="1"/>
        <pt x="178" y="650" on="0"/>
        <pt x="140" y="663" on="0"/>
        <pt x="121" y="671" on="1"/>
        <pt x="128" y="700" on="1"/>
        <pt x="788" y="700" on="1"/>
        <pt x="782" y="671" on="1"/>
        <pt x="762" y="661" on="0"/>
        <pt x="717" y="650" on="0"/>
        <pt x="695" y="646" on="1"/>
        <pt x="569" y="53" on="1"/>
        <pt x="608" y="48" on="0"/>
        <pt x="645" y="29" on="1"/>
        <pt x="640" y="0" on="1"/>
        <pt x="387" y="0" on="1"/>
        <pt x="392" y="29" on="1"/>
        <pt x="404" y="36" on="0"/>
        <pt x="444" y="48" on="0"/>
        <pt x="473" y="53" on="1"/>
        <pt x="599" y="648" on="1"/>
        <pt x="294" y="648" on="1"/>
        <pt x="169" y="53" on="1"/>
        <pt x="207" y="45" on="0"/>
        <pt x="238" y="29" on="1"/>
      </contour>
    </TTGlyph>
    <TTGlyph name="afii10034" xMin="-20" yMin="0" xMax="614" yMax="708">
      <component glyphName="P" x="0" y="0" flags="0x4"/>
    </TTGlyph>
    <TTGlyph name="afii10035" xMin="66" yMin="-12" xMax="669" yMax="712">
      <component glyphName="C" x="0" y="0" flags="0x204"/>
    </TTGlyph>
    <TTGlyph name="afii10036" xMin="88" yMin="0" xMax="698" yMax="700">
      <component glyphName="T" x="0" y="0" flags="0x204"/>
    </TTGlyph>
    <TTGlyph name="afii10037" xMin="93" yMin="-16" xMax="758" yMax="700">
      <contour>
        <pt x="609" y="646" on="1"/>
        <pt x="563" y="655" on="0"/>
        <pt x="529" y="671" on="1"/>
        <pt x="535" y="700" on="1"/>
        <pt x="758" y="700" on="1"/>
        <pt x="752" y="671" on="1"/>
        <pt x="738" y="664" on="0"/>
        <pt x="700" y="651" on="0"/>
        <pt x="675" y="646" on="1"/>
        <pt x="379" y="172" on="1"/>
        <pt x="317" y="77" on="0"/>
        <pt x="212" y="-16" on="0"/>
        <pt x="155" y="-5" on="1"/>
        <pt x="150" y="4" on="0"/>
        <pt x="143" y="32" on="0"/>
        <pt x="137" y="62" on="0"/>
        <pt x="135" y="92" on="0"/>
        <pt x="137" y="104" on="1"/>
        <pt x="166" y="128" on="1"/>
        <pt x="271" y="101" on="1"/>
        <pt x="276" y="105" on="0"/>
        <pt x="290" y="121" on="0"/>
        <pt x="304" y="141" on="0"/>
        <pt x="317" y="161" on="0"/>
        <pt x="321" y="169" on="1"/>
        <pt x="163" y="646" on="1"/>
        <pt x="146" y="651" on="0"/>
        <pt x="110" y="662" on="0"/>
        <pt x="93" y="671" on="1"/>
        <pt x="99" y="700" on="1"/>
        <pt x="362" y="700" on="1"/>
        <pt x="356" y="671" on="1"/>
        <pt x="339" y="663" on="0"/>
        <pt x="294" y="651" on="0"/>
        <pt x="269" y="646" on="1"/>
        <pt x="375" y="315" on="1"/>
        <pt x="383" y="251" on="1"/>
        <pt x="385" y="251" on="1"/>
        <pt x="419" y="317" on="1"/>
      </contour>
    </TTGlyph>
    <TTGlyph name="afii10038" xMin="60" yMin="0" xMax="784" yMax="700">
      <contour>
        <pt x="380" y="700" on="1"/>
        <pt x="605" y="700" on="1"/>
        <pt x="599" y="671" on="1"/>
        <pt x="587" y="664" on="0"/>
        <pt x="553" y="652" on="0"/>
        <pt x="528" y="647" on="1"/>
        <pt x="517" y="596" on="1"/>
        <pt x="538" y="601" on="0"/>
        <pt x="583" y="603" on="0"/>
        <pt x="599" y="603" on="1"/>
        <pt x="647" y="603" on="0"/>
        <pt x="717" y="575" on="0"/>
        <pt x="762" y="526" on="0"/>
        <pt x="784" y="459" on="0"/>
        <pt x="784" y="421" on="1"/>
        <pt x="784" y="356" on="0"/>
        <pt x="742" y="242" on="0"/>
        <pt x="664" y="157" on="0"/>
        <pt x="554" y="108" on="0"/>
        <pt x="487" y="108" on="1"/>
        <pt x="476" y="108" on="0"/>
        <pt x="432" y="111" on="0"/>
        <pt x="415" y="114" on="1"/>
        <pt x="403" y="53" on="1"/>
        <pt x="441" y="43" on="0"/>
        <pt x="463" y="29" on="1"/>
        <pt x="457" y="0" on="1"/>
        <pt x="232" y="0" on="1"/>
        <pt x="237" y="29" on="1"/>
        <pt x="271" y="44" on="0"/>
        <pt x="313" y="52" on="1"/>
        <pt x="326" y="112" on="1"/>
        <pt x="306" y="110" on="0"/>
        <pt x="274" y="108" on="0"/>
        <pt x="259" y="108" on="1"/>
        <pt x="222" y="108" on="0"/>
        <pt x="150" y="130" on="0"/>
        <pt x="94" y="175" on="0"/>
        <pt x="60" y="245" on="0"/>
        <pt x="60" y="292" on="1"/>
        <pt x="60" y="355" on="0"/>
        <pt x="103" y="468" on="0"/>
        <pt x="181" y="553" on="0"/>
        <pt x="292" y="603" on="0"/>
        <pt x="360" y="603" on="1"/>
        <pt x="373" y="603" on="0"/>
        <pt x="416" y="601" on="0"/>
        <pt x="430" y="599" on="1"/>
        <pt x="440" y="647" on="1"/>
        <pt x="418" y="652" on="0"/>
        <pt x="385" y="663" on="0"/>
        <pt x="374" y="671" on="1"/>
      </contour>
      <contour>
        <pt x="563" y="556" on="1"/>
        <pt x="548" y="556" on="0"/>
        <pt x="521" y="554" on="0"/>
        <pt x="507" y="550" on="1"/>
        <pt x="424" y="158" on="1"/>
        <pt x="433" y="156" on="0"/>
        <pt x="470" y="155" on="0"/>
        <pt x="478" y="155" on="1"/>
        <pt x="529" y="155" on="0"/>
        <pt x="608" y="196" on="0"/>
        <pt x="661" y="267" on="0"/>
        <pt x="689" y="362" on="0"/>
        <pt x="688" y="417" on="1"/>
        <pt x="689" y="488" on="0"/>
        <pt x="621" y="555" on="0"/>
      </contour>
      <contour>
        <pt x="290" y="155" on="1"/>
        <pt x="302" y="155" on="0"/>
        <pt x="329" y="158" on="0"/>
        <pt x="337" y="160" on="1"/>
        <pt x="421" y="553" on="1"/>
        <pt x="410" y="555" on="0"/>
        <pt x="377" y="556" on="0"/>
        <pt x="365" y="556" on="1"/>
        <pt x="317" y="556" on="0"/>
        <pt x="239" y="518" on="0"/>
        <pt x="184" y="449" on="0"/>
        <pt x="155" y="355" on="0"/>
        <pt x="156" y="298" on="1"/>
        <pt x="155" y="264" on="0"/>
        <pt x="178" y="211" on="0"/>
        <pt x="215" y="174" on="0"/>
        <pt x="264" y="155" on="0"/>
      </contour>
    </TTGlyph>
    <TTGlyph name="afii10039" xMin="-40" yMin="0" xMax="729" yMax="700">
      <component glyphName="X" x="0" y="0" flags="0x204"/>
    </TTGlyph>
    <TTGlyph name="afii10040" xMin="-20" yMin="-151" xMax="783" yMax="700">
      <contour>
        <pt x="-20" y="0" on="1"/>
        <pt x="-15" y="29" on="1"/>
        <pt x="16" y="42" on="0"/>
        <pt x="73" y="54" on="1"/>
        <pt x="198" y="646" on="1"/>
        <pt x="161" y="652" on="0"/>
        <pt x="121" y="671" on="1"/>
        <pt x="128" y="700" on="1"/>
        <pt x="381" y="700" on="1"/>
        <pt x="374" y="671" on="1"/>
        <pt x="344" y="657" on="0"/>
        <pt x="294" y="646" on="1"/>
        <pt x="169" y="52" on="1"/>
        <pt x="467" y="52" on="1"/>
        <pt x="594" y="646" on="1"/>
        <pt x="576" y="650" on="0"/>
        <pt x="541" y="662" on="0"/>
        <pt x="524" y="671" on="1"/>
        <pt x="530" y="700" on="1"/>
        <pt x="783" y="700" on="1"/>
        <pt x="777" y="671" on="1"/>
        <pt x="756" y="663" on="0"/>
        <pt x="712" y="650" on="0"/>
        <pt x="690" y="646" on="1"/>
        <pt x="563" y="52" on="1"/>
        <pt x="678" y="52" on="1"/>
        <pt x="673" y="31" on="0"/>
        <pt x="659" y="-22" on="0"/>
        <pt x="641" y="-77" on="0"/>
        <pt x="622" y="-130" on="0"/>
        <pt x="614" y="-151" on="1"/>
        <pt x="589" y="-151" on="1"/>
        <pt x="583" y="0" on="1"/>
      </contour>
    </TTGlyph>
    <TTGlyph name="afii10041" xMin="102" yMin="0" xMax="706" yMax="700">
      <contour>
        <pt x="558" y="0" on="1"/>
        <pt x="304" y="0" on="1"/>
        <pt x="309" y="29" on="1"/>
        <pt x="335" y="40" on="0"/>
        <pt x="384" y="51" on="0"/>
        <pt x="407" y="53" on="1"/>
        <pt x="462" y="310" on="1"/>
        <pt x="431" y="295" on="0"/>
        <pt x="334" y="265" on="0"/>
        <pt x="274" y="265" on="1"/>
        <pt x="232" y="265" on="0"/>
        <pt x="168" y="289" on="0"/>
        <pt x="130" y="341" on="0"/>
        <pt x="121" y="421" on="0"/>
        <pt x="133" y="478" on="1"/>
        <pt x="169" y="646" on="1"/>
        <pt x="152" y="650" on="0"/>
        <pt x="116" y="662" on="0"/>
        <pt x="102" y="671" on="1"/>
        <pt x="108" y="700" on="1"/>
        <pt x="342" y="700" on="1"/>
        <pt x="335" y="671" on="1"/>
        <pt x="321" y="664" on="0"/>
        <pt x="287" y="651" on="0"/>
        <pt x="265" y="646" on="1"/>
        <pt x="230" y="482" on="1"/>
        <pt x="222" y="443" on="0"/>
        <pt x="221" y="382" on="0"/>
        <pt x="240" y="340" on="0"/>
        <pt x="283" y="317" on="0"/>
        <pt x="318" y="317" on="1"/>
        <pt x="360" y="317" on="0"/>
        <pt x="438" y="341" on="0"/>
        <pt x="472" y="358" on="1"/>
        <pt x="533" y="646" on="1"/>
        <pt x="497" y="655" on="0"/>
        <pt x="467" y="671" on="1"/>
        <pt x="473" y="700" on="1"/>
        <pt x="706" y="700" on="1"/>
        <pt x="700" y="671" on="1"/>
        <pt x="685" y="663" on="0"/>
        <pt x="649" y="651" on="0"/>
        <pt x="629" y="646" on="1"/>
        <pt x="503" y="53" on="1"/>
        <pt x="521" y="49" on="0"/>
        <pt x="552" y="37" on="0"/>
        <pt x="563" y="29" on="1"/>
      </contour>
    </TTGlyph>
    <TTGlyph name="afii10042" xMin="-20" yMin="0" xMax="1000" yMax="700">
      <contour>
        <pt x="452" y="700" on="1"/>
        <pt x="678" y="700" on="1"/>
        <pt x="671" y="671" on="1"/>
        <pt x="656" y="663" on="0"/>
        <pt x="618" y="650" on="0"/>
        <pt x="601" y="646" on="1"/>
        <pt x="475" y="52" on="1"/>
        <pt x="696" y="52" on="1"/>
        <pt x="823" y="646" on="1"/>
        <pt x="806" y="651" on="0"/>
        <pt x="774" y="663" on="0"/>
        <pt x="761" y="671" on="1"/>
        <pt x="767" y="700" on="1"/>
        <pt x="1000" y="700" on="1"/>
        <pt x="994" y="671" on="1"/>
        <pt x="977" y="663" on="0"/>
        <pt x="940" y="650" on="0"/>
        <pt x="919" y="646" on="1"/>
        <pt x="793" y="53" on="1"/>
        <pt x="811" y="49" on="0"/>
        <pt x="844" y="37" on="0"/>
        <pt x="857" y="29" on="1"/>
        <pt x="852" y="0" on="1"/>
        <pt x="-20" y="0" on="1"/>
        <pt x="-15" y="29" on="1"/>
        <pt x="25" y="47" on="0"/>
        <pt x="63" y="53" on="1"/>
        <pt x="188" y="646" on="1"/>
        <pt x="170" y="651" on="0"/>
        <pt x="134" y="663" on="0"/>
        <pt x="121" y="671" on="1"/>
        <pt x="128" y="700" on="1"/>
        <pt x="360" y="700" on="1"/>
        <pt x="354" y="671" on="1"/>
        <pt x="340" y="663" on="0"/>
        <pt x="305" y="651" on="0"/>
        <pt x="284" y="646" on="1"/>
        <pt x="158" y="52" on="1"/>
        <pt x="379" y="52" on="1"/>
        <pt x="505" y="646" on="1"/>
        <pt x="488" y="651" on="0"/>
        <pt x="456" y="663" on="0"/>
        <pt x="446" y="671" on="1"/>
      </contour>
    </TTGlyph>
    <TTGlyph name="afii10043" xMin="-20" yMin="-151" xMax="1001" yMax="700">
      <contour>
        <pt x="-20" y="0" on="1"/>
        <pt x="-15" y="29" on="1"/>
        <pt x="3" y="37" on="0"/>
        <pt x="40" y="49" on="0"/>
        <pt x="63" y="53" on="1"/>
        <pt x="188" y="646" on="1"/>
        <pt x="170" y="650" on="0"/>
        <pt x="134" y="662" on="0"/>
        <pt x="121" y="671" on="1"/>
        <pt x="128" y="700" on="1"/>
        <pt x="360" y="700" on="1"/>
        <pt x="354" y="671" on="1"/>
        <pt x="340" y="663" on="0"/>
        <pt x="305" y="651" on="0"/>
        <pt x="284" y="646" on="1"/>
        <pt x="158" y="52" on="1"/>
        <pt x="379" y="52" on="1"/>
        <pt x="505" y="646" on="1"/>
        <pt x="489" y="651" on="0"/>
        <pt x="458" y="663" on="0"/>
        <pt x="446" y="671" on="1"/>
        <pt x="452" y="700" on="1"/>
        <pt x="678" y="700" on="1"/>
        <pt x="671" y="671" on="1"/>
        <pt x="658" y="663" on="0"/>
        <pt x="623" y="651" on="0"/>
        <pt x="601" y="646" on="1"/>
        <pt x="475" y="52" on="1"/>
        <pt x="696" y="52" on="1"/>
        <pt x="823" y="646" on="1"/>
        <pt x="806" y="651" on="0"/>
        <pt x="773" y="663" on="0"/>
        <pt x="761" y="671" on="1"/>
        <pt x="767" y="700" on="1"/>
        <pt x="1001" y="700" on="1"/>
        <pt x="994" y="671" on="1"/>
        <pt x="962" y="653" on="0"/>
        <pt x="919" y="646" on="1"/>
        <pt x="792" y="51" on="1"/>
        <pt x="907" y="51" on="1"/>
        <pt x="902" y="31" on="0"/>
        <pt x="887" y="-22" on="0"/>
        <pt x="869" y="-77" on="0"/>
        <pt x="851" y="-131" on="0"/>
        <pt x="843" y="-151" on="1"/>
        <pt x="818" y="-151" on="1"/>
        <pt x="812" y="0" on="1"/>
      </contour>
    </TTGlyph>
    <TTGlyph name="afii10044" xMin="88" yMin="-3" xMax="680" yMax="700">
      <contour>
        <pt x="520" y="700" on="1"/>
        <pt x="514" y="671" on="1"/>
        <pt x="494" y="663" on="0"/>
        <pt x="448" y="650" on="0"/>
        <pt x="420" y="646" on="1"/>
        <pt x="372" y="417" on="1"/>
        <pt x="391" y="421" on="0"/>
        <pt x="444" y="424" on="0"/>
        <pt x="464" y="424" on="1"/>
        <pt x="511" y="424" on="0"/>
        <pt x="591" y="405" on="0"/>
        <pt x="648" y="366" on="0"/>
        <pt x="680" y="307" on="0"/>
        <pt x="680" y="267" on="1"/>
        <pt x="680" y="202" on="0"/>
        <pt x="636" y="102" on="0"/>
        <pt x="553" y="33" on="0"/>
        <pt x="433" y="-3" on="0"/>
        <pt x="358" y="-3" on="1"/>
        <pt x="353" y="-3" on="0"/>
        <pt x="324" y="-2" on="0"/>
        <pt x="288" y="-1" on="0"/>
        <pt x="248" y="0" on="0"/>
        <pt x="233" y="0" on="1"/>
        <pt x="105" y="0" on="1"/>
        <pt x="111" y="29" on="1"/>
        <pt x="152" y="46" on="0"/>
        <pt x="199" y="53" on="1"/>
        <pt x="324" y="648" on="1"/>
        <pt x="196" y="648" on="1"/>
        <pt x="114" y="505" on="1"/>
        <pt x="88" y="505" on="1"/>
        <pt x="89" y="526" on="0"/>
        <pt x="96" y="577" on="0"/>
        <pt x="105" y="630" on="0"/>
        <pt x="114" y="680" on="0"/>
        <pt x="118" y="700" on="1"/>
      </contour>
      <contour>
        <pt x="433" y="372" on="1"/>
        <pt x="408" y="372" on="0"/>
        <pt x="375" y="369" on="0"/>
        <pt x="361" y="366" on="1"/>
        <pt x="295" y="54" on="1"/>
        <pt x="299" y="52" on="0"/>
        <pt x="318" y="51" on="0"/>
        <pt x="339" y="49" on="0"/>
        <pt x="358" y="49" on="0"/>
        <pt x="364" y="49" on="1"/>
        <pt x="410" y="49" on="0"/>
        <pt x="486" y="74" on="0"/>
        <pt x="542" y="128" on="0"/>
        <pt x="573" y="211" on="0"/>
        <pt x="573" y="268" on="1"/>
        <pt x="573" y="289" on="0"/>
        <pt x="560" y="327" on="0"/>
        <pt x="527" y="356" on="0"/>
        <pt x="473" y="372" on="0"/>
      </contour>
    </TTGlyph>
    <TTGlyph name="afii10045" xMin="-20" yMin="-3" xMax="913" yMax="700">
      <contour>
        <pt x="765" y="0" on="1"/>
        <pt x="512" y="0" on="1"/>
        <pt x="517" y="29" on="1"/>
        <pt x="538" y="39" on="0"/>
        <pt x="579" y="49" on="0"/>
        <pt x="601" y="53" on="1"/>
        <pt x="726" y="646" on="1"/>
        <pt x="708" y="651" on="0"/>
        <pt x="673" y="661" on="0"/>
        <pt x="653" y="671" on="1"/>
        <pt x="659" y="700" on="1"/>
        <pt x="913" y="700" on="1"/>
        <pt x="907" y="671" on="1"/>
        <pt x="871" y="654" on="0"/>
        <pt x="822" y="646" on="1"/>
        <pt x="697" y="53" on="1"/>
        <pt x="720" y="49" on="0"/>
        <pt x="756" y="37" on="0"/>
        <pt x="770" y="29" on="1"/>
      </contour>
      <contour>
        <pt x="-20" y="0" on="1"/>
        <pt x="-15" y="29" on="1"/>
        <pt x="28" y="47" on="0"/>
        <pt x="73" y="53" on="1"/>
        <pt x="198" y="646" on="1"/>
        <pt x="178" y="650" on="0"/>
        <pt x="140" y="663" on="0"/>
        <pt x="121" y="671" on="1"/>
        <pt x="128" y="700" on="1"/>
        <pt x="394" y="700" on="1"/>
        <pt x="387" y="671" on="1"/>
        <pt x="367" y="663" on="0"/>
        <pt x="320" y="649" on="0"/>
        <pt x="294" y="646" on="1"/>
        <pt x="246" y="417" on="1"/>
        <pt x="265" y="421" on="0"/>
        <pt x="318" y="424" on="0"/>
        <pt x="338" y="424" on="1"/>
        <pt x="438" y="424" on="0"/>
        <pt x="543" y="338" on="0"/>
        <pt x="543" y="266" on="1"/>
        <pt x="543" y="197" on="0"/>
        <pt x="496" y="96" on="0"/>
        <pt x="413" y="29" on="0"/>
        <pt x="299" y="-3" on="0"/>
        <pt x="232" y="-3" on="1"/>
        <pt x="227" y="-3" on="0"/>
        <pt x="199" y="-2" on="0"/>
        <pt x="162" y="-1" on="0"/>
        <pt x="123" y="0" on="0"/>
        <pt x="108" y="0" on="1"/>
      </contour>
      <contour>
        <pt x="307" y="372" on="1"/>
        <pt x="283" y="372" on="0"/>
        <pt x="249" y="369" on="0"/>
        <pt x="235" y="366" on="1"/>
        <pt x="169" y="54" on="1"/>
        <pt x="173" y="52" on="0"/>
        <pt x="192" y="51" on="0"/>
        <pt x="213" y="49" on="0"/>
        <pt x="232" y="49" on="0"/>
        <pt x="238" y="49" on="1"/>
        <pt x="330" y="49" on="0"/>
        <pt x="437" y="159" on="0"/>
        <pt x="436" y="268" on="1"/>
        <pt x="437" y="289" on="0"/>
        <pt x="425" y="327" on="0"/>
        <pt x="396" y="355" on="0"/>
        <pt x="346" y="372" on="0"/>
      </contour>
    </TTGlyph>
    <TTGlyph name="afii10046" xMin="-20" yMin="-3" xMax="554" yMax="700">
      <contour>
        <pt x="-20" y="0" on="1"/>
        <pt x="-15" y="29" on="1"/>
        <pt x="28" y="47" on="0"/>
        <pt x="73" y="53" on="1"/>
        <pt x="198" y="646" on="1"/>
        <pt x="178" y="650" on="0"/>
        <pt x="140" y="663" on="0"/>
        <pt x="121" y="671" on="1"/>
        <pt x="128" y="700" on="1"/>
        <pt x="394" y="700" on="1"/>
        <pt x="388" y="671" on="1"/>
        <pt x="368" y="663" on="0"/>
        <pt x="320" y="649" on="0"/>
        <pt x="294" y="646" on="1"/>
        <pt x="246" y="417" on="1"/>
        <pt x="265" y="421" on="0"/>
        <pt x="318" y="424" on="0"/>
        <pt x="338" y="424" on="1"/>
        <pt x="438" y="424" on="0"/>
        <pt x="554" y="342" on="0"/>
        <pt x="554" y="266" on="1"/>
        <pt x="554" y="194" on="0"/>
        <pt x="503" y="92" on="0"/>
        <pt x="416" y="27" on="0"/>
        <pt x="299" y="-3" on="0"/>
        <pt x="232" y="-3" on="1"/>
        <pt x="227" y="-3" on="0"/>
        <pt x="199" y="-2" on="0"/>
        <pt x="162" y="-1" on="0"/>
        <pt x="123" y="0" on="0"/>
        <pt x="108" y="0" on="1"/>
      </contour>
      <contour>
        <pt x="307" y="372" on="1"/>
        <pt x="283" y="372" on="0"/>
        <pt x="249" y="369" on="0"/>
        <pt x="235" y="366" on="1"/>
        <pt x="169" y="54" on="1"/>
        <pt x="173" y="52" on="0"/>
        <pt x="192" y="51" on="0"/>
        <pt x="213" y="49" on="0"/>
        <pt x="233" y="49" on="0"/>
        <pt x="238" y="49" on="1"/>
        <pt x="284" y="49" on="0"/>
        <pt x="361" y="74" on="0"/>
        <pt x="417" y="128" on="0"/>
        <pt x="448" y="211" on="0"/>
        <pt x="447" y="268" on="1"/>
        <pt x="448" y="289" on="0"/>
        <pt x="434" y="327" on="0"/>
        <pt x="402" y="356" on="0"/>
        <pt x="347" y="372" on="0"/>
      </contour>
    </TTGlyph>
    <TTGlyph name="afii10047" xMin="20" yMin="-12" xMax="615" yMax="712">
      <contour>
        <pt x="209" y="314" on="1"/>
        <pt x="208" y="334" on="0"/>
        <pt x="215" y="373" on="0"/>
        <pt x="225" y="392" on="1"/>
        <pt x="513" y="391" on="1"/>
        <pt x="517" y="451" on="0"/>
        <pt x="491" y="551" on="0"/>
        <pt x="437" y="621" on="0"/>
        <pt x="358" y="660" on="0"/>
        <pt x="310" y="660" on="1"/>
        <pt x="285" y="660" on="0"/>
        <pt x="229" y="649" on="0"/>
        <pt x="216" y="641" on="1"/>
        <pt x="138" y="519" on="1"/>
        <pt x="112" y="519" on="1"/>
        <pt x="113" y="532" on="0"/>
        <pt x="116" y="568" on="0"/>
        <pt x="121" y="608" on="0"/>
        <pt x="129" y="651" on="0"/>
        <pt x="134" y="671" on="1"/>
        <pt x="153" y="682" on="0"/>
        <pt x="202" y="698" on="0"/>
        <pt x="254" y="708" on="0"/>
        <pt x="305" y="712" on="0"/>
        <pt x="326" y="712" on="1"/>
        <pt x="466" y="712" on="0"/>
        <pt x="615" y="562" on="0"/>
        <pt x="615" y="427" on="1"/>
        <pt x="615" y="334" on="0"/>
        <pt x="557" y="173" on="0"/>
        <pt x="448" y="55" on="0"/>
        <pt x="292" y="-12" on="0"/>
        <pt x="193" y="-12" on="1"/>
        <pt x="127" y="-12" on="0"/>
        <pt x="50" y="7" on="0"/>
        <pt x="20" y="24" on="1"/>
        <pt x="27" y="67" on="0"/>
        <pt x="56" y="160" on="0"/>
        <pt x="71" y="195" on="1"/>
        <pt x="96" y="195" on="1"/>
        <pt x="118" y="51" on="1"/>
        <pt x="132" y="46" on="0"/>
        <pt x="175" y="40" on="0"/>
        <pt x="201" y="40" on="1"/>
        <pt x="256" y="40" on="0"/>
        <pt x="357" y="77" on="0"/>
        <pt x="438" y="154" on="0"/>
        <pt x="495" y="268" on="0"/>
        <pt x="506" y="344" on="1"/>
      </contour>
    </TTGlyph>
    <TTGlyph name="afii10048" xMin="-20" yMin="-12" xMax="954" yMax="712">
      <contour>
        <pt x="234" y="0" on="1"/>
        <pt x="-20" y="0" on="1"/>
        <pt x="-15" y="29" on="1"/>
        <pt x="6" y="37" on="0"/>
        <pt x="49" y="49" on="0"/>
        <pt x="73" y="53" on="1"/>
        <pt x="198" y="646" on="1"/>
        <pt x="161" y="652" on="0"/>
        <pt x="121" y="671" on="1"/>
        <pt x="128" y="700" on="1"/>
        <pt x="382" y="700" on="1"/>
        <pt x="375" y="671" on="1"/>
        <pt x="361" y="665" on="0"/>
        <pt x="326" y="652" on="0"/>
        <pt x="294" y="646" on="1"/>
        <pt x="239" y="385" on="1"/>
        <pt x="354" y="385" on="1"/>
        <pt x="368" y="454" on="0"/>
        <pt x="428" y="574" on="0"/>
        <pt x="517" y="662" on="0"/>
        <pt x="634" y="712" on="0"/>
        <pt x="705" y="712" on="1"/>
        <pt x="778" y="712" on="0"/>
        <pt x="874" y="665" on="0"/>
        <pt x="931" y="591" on="0"/>
        <pt x="954" y="500" on="0"/>
        <pt x="954" y="455" on="1"/>
        <pt x="954" y="372" on="0"/>
        <pt x="905" y="206" on="0"/>
        <pt x="809" y="72" on="0"/>
        <pt x="666" y="-12" on="0"/>
        <pt x="572" y="-12" on="1"/>
        <pt x="496" y="-12" on="0"/>
        <pt x="399" y="51" on="0"/>
        <pt x="347" y="150" on="0"/>
        <pt x="335" y="273" on="0"/>
        <pt x="344" y="333" on="1"/>
        <pt x="227" y="333" on="1"/>
        <pt x="169" y="53" on="1"/>
        <pt x="192" y="48" on="0"/>
        <pt x="226" y="36" on="0"/>
        <pt x="239" y="29" on="1"/>
      </contour>
      <contour>
        <pt x="439" y="259" on="1"/>
        <pt x="439" y="220" on="0"/>
        <pt x="451" y="142" on="0"/>
        <pt x="484" y="79" on="0"/>
        <pt x="543" y="39" on="0"/>
        <pt x="589" y="40" on="1"/>
        <pt x="636" y="39" on="0"/>
        <pt x="711" y="79" on="0"/>
        <pt x="768" y="147" on="0"/>
        <pt x="809" y="236" on="0"/>
        <pt x="835" y="333" on="0"/>
        <pt x="847" y="432" on="0"/>
        <pt x="847" y="477" on="1"/>
        <pt x="848" y="505" on="0"/>
        <pt x="837" y="569" on="0"/>
        <pt x="802" y="624" on="0"/>
        <pt x="740" y="660" on="0"/>
        <pt x="690" y="660" on="1"/>
        <pt x="646" y="660" on="0"/>
        <pt x="575" y="623" on="0"/>
        <pt x="519" y="560" on="0"/>
        <pt x="478" y="478" on="0"/>
        <pt x="452" y="389" on="0"/>
        <pt x="439" y="298" on="0"/>
      </contour>
    </TTGlyph>
    <TTGlyph name="afii10049" xMin="-51" yMin="0" xMax="694" yMax="703">
      <contour>
        <pt x="694" y="700" on="1"/>
        <pt x="688" y="671" on="1"/>
        <pt x="671" y="663" on="0"/>
        <pt x="630" y="651" on="0"/>
        <pt x="601" y="646" on="1"/>
        <pt x="476" y="53" on="1"/>
        <pt x="524" y="45" on="0"/>
        <pt x="551" y="29" on="1"/>
        <pt x="546" y="0" on="1"/>
        <pt x="281" y="0" on="1"/>
        <pt x="286" y="29" on="1"/>
        <pt x="328" y="47" on="0"/>
        <pt x="380" y="53" on="1"/>
        <pt x="430" y="294" on="1"/>
        <pt x="338" y="294" on="1"/>
        <pt x="308" y="258" on="0"/>
        <pt x="257" y="188" on="0"/>
        <pt x="207" y="120" on="0"/>
        <pt x="153" y="56" on="0"/>
        <pt x="120" y="25" on="1"/>
        <pt x="81" y="0" on="1"/>
        <pt x="-51" y="0" on="1"/>
        <pt x="-46" y="25" on="1"/>
        <pt x="7" y="49" on="1"/>
        <pt x="46" y="83" on="0"/>
        <pt x="110" y="150" on="0"/>
        <pt x="166" y="213" on="0"/>
        <pt x="218" y="273" on="0"/>
        <pt x="244" y="302" on="1"/>
        <pt x="230" y="307" on="0"/>
        <pt x="192" y="331" on="0"/>
        <pt x="158" y="370" on="0"/>
        <pt x="134" y="424" on="0"/>
        <pt x="134" y="459" on="1"/>
        <pt x="134" y="577" on="0"/>
        <pt x="299" y="701" on="0"/>
        <pt x="457" y="703" on="1"/>
        <pt x="477" y="703" on="0"/>
        <pt x="535" y="700" on="0"/>
        <pt x="566" y="700" on="1"/>
      </contour>
      <contour>
        <pt x="346" y="337" on="1"/>
        <pt x="355" y="337" on="0"/>
        <pt x="382" y="338" on="0"/>
        <pt x="410" y="339" on="0"/>
        <pt x="434" y="342" on="0"/>
        <pt x="441" y="344" on="1"/>
        <pt x="505" y="646" on="1"/>
        <pt x="496" y="648" on="0"/>
        <pt x="459" y="651" on="0"/>
        <pt x="445" y="651" on="1"/>
        <pt x="388" y="651" on="0"/>
        <pt x="309" y="617" on="0"/>
        <pt x="261" y="561" on="0"/>
        <pt x="240" y="492" on="0"/>
        <pt x="241" y="456" on="1"/>
        <pt x="240" y="426" on="0"/>
        <pt x="262" y="382" on="0"/>
        <pt x="295" y="353" on="0"/>
        <pt x="331" y="337" on="0"/>
      </contour>
    </TTGlyph>
    <TTGlyph name="afii10050" xMin="-20" yMin="0" xMax="616" yMax="836">
      <contour>
        <pt x="169" y="53" on="1"/>
        <pt x="192" y="51" on="0"/>
        <pt x="238" y="38" on="0"/>
        <pt x="259" y="29" on="1"/>
        <pt x="254" y="0" on="1"/>
        <pt x="-20" y="0" on="1"/>
        <pt x="-15" y="29" on="1"/>
        <pt x="8" y="40" on="0"/>
        <pt x="51" y="51" on="0"/>
        <pt x="73" y="53" on="1"/>
        <pt x="198" y="646" on="1"/>
        <pt x="178" y="651" on="0"/>
        <pt x="138" y="661" on="0"/>
        <pt x="121" y="671" on="1"/>
        <pt x="128" y="700" on="1"/>
        <pt x="508" y="700" on="1"/>
        <pt x="590" y="836" on="1"/>
        <pt x="616" y="836" on="1"/>
        <pt x="614" y="815" on="0"/>
        <pt x="608" y="766" on="0"/>
        <pt x="599" y="715" on="0"/>
        <pt x="590" y="667" on="0"/>
        <pt x="585" y="648" on="1"/>
        <pt x="295" y="648" on="1"/>
      </contour>
    </TTGlyph>
    <TTGlyph name="afii10051" xMin="79" yMin="-3" xMax="721" yMax="700">
      <contour>
        <pt x="721" y="290" on="1"/>
        <pt x="721" y="213" on="0"/>
        <pt x="672" y="102" on="0"/>
        <pt x="595" y="31" on="0"/>
        <pt x="502" y="-3" on="0"/>
        <pt x="457" y="-3" on="1"/>
        <pt x="456" y="24" on="1"/>
        <pt x="491" y="34" on="0"/>
        <pt x="552" y="72" on="0"/>
        <pt x="598" y="134" on="0"/>
        <pt x="625" y="221" on="0"/>
        <pt x="625" y="281" on="1"/>
        <pt x="625" y="303" on="0"/>
        <pt x="616" y="340" on="0"/>
        <pt x="593" y="367" on="0"/>
        <pt x="553" y="382" on="0"/>
        <pt x="522" y="382" on="1"/>
        <pt x="480" y="382" on="0"/>
        <pt x="402" y="357" on="0"/>
        <pt x="370" y="340" on="1"/>
        <pt x="310" y="53" on="1"/>
        <pt x="327" y="48" on="0"/>
        <pt x="359" y="36" on="0"/>
        <pt x="375" y="29" on="1"/>
        <pt x="369" y="0" on="1"/>
        <pt x="110" y="0" on="1"/>
        <pt x="115" y="29" on="1"/>
        <pt x="139" y="38" on="0"/>
        <pt x="187" y="49" on="0"/>
        <pt x="214" y="53" on="1"/>
        <pt x="340" y="648" on="1"/>
        <pt x="187" y="648" on="1"/>
        <pt x="104" y="505" on="1"/>
        <pt x="79" y="505" on="1"/>
        <pt x="80" y="525" on="0"/>
        <pt x="87" y="576" on="0"/>
        <pt x="96" y="629" on="0"/>
        <pt x="105" y="680" on="0"/>
        <pt x="109" y="700" on="1"/>
        <pt x="689" y="700" on="1"/>
        <pt x="685" y="680" on="0"/>
        <pt x="674" y="630" on="0"/>
        <pt x="660" y="579" on="0"/>
        <pt x="645" y="529" on="0"/>
        <pt x="637" y="508" on="1"/>
        <pt x="612" y="508" on="1"/>
        <pt x="589" y="648" on="1"/>
        <pt x="436" y="648" on="1"/>
        <pt x="381" y="389" on="1"/>
        <pt x="412" y="404" on="0"/>
        <pt x="507" y="434" on="0"/>
        <pt x="564" y="434" on="1"/>
        <pt x="648" y="434" on="0"/>
        <pt x="721" y="357" on="0"/>
      </contour>
    </TTGlyph>
    <TTGlyph name="afii10052" xMin="-20" yMin="0" xMax="596" yMax="894">
      <component glyphName="afii10020" x="0" y="0" flags="0x204"/>
      <component glyphName="uniF6C9" x="-20" y="0" flags="0x4"/>
    </TTGlyph>
    <TTGlyph name="afii10053" xMin="66" yMin="-12" xMax="669" yMax="712">
      <contour>
        <pt x="557" y="182" on="1"/>
        <pt x="582" y="182" on="1"/>
        <pt x="582" y="154" on="0"/>
        <pt x="571" y="69" on="0"/>
        <pt x="560" y="29" on="1"/>
        <pt x="540" y="18" on="0"/>
        <pt x="494" y="2" on="0"/>
        <pt x="444" y="-8" on="0"/>
        <pt x="396" y="-12" on="0"/>
        <pt x="375" y="-12" on="1"/>
        <pt x="290" y="-12" on="0"/>
        <pt x="172" y="36" on="0"/>
        <pt x="99" y="114" on="0"/>
        <pt x="66" y="210" on="0"/>
        <pt x="66" y="258" on="1"/>
        <pt x="66" y="360" on="0"/>
        <pt x="124" y="527" on="0"/>
        <pt x="231" y="646" on="0"/>
        <pt x="384" y="712" on="0"/>
        <pt x="480" y="712" on="1"/>
        <pt x="546" y="712" on="0"/>
        <pt x="638" y="694" on="0"/>
        <pt x="669" y="678" on="1"/>
        <pt x="666" y="662" on="0"/>
        <pt x="655" y="619" on="0"/>
        <pt x="640" y="571" on="0"/>
        <pt x="624" y="525" on="0"/>
        <pt x="617" y="506" on="1"/>
        <pt x="591" y="506" on="1"/>
        <pt x="570" y="650" on="1"/>
        <pt x="557" y="655" on="0"/>
        <pt x="504" y="660" on="0"/>
        <pt x="479" y="660" on="1"/>
        <pt x="423" y="660" on="0"/>
        <pt x="326" y="624" on="0"/>
        <pt x="249" y="552" on="0"/>
        <pt x="194" y="445" on="0"/>
        <pt x="182" y="375" on="1"/>
        <pt x="511" y="389" on="1"/>
        <pt x="513" y="372" on="0"/>
        <pt x="506" y="331" on="0"/>
        <pt x="498" y="311" on="1"/>
        <pt x="464" y="314" on="0"/>
        <pt x="382" y="319" on="0"/>
        <pt x="297" y="324" on="0"/>
        <pt x="212" y="327" on="0"/>
        <pt x="176" y="327" on="1"/>
        <pt x="173" y="295" on="0"/>
        <pt x="173" y="260" on="1"/>
        <pt x="173" y="198" on="0"/>
        <pt x="216" y="113" on="0"/>
        <pt x="281" y="61" on="0"/>
        <pt x="357" y="39" on="0"/>
        <pt x="391" y="40" on="1"/>
        <pt x="425" y="39" on="0"/>
        <pt x="472" y="51" on="0"/>
        <pt x="483" y="58" on="1"/>
      </contour>
    </TTGlyph>
    <TTGlyph name="afii10054" xMin="22" yMin="-12" xMax="563" yMax="712">
      <component glyphName="S" x="0" y="0" flags="0x204"/>
    </TTGlyph>
    <TTGlyph name="afii10055" xMin="-1" yMin="0" xMax="403" yMax="700">
      <component glyphName="I" x="0" y="0" flags="0x204"/>
    </TTGlyph>
    <TTGlyph name="afii10055.alt" xMin="-1" yMin="0" xMax="403" yMax="871">
      <component glyphName="I" x="0" y="0" flags="0x204"/>
      <component glyphName="uniF40B" x="-45" y="0" flags="0x4"/>
    </TTGlyph>
    <TTGlyph name="afii10056" xMin="-1" yMin="0" xMax="438" yMax="837">
      <contour>
        <pt x="255" y="0" on="1"/>
        <pt x="-1" y="0" on="1"/>
        <pt x="4" y="29" on="1"/>
        <pt x="48" y="47" on="0"/>
        <pt x="90" y="53" on="1"/>
        <pt x="215" y="646" on="1"/>
        <pt x="195" y="650" on="0"/>
        <pt x="159" y="663" on="0"/>
        <pt x="140" y="671" on="1"/>
        <pt x="147" y="700" on="1"/>
        <pt x="403" y="700" on="1"/>
        <pt x="397" y="671" on="1"/>
        <pt x="377" y="663" on="0"/>
        <pt x="331" y="650" on="0"/>
        <pt x="311" y="646" on="1"/>
        <pt x="186" y="53" on="1"/>
        <pt x="206" y="49" on="0"/>
        <pt x="245" y="37" on="0"/>
        <pt x="260" y="29" on="1"/>
      </contour>
      <contour>
        <pt x="149" y="789" on="1"/>
        <pt x="149" y="813" on="0"/>
        <pt x="181" y="837" on="0"/>
        <pt x="205" y="837" on="1"/>
        <pt x="230" y="837" on="0"/>
        <pt x="261" y="813" on="0"/>
        <pt x="261" y="789" on="1"/>
        <pt x="261" y="766" on="0"/>
        <pt x="230" y="742" on="0"/>
        <pt x="205" y="742" on="1"/>
        <pt x="181" y="742" on="0"/>
        <pt x="149" y="766" on="0"/>
      </contour>
      <contour>
        <pt x="326" y="789" on="1"/>
        <pt x="326" y="813" on="0"/>
        <pt x="358" y="837" on="0"/>
        <pt x="382" y="837" on="1"/>
        <pt x="407" y="837" on="0"/>
        <pt x="438" y="813" on="0"/>
        <pt x="438" y="789" on="1"/>
        <pt x="438" y="766" on="0"/>
        <pt x="407" y="742" on="0"/>
        <pt x="382" y="742" on="1"/>
        <pt x="358" y="742" on="0"/>
        <pt x="326" y="766" on="0"/>
      </contour>
    </TTGlyph>
    <TTGlyph name="afii10057" xMin="-32" yMin="-160" xMax="391" yMax="700">
      <component glyphName="J" x="0" y="0" flags="0x204"/>
    </TTGlyph>
    <TTGlyph name="afii10058" xMin="-40" yMin="-12" xMax="885" yMax="700">
      <contour>
        <pt x="322" y="0" on="1"/>
        <pt x="328" y="29" on="1"/>
        <pt x="370" y="47" on="0"/>
        <pt x="410" y="53" on="1"/>
        <pt x="535" y="648" on="1"/>
        <pt x="349" y="648" on="1"/>
        <pt x="324" y="544" on="0"/>
        <pt x="278" y="383" on="0"/>
        <pt x="236" y="261" on="0"/>
        <pt x="196" y="173" on="0"/>
        <pt x="157" y="107" on="0"/>
        <pt x="118" y="58" on="0"/>
        <pt x="98" y="38" on="1"/>
        <pt x="72" y="12" on="0"/>
        <pt x="8" y="-12" on="0"/>
        <pt x="-18" y="-12" on="1"/>
        <pt x="-27" y="1" on="0"/>
        <pt x="-39" y="54" on="0"/>
        <pt x="-40" y="80" on="1"/>
        <pt x="-40" y="86" on="0"/>
        <pt x="-39" y="98" on="0"/>
        <pt x="-38" y="104" on="1"/>
        <pt x="-18" y="129" on="1"/>
        <pt x="93" y="108" on="1"/>
        <pt x="113" y="133" on="0"/>
        <pt x="160" y="215" on="0"/>
        <pt x="210" y="342" on="0"/>
        <pt x="262" y="520" on="0"/>
        <pt x="288" y="641" on="1"/>
        <pt x="229" y="652" on="0"/>
        <pt x="193" y="671" on="1"/>
        <pt x="199" y="700" on="1"/>
        <pt x="730" y="700" on="1"/>
        <pt x="724" y="671" on="1"/>
        <pt x="704" y="663" on="0"/>
        <pt x="657" y="650" on="0"/>
        <pt x="631" y="646" on="1"/>
        <pt x="583" y="417" on="1"/>
        <pt x="602" y="420" on="0"/>
        <pt x="654" y="424" on="0"/>
        <pt x="674" y="424" on="1"/>
        <pt x="722" y="424" on="0"/>
        <pt x="799" y="403" on="0"/>
        <pt x="855" y="362" on="0"/>
        <pt x="885" y="303" on="0"/>
        <pt x="885" y="265" on="1"/>
        <pt x="885" y="186" on="0"/>
        <pt x="823" y="83" on="0"/>
        <pt x="729" y="22" on="0"/>
        <pt x="618" y="-3" on="0"/>
        <pt x="569" y="-3" on="1"/>
        <pt x="564" y="-3" on="0"/>
        <pt x="536" y="-2" on="0"/>
        <pt x="499" y="-1" on="0"/>
        <pt x="460" y="0" on="0"/>
        <pt x="445" y="0" on="1"/>
      </contour>
      <contour>
        <pt x="641" y="372" on="1"/>
        <pt x="618" y="372" on="0"/>
        <pt x="586" y="369" on="0"/>
        <pt x="572" y="366" on="1"/>
        <pt x="506" y="54" on="1"/>
        <pt x="510" y="52" on="0"/>
        <pt x="528" y="51" on="0"/>
        <pt x="549" y="49" on="0"/>
        <pt x="569" y="49" on="0"/>
        <pt x="575" y="49" on="1"/>
        <pt x="614" y="49" on="0"/>
        <pt x="687" y="72" on="0"/>
        <pt x="744" y="125" on="0"/>
        <pt x="779" y="207" on="0"/>
        <pt x="778" y="264" on="1"/>
        <pt x="779" y="287" on="0"/>
        <pt x="766" y="327" on="0"/>
        <pt x="735" y="356" on="0"/>
        <pt x="681" y="372" on="0"/>
      </contour>
    </TTGlyph>
    <TTGlyph name="afii10059" xMin="-20" yMin="-3" xMax="958" yMax="700">
      <contour>
        <pt x="397" y="0" on="1"/>
        <pt x="403" y="29" on="1"/>
        <pt x="424" y="38" on="0"/>
        <pt x="462" y="50" on="0"/>
        <pt x="484" y="53" on="1"/>
        <pt x="546" y="346" on="1"/>
        <pt x="231" y="346" on="1"/>
        <pt x="170" y="53" on="1"/>
        <pt x="208" y="45" on="0"/>
        <pt x="239" y="29" on="1"/>
        <pt x="234" y="0" on="1"/>
        <pt x="-20" y="0" on="1"/>
        <pt x="-14" y="29" on="1"/>
        <pt x="8" y="39" on="0"/>
        <pt x="52" y="49" on="0"/>
        <pt x="74" y="53" on="1"/>
        <pt x="199" y="646" on="1"/>
        <pt x="154" y="653" on="0"/>
        <pt x="122" y="671" on="1"/>
        <pt x="128" y="700" on="1"/>
        <pt x="382" y="700" on="1"/>
        <pt x="376" y="671" on="1"/>
        <pt x="356" y="662" on="0"/>
        <pt x="315" y="650" on="0"/>
        <pt x="295" y="646" on="1"/>
        <pt x="242" y="398" on="1"/>
        <pt x="557" y="398" on="1"/>
        <pt x="610" y="646" on="1"/>
        <pt x="590" y="651" on="0"/>
        <pt x="558" y="663" on="0"/>
        <pt x="539" y="671" on="1"/>
        <pt x="545" y="700" on="1"/>
        <pt x="805" y="700" on="1"/>
        <pt x="799" y="671" on="1"/>
        <pt x="779" y="663" on="0"/>
        <pt x="731" y="650" on="0"/>
        <pt x="706" y="646" on="1"/>
        <pt x="653" y="397" on="1"/>
        <pt x="672" y="400" on="0"/>
        <pt x="724" y="404" on="0"/>
        <pt x="744" y="404" on="1"/>
        <pt x="792" y="404" on="0"/>
        <pt x="871" y="384" on="0"/>
        <pt x="927" y="344" on="0"/>
        <pt x="958" y="286" on="0"/>
        <pt x="958" y="248" on="1"/>
        <pt x="958" y="174" on="0"/>
        <pt x="896" y="77" on="0"/>
        <pt x="802" y="20" on="0"/>
        <pt x="691" y="-3" on="0"/>
        <pt x="641" y="-3" on="1"/>
        <pt x="636" y="-3" on="0"/>
        <pt x="608" y="-2" on="0"/>
        <pt x="571" y="-1" on="0"/>
        <pt x="532" y="0" on="0"/>
        <pt x="517" y="0" on="1"/>
      </contour>
      <contour>
        <pt x="714" y="352" on="1"/>
        <pt x="690" y="352" on="0"/>
        <pt x="656" y="349" on="0"/>
        <pt x="642" y="346" on="1"/>
        <pt x="580" y="54" on="1"/>
        <pt x="584" y="52" on="0"/>
        <pt x="603" y="51" on="0"/>
        <pt x="624" y="49" on="0"/>
        <pt x="644" y="49" on="0"/>
        <pt x="649" y="49" on="1"/>
        <pt x="689" y="49" on="0"/>
        <pt x="762" y="68" on="0"/>
        <pt x="818" y="115" on="0"/>
        <pt x="851" y="190" on="0"/>
        <pt x="851" y="244" on="1"/>
        <pt x="851" y="265" on="0"/>
        <pt x="838" y="304" on="0"/>
        <pt x="807" y="334" on="0"/>
        <pt x="754" y="352" on="0"/>
      </contour>
    </TTGlyph>
    <TTGlyph name="afii10060" xMin="79" yMin="0" xMax="720" yMax="700">
      <contour>
        <pt x="436" y="648" on="1"/>
        <pt x="381" y="389" on="1"/>
        <pt x="411" y="404" on="0"/>
        <pt x="498" y="434" on="0"/>
        <pt x="555" y="434" on="1"/>
        <pt x="621" y="434" on="0"/>
        <pt x="698" y="368" on="0"/>
        <pt x="699" y="296" on="1"/>
        <pt x="699" y="264" on="0"/>
        <pt x="690" y="222" on="1"/>
        <pt x="654" y="53" on="1"/>
        <pt x="688" y="47" on="0"/>
        <pt x="720" y="29" on="1"/>
        <pt x="715" y="0" on="1"/>
        <pt x="548" y="0" on="1"/>
        <pt x="595" y="229" on="1"/>
        <pt x="601" y="258" on="0"/>
        <pt x="603" y="313" on="0"/>
        <pt x="586" y="356" on="0"/>
        <pt x="549" y="382" on="0"/>
        <pt x="516" y="382" on="1"/>
        <pt x="474" y="382" on="0"/>
        <pt x="402" y="357" on="0"/>
        <pt x="370" y="340" on="1"/>
        <pt x="310" y="53" on="1"/>
        <pt x="327" y="48" on="0"/>
        <pt x="360" y="36" on="0"/>
        <pt x="375" y="29" on="1"/>
        <pt x="370" y="0" on="1"/>
        <pt x="110" y="0" on="1"/>
        <pt x="115" y="29" on="1"/>
        <pt x="139" y="37" on="0"/>
        <pt x="187" y="49" on="0"/>
        <pt x="214" y="53" on="1"/>
        <pt x="339" y="648" on="1"/>
        <pt x="187" y="648" on="1"/>
        <pt x="105" y="505" on="1"/>
        <pt x="79" y="505" on="1"/>
        <pt x="80" y="525" on="0"/>
        <pt x="86" y="576" on="0"/>
        <pt x="94" y="629" on="0"/>
        <pt x="104" y="680" on="0"/>
        <pt x="109" y="700" on="1"/>
        <pt x="689" y="700" on="1"/>
        <pt x="685" y="680" on="0"/>
        <pt x="673" y="631" on="0"/>
        <pt x="659" y="579" on="0"/>
        <pt x="644" y="529" on="0"/>
        <pt x="637" y="509" on="1"/>
        <pt x="612" y="509" on="1"/>
        <pt x="589" y="648" on="1"/>
      </contour>
    </TTGlyph>
    <TTGlyph name="afii10061" xMin="-20" yMin="0" xMax="703" yMax="894">
      <component glyphName="K" x="0" y="0" flags="0x204"/>
      <component glyphName="uniF6C9" x="29" y="0" flags="0x4"/>
    </TTGlyph>
    <TTGlyph name="afii10062" xMin="93" yMin="-16" xMax="758" yMax="871">
      <component glyphName="afii10037" x="0" y="0" flags="0x204"/>
      <component glyphName="uniF6D1" x="-33" y="0" flags="0x4"/>
    </TTGlyph>
    <TTGlyph name="afii10065" xMin="43" yMin="-12" xMax="497" yMax="512">
      <component glyphName="a" x="0" y="0" flags="0x204"/>
    </TTGlyph>
    <TTGlyph name="afii10066" xMin="41" yMin="-12" xMax="548" yMax="762">
      <contour>
        <pt x="41" y="189" on="1"/>
        <pt x="41" y="259" on="0"/>
        <pt x="64" y="401" on="0"/>
        <pt x="112" y="527" on="0"/>
        <pt x="186" y="628" on="0"/>
        <pt x="237" y="657" on="1"/>
        <pt x="287" y="686" on="0"/>
        <pt x="400" y="706" on="0"/>
        <pt x="459" y="710" on="1"/>
        <pt x="523" y="762" on="1"/>
        <pt x="548" y="762" on="1"/>
        <pt x="546" y="733" on="0"/>
        <pt x="520" y="671" on="0"/>
        <pt x="503" y="650" on="1"/>
        <pt x="492" y="635" on="0"/>
        <pt x="452" y="623" on="0"/>
        <pt x="425" y="621" on="1"/>
        <pt x="345" y="614" on="0"/>
        <pt x="237" y="582" on="0"/>
        <pt x="165" y="516" on="0"/>
        <pt x="119" y="406" on="0"/>
        <pt x="103" y="321" on="1"/>
        <pt x="108" y="321" on="1"/>
        <pt x="130" y="366" on="0"/>
        <pt x="187" y="436" on="0"/>
        <pt x="250" y="485" on="0"/>
        <pt x="315" y="511" on="0"/>
        <pt x="347" y="511" on="1"/>
        <pt x="378" y="511" on="0"/>
        <pt x="427" y="486" on="0"/>
        <pt x="460" y="441" on="0"/>
        <pt x="478" y="381" on="0"/>
        <pt x="478" y="345" on="1"/>
        <pt x="478" y="280" on="0"/>
        <pt x="437" y="153" on="0"/>
        <pt x="363" y="51" on="0"/>
        <pt x="263" y="-12" on="0"/>
        <pt x="203" y="-12" on="1"/>
        <pt x="167" y="-12" on="0"/>
        <pt x="108" y="13" on="0"/>
        <pt x="65" y="63" on="0"/>
        <pt x="41" y="138" on="0"/>
      </contour>
      <contour>
        <pt x="155" y="332" on="1"/>
        <pt x="141" y="302" on="0"/>
        <pt x="131" y="222" on="0"/>
        <pt x="131" y="167" on="1"/>
        <pt x="131" y="95" on="0"/>
        <pt x="179" y="31" on="0"/>
        <pt x="214" y="31" on="1"/>
        <pt x="248" y="31" on="0"/>
        <pt x="309" y="82" on="0"/>
        <pt x="355" y="164" on="0"/>
        <pt x="382" y="270" on="0"/>
        <pt x="382" y="325" on="1"/>
        <pt x="382" y="391" on="0"/>
        <pt x="343" y="449" on="0"/>
        <pt x="301" y="449" on="1"/>
        <pt x="274" y="449" on="0"/>
        <pt x="226" y="422" on="0"/>
        <pt x="187" y="384" on="0"/>
        <pt x="161" y="345" on="0"/>
      </contour>
    </TTGlyph>
    <TTGlyph name="afii10067" xMin="40" yMin="-12" xMax="441" yMax="512">
      <contour>
        <pt x="441" y="416" on="1"/>
        <pt x="441" y="368" on="0"/>
        <pt x="369" y="301" on="0"/>
        <pt x="303" y="277" on="1"/>
        <pt x="337" y="275" on="0"/>
        <pt x="382" y="256" on="0"/>
        <pt x="410" y="227" on="0"/>
        <pt x="422" y="194" on="0"/>
        <pt x="422" y="178" on="1"/>
        <pt x="422" y="145" on="0"/>
        <pt x="390" y="78" on="0"/>
        <pt x="333" y="23" on="0"/>
        <pt x="253" y="-12" on="0"/>
        <pt x="205" y="-12" on="1"/>
        <pt x="162" y="-12" on="0"/>
        <pt x="100" y="14" on="0"/>
        <pt x="59" y="59" on="0"/>
        <pt x="40" y="119" on="0"/>
        <pt x="40" y="154" on="1"/>
        <pt x="40" y="206" on="0"/>
        <pt x="62" y="302" on="0"/>
        <pt x="99" y="383" on="0"/>
        <pt x="150" y="447" on="0"/>
        <pt x="179" y="468" on="1"/>
        <pt x="238" y="512" on="0"/>
        <pt x="323" y="512" on="1"/>
        <pt x="371" y="512" on="0"/>
        <pt x="441" y="463" on="0"/>
      </contour>
      <contour>
        <pt x="332" y="161" on="1"/>
        <pt x="331" y="202" on="0"/>
        <pt x="288" y="241" on="0"/>
        <pt x="239" y="250" on="1"/>
        <pt x="217" y="245" on="0"/>
        <pt x="165" y="239" on="0"/>
        <pt x="138" y="237" on="1"/>
        <pt x="135" y="223" on="0"/>
        <pt x="130" y="186" on="0"/>
        <pt x="130" y="165" on="1"/>
        <pt x="130" y="108" on="0"/>
        <pt x="178" y="31" on="0"/>
        <pt x="230" y="31" on="1"/>
        <pt x="245" y="31" on="0"/>
        <pt x="281" y="49" on="0"/>
        <pt x="311" y="83" on="0"/>
        <pt x="331" y="131" on="0"/>
      </contour>
      <contour>
        <pt x="305" y="469" on="1"/>
        <pt x="282" y="468" on="0"/>
        <pt x="236" y="448" on="0"/>
        <pt x="194" y="402" on="0"/>
        <pt x="157" y="328" on="0"/>
        <pt x="142" y="275" on="1"/>
        <pt x="189" y="275" on="0"/>
        <pt x="266" y="297" on="0"/>
        <pt x="321" y="335" on="0"/>
        <pt x="351" y="385" on="0"/>
        <pt x="351" y="412" on="1"/>
        <pt x="351" y="432" on="0"/>
        <pt x="331" y="468" on="0"/>
      </contour>
    </TTGlyph>
    <TTGlyph name="afii10068" xMin="16" yMin="-12" xMax="366" yMax="512">
      <contour>
        <pt x="16" y="94" on="1"/>
        <pt x="16" y="128" on="0"/>
        <pt x="54" y="184" on="0"/>
        <pt x="111" y="233" on="0"/>
        <pt x="177" y="276" on="0"/>
        <pt x="234" y="318" on="0"/>
        <pt x="272" y="362" on="0"/>
        <pt x="272" y="386" on="1"/>
        <pt x="272" y="412" on="0"/>
        <pt x="251" y="450" on="0"/>
        <pt x="216" y="450" on="1"/>
        <pt x="181" y="450" on="0"/>
        <pt x="118" y="413" on="0"/>
        <pt x="99" y="394" on="1"/>
        <pt x="84" y="411" on="1"/>
        <pt x="92" y="426" on="0"/>
        <pt x="124" y="461" on="0"/>
        <pt x="169" y="492" on="0"/>
        <pt x="222" y="512" on="0"/>
        <pt x="251" y="512" on="1"/>
        <pt x="309" y="512" on="0"/>
        <pt x="366" y="455" on="0"/>
        <pt x="366" y="418" on="1"/>
        <pt x="366" y="381" on="0"/>
        <pt x="328" y="323" on="0"/>
        <pt x="271" y="274" on="0"/>
        <pt x="205" y="231" on="0"/>
        <pt x="148" y="188" on="0"/>
        <pt x="110" y="141" on="0"/>
        <pt x="110" y="114" on="1"/>
        <pt x="110" y="88" on="0"/>
        <pt x="144" y="50" on="0"/>
        <pt x="186" y="50" on="1"/>
        <pt x="223" y="50" on="0"/>
        <pt x="288" y="83" on="0"/>
        <pt x="313" y="103" on="1"/>
        <pt x="327" y="88" on="1"/>
        <pt x="314" y="70" on="0"/>
        <pt x="275" y="34" on="0"/>
        <pt x="224" y="5" on="0"/>
        <pt x="164" y="-12" on="0"/>
        <pt x="131" y="-12" on="1"/>
        <pt x="108" y="-12" on="0"/>
        <pt x="66" y="4" on="0"/>
        <pt x="34" y="32" on="0"/>
        <pt x="16" y="71" on="0"/>
      </contour>
    </TTGlyph>
    <TTGlyph name="afii10069" xMin="29" yMin="-12" xMax="479" yMax="754">
      <contour>
        <pt x="29" y="168" on="1"/>
        <pt x="29" y="229" on="0"/>
        <pt x="70" y="350" on="0"/>
        <pt x="147" y="446" on="0"/>
        <pt x="256" y="506" on="0"/>
        <pt x="324" y="506" on="1"/>
        <pt x="342" y="506" on="0"/>
        <pt x="378" y="498" on="0"/>
        <pt x="389" y="490" on="1"/>
        <pt x="389" y="521" on="0"/>
        <pt x="378" y="595" on="0"/>
        <pt x="351" y="659" on="0"/>
        <pt x="303" y="702" on="0"/>
        <pt x="267" y="702" on="1"/>
        <pt x="230" y="702" on="0"/>
        <pt x="183" y="688" on="0"/>
        <pt x="160" y="676" on="1"/>
        <pt x="147" y="695" on="1"/>
        <pt x="158" y="707" on="0"/>
        <pt x="194" y="728" on="0"/>
        <pt x="237" y="745" on="0"/>
        <pt x="284" y="754" on="0"/>
        <pt x="307" y="754" on="1"/>
        <pt x="346" y="754" on="0"/>
        <pt x="409" y="720" on="0"/>
        <pt x="454" y="650" on="0"/>
        <pt x="479" y="542" on="0"/>
        <pt x="479" y="467" on="1"/>
        <pt x="479" y="365" on="0"/>
        <pt x="430" y="190" on="0"/>
        <pt x="348" y="61" on="0"/>
        <pt x="237" y="-12" on="0"/>
        <pt x="176" y="-12" on="1"/>
        <pt x="104" y="-12" on="0"/>
        <pt x="29" y="83" on="0"/>
      </contour>
      <contour>
        <pt x="314" y="463" on="1"/>
        <pt x="259" y="462" on="0"/>
        <pt x="185" y="402" on="0"/>
        <pt x="139" y="312" on="0"/>
        <pt x="119" y="208" on="0"/>
        <pt x="119" y="163" on="1"/>
        <pt x="119" y="140" on="0"/>
        <pt x="125" y="94" on="0"/>
        <pt x="143" y="55" on="0"/>
        <pt x="175" y="31" on="0"/>
        <pt x="201" y="31" on="1"/>
        <pt x="234" y="31" on="0"/>
        <pt x="301" y="94" on="0"/>
        <pt x="355" y="205" on="0"/>
        <pt x="389" y="355" on="0"/>
        <pt x="389" y="442" on="1"/>
        <pt x="367" y="454" on="0"/>
        <pt x="333" y="462" on="0"/>
      </contour>
    </TTGlyph>
    <TTGlyph name="afii10070" xMin="40" yMin="-12" xMax="435" yMax="512">
      <component glyphName="e" x="0" y="0" flags="0x204"/>
    </TTGlyph>
    <TTGlyph name="afii10071" xMin="40" yMin="-12" xMax="477" yMax="715">
      <component glyphName="e" x="0" y="0" flags="0x204"/>
      <component glyphName="dieresis" x="-13" y="0" flags="0x4"/>
    </TTGlyph>
    <TTGlyph name="afii10072" xMin="-24" yMin="-6" xMax="810" yMax="506">
      <contour>
        <pt x="58" y="430" on="1"/>
        <pt x="84" y="466" on="0"/>
        <pt x="146" y="506" on="0"/>
        <pt x="187" y="506" on="1"/>
        <pt x="208" y="506" on="0"/>
        <pt x="241" y="485" on="0"/>
        <pt x="265" y="449" on="0"/>
        <pt x="277" y="402" on="0"/>
        <pt x="277" y="377" on="1"/>
        <pt x="277" y="323" on="0"/>
        <pt x="268" y="274" on="1"/>
        <pt x="360" y="274" on="1"/>
        <pt x="406" y="500" on="1"/>
        <pt x="487" y="500" on="1"/>
        <pt x="440" y="274" on="1"/>
        <pt x="532" y="274" on="1"/>
        <pt x="545" y="325" on="0"/>
        <pt x="589" y="410" on="0"/>
        <pt x="644" y="472" on="0"/>
        <pt x="711" y="506" on="0"/>
        <pt x="747" y="506" on="1"/>
        <pt x="774" y="506" on="0"/>
        <pt x="796" y="499" on="0"/>
        <pt x="809" y="493" on="1"/>
        <pt x="810" y="482" on="0"/>
        <pt x="805" y="455" on="0"/>
        <pt x="791" y="428" on="0"/>
        <pt x="770" y="403" on="0"/>
        <pt x="755" y="395" on="1"/>
        <pt x="712" y="453" on="1"/>
        <pt x="694" y="448" on="0"/>
        <pt x="654" y="406" on="0"/>
        <pt x="620" y="333" on="0"/>
        <pt x="598" y="230" on="0"/>
        <pt x="599" y="164" on="1"/>
        <pt x="598" y="107" on="0"/>
        <pt x="633" y="56" on="0"/>
        <pt x="664" y="56" on="1"/>
        <pt x="681" y="56" on="0"/>
        <pt x="708" y="70" on="0"/>
        <pt x="722" y="84" on="1"/>
        <pt x="733" y="70" on="1"/>
        <pt x="713" y="39" on="0"/>
        <pt x="647" y="-6" on="0"/>
        <pt x="611" y="-6" on="1"/>
        <pt x="585" y="-6" on="0"/>
        <pt x="548" y="15" on="0"/>
        <pt x="524" y="51" on="0"/>
        <pt x="513" y="98" on="0"/>
        <pt x="513" y="124" on="1"/>
        <pt x="513" y="152" on="0"/>
        <pt x="517" y="205" on="0"/>
        <pt x="521" y="231" on="1"/>
        <pt x="431" y="231" on="1"/>
        <pt x="384" y="0" on="1"/>
        <pt x="304" y="0" on="1"/>
        <pt x="351" y="231" on="1"/>
        <pt x="259" y="231" on="1"/>
        <pt x="245" y="179" on="0"/>
        <pt x="201" y="92" on="0"/>
        <pt x="144" y="29" on="0"/>
        <pt x="77" y="-6" on="0"/>
        <pt x="41" y="-6" on="1"/>
        <pt x="13" y="-6" on="0"/>
        <pt x="-10" y="2" on="0"/>
        <pt x="-22" y="7" on="1"/>
        <pt x="-24" y="20" on="0"/>
        <pt x="-18" y="50" on="0"/>
        <pt x="-4" y="77" on="0"/>
        <pt x="18" y="100" on="0"/>
        <pt x="32" y="106" on="1"/>
        <pt x="75" y="47" on="1"/>
        <pt x="97" y="53" on="0"/>
        <pt x="140" y="96" on="0"/>
        <pt x="172" y="169" on="0"/>
        <pt x="192" y="271" on="0"/>
        <pt x="191" y="336" on="1"/>
        <pt x="192" y="393" on="0"/>
        <pt x="166" y="444" on="0"/>
        <pt x="136" y="444" on="1"/>
        <pt x="99" y="444" on="0"/>
        <pt x="69" y="416" on="1"/>
      </contour>
    </TTGlyph>
    <TTGlyph name="afii10073" xMin="-12" yMin="-12" xMax="398" yMax="512">
      <contour>
        <pt x="-12" y="36" on="1"/>
        <pt x="-11" y="49" on="0"/>
        <pt x="-1" y="76" on="0"/>
        <pt x="15" y="102" on="0"/>
        <pt x="35" y="124" on="0"/>
        <pt x="47" y="131" on="1"/>
        <pt x="115" y="36" on="1"/>
        <pt x="123" y="34" on="0"/>
        <pt x="149" y="31" on="0"/>
        <pt x="157" y="31" on="1"/>
        <pt x="180" y="31" on="0"/>
        <pt x="228" y="49" on="0"/>
        <pt x="267" y="82" on="0"/>
        <pt x="292" y="131" on="0"/>
        <pt x="293" y="161" on="1"/>
        <pt x="292" y="201" on="0"/>
        <pt x="250" y="237" on="0"/>
        <pt x="200" y="245" on="1"/>
        <pt x="130" y="227" on="1"/>
        <pt x="125" y="240" on="0"/>
        <pt x="126" y="268" on="0"/>
        <pt x="130" y="281" on="1"/>
        <pt x="201" y="281" on="1"/>
        <pt x="255" y="298" on="0"/>
        <pt x="309" y="367" on="0"/>
        <pt x="308" y="399" on="1"/>
        <pt x="309" y="429" on="0"/>
        <pt x="271" y="469" on="0"/>
        <pt x="228" y="469" on="1"/>
        <pt x="220" y="469" on="0"/>
        <pt x="192" y="466" on="0"/>
        <pt x="182" y="464" on="1"/>
        <pt x="168" y="448" on="0"/>
        <pt x="133" y="396" on="0"/>
        <pt x="118" y="376" on="1"/>
        <pt x="109" y="380" on="0"/>
        <pt x="92" y="400" on="0"/>
        <pt x="80" y="426" on="0"/>
        <pt x="76" y="456" on="0"/>
        <pt x="80" y="470" on="1"/>
        <pt x="89" y="476" on="0"/>
        <pt x="119" y="490" on="0"/>
        <pt x="164" y="503" on="0"/>
        <pt x="222" y="512" on="0"/>
        <pt x="260" y="512" on="1"/>
        <pt x="288" y="512" on="0"/>
        <pt x="338" y="500" on="0"/>
        <pt x="376" y="476" on="0"/>
        <pt x="398" y="440" on="0"/>
        <pt x="398" y="416" on="1"/>
        <pt x="398" y="321" on="0"/>
        <pt x="264" y="272" on="1"/>
        <pt x="295" y="272" on="0"/>
        <pt x="340" y="254" on="0"/>
        <pt x="369" y="226" on="0"/>
        <pt x="383" y="189" on="0"/>
        <pt x="383" y="171" on="1"/>
        <pt x="383" y="135" on="0"/>
        <pt x="351" y="68" on="0"/>
        <pt x="292" y="18" on="0"/>
        <pt x="207" y="-12" on="0"/>
        <pt x="154" y="-12" on="1"/>
        <pt x="98" y="-12" on="0"/>
        <pt x="12" y="13" on="0"/>
      </contour>
    </TTGlyph>
    <TTGlyph name="afii10074" xMin="53" yMin="-12" xMax="496" yMax="512">
      <component glyphName="u" x="0" y="0" flags="0x204"/>
    </TTGlyph>
    <TTGlyph name="afii10075" xMin="53" yMin="-12" xMax="508" yMax="711">
      <component glyphName="u" x="0" y="0" flags="0x204"/>
      <component glyphName="uniF6D4" x="1" y="0" flags="0x4"/>
    </TTGlyph>
    <TTGlyph name="afii10076" xMin="43" yMin="-6" xMax="500" yMax="513">
      <contour>
        <pt x="310" y="47" on="1"/>
        <pt x="278" y="101" on="0"/>
        <pt x="232" y="196" on="0"/>
        <pt x="212" y="238" on="1"/>
        <pt x="176" y="248" on="1"/>
        <pt x="129" y="0" on="1"/>
        <pt x="43" y="0" on="1"/>
        <pt x="130" y="442" on="1"/>
        <pt x="60" y="451" on="1"/>
        <pt x="60" y="476" on="1"/>
        <pt x="89" y="489" on="0"/>
        <pt x="172" y="510" on="0"/>
        <pt x="207" y="512" on="1"/>
        <pt x="228" y="501" on="1"/>
        <pt x="183" y="274" on="1"/>
        <pt x="212" y="274" on="1"/>
        <pt x="233" y="287" on="0"/>
        <pt x="281" y="325" on="0"/>
        <pt x="325" y="365" on="0"/>
        <pt x="361" y="402" on="0"/>
        <pt x="370" y="415" on="1"/>
        <pt x="371" y="422" on="0"/>
        <pt x="372" y="446" on="0"/>
        <pt x="371" y="471" on="0"/>
        <pt x="370" y="494" on="0"/>
        <pt x="369" y="500" on="1"/>
        <pt x="406" y="513" on="0"/>
        <pt x="441" y="513" on="1"/>
        <pt x="476" y="513" on="0"/>
        <pt x="500" y="500" on="1"/>
        <pt x="486" y="469" on="0"/>
        <pt x="429" y="404" on="0"/>
        <pt x="364" y="345" on="0"/>
        <pt x="302" y="297" on="0"/>
        <pt x="284" y="284" on="1"/>
        <pt x="291" y="265" on="0"/>
        <pt x="324" y="204" on="0"/>
        <pt x="363" y="138" on="0"/>
        <pt x="403" y="76" on="0"/>
        <pt x="417" y="55" on="1"/>
        <pt x="480" y="55" on="1"/>
        <pt x="480" y="30" on="1"/>
        <pt x="460" y="14" on="0"/>
        <pt x="413" y="-6" on="0"/>
        <pt x="387" y="-6" on="1"/>
        <pt x="363" y="-6" on="0"/>
        <pt x="328" y="18" on="0"/>
      </contour>
    </TTGlyph>
    <TTGlyph name="afii10077" xMin="-30" yMin="-13" xMax="467" yMax="500">
      <contour>
        <pt x="379" y="457" on="1"/>
        <pt x="262" y="457" on="1"/>
        <pt x="250" y="403" on="0"/>
        <pt x="217" y="284" on="0"/>
        <pt x="176" y="170" on="0"/>
        <pt x="127" y="71" on="0"/>
        <pt x="98" y="37" on="1"/>
        <pt x="74" y="8" on="0"/>
        <pt x="20" y="-13" on="0"/>
        <pt x="-12" y="-12" on="1"/>
        <pt x="-20" y="-2" on="0"/>
        <pt x="-30" y="31" on="0"/>
        <pt x="-29" y="50" on="1"/>
        <pt x="-29" y="66" on="0"/>
        <pt x="-21" y="96" on="0"/>
        <pt x="-11" y="109" on="1"/>
        <pt x="71" y="75" on="1"/>
        <pt x="90" y="99" on="0"/>
        <pt x="131" y="183" on="0"/>
        <pt x="168" y="284" on="0"/>
        <pt x="200" y="392" on="0"/>
        <pt x="210" y="440" on="1"/>
        <pt x="189" y="445" on="0"/>
        <pt x="143" y="464" on="0"/>
        <pt x="132" y="474" on="1"/>
        <pt x="132" y="500" on="1"/>
        <pt x="467" y="500" on="1"/>
        <pt x="379" y="56" on="1"/>
        <pt x="453" y="56" on="1"/>
        <pt x="453" y="30" on="1"/>
        <pt x="433" y="14" on="0"/>
        <pt x="377" y="-6" on="0"/>
        <pt x="348" y="-6" on="1"/>
        <pt x="319" y="-6" on="0"/>
        <pt x="294" y="18" on="0"/>
        <pt x="294" y="32" on="1"/>
        <pt x="294" y="51" on="0"/>
        <pt x="302" y="96" on="0"/>
        <pt x="307" y="119" on="1"/>
      </contour>
    </TTGlyph>
    <TTGlyph name="afii10078" xMin="-30" yMin="-12" xMax="660" yMax="500">
      <contour>
        <pt x="232" y="434" on="1"/>
        <pt x="221" y="389" on="0"/>
        <pt x="196" y="279" on="0"/>
        <pt x="162" y="169" on="0"/>
        <pt x="118" y="70" on="0"/>
        <pt x="89" y="36" on="1"/>
        <pt x="65" y="7" on="0"/>
        <pt x="17" y="-12" on="0"/>
        <pt x="-14" y="-12" on="1"/>
        <pt x="-21" y="-1" on="0"/>
        <pt x="-30" y="32" on="0"/>
        <pt x="-29" y="51" on="1"/>
        <pt x="-29" y="79" on="0"/>
        <pt x="-15" y="101" on="1"/>
        <pt x="63" y="75" on="1"/>
        <pt x="82" y="99" on="0"/>
        <pt x="118" y="182" on="0"/>
        <pt x="151" y="283" on="0"/>
        <pt x="178" y="392" on="0"/>
        <pt x="189" y="441" on="1"/>
        <pt x="169" y="449" on="0"/>
        <pt x="135" y="465" on="0"/>
        <pt x="127" y="475" on="1"/>
        <pt x="127" y="500" on="1"/>
        <pt x="298" y="500" on="1"/>
        <pt x="336" y="200" on="1"/>
        <pt x="339" y="131" on="1"/>
        <pt x="342" y="131" on="1"/>
        <pt x="382" y="203" on="1"/>
        <pt x="570" y="500" on="1"/>
        <pt x="660" y="500" on="1"/>
        <pt x="571" y="56" on="1"/>
        <pt x="645" y="56" on="1"/>
        <pt x="645" y="30" on="1"/>
        <pt x="625" y="14" on="0"/>
        <pt x="569" y="-6" on="0"/>
        <pt x="541" y="-6" on="1"/>
        <pt x="512" y="-6" on="0"/>
        <pt x="486" y="18" on="0"/>
        <pt x="486" y="32" on="1"/>
        <pt x="486" y="51" on="0"/>
        <pt x="496" y="97" on="0"/>
        <pt x="501" y="120" on="1"/>
        <pt x="550" y="343" on="1"/>
        <pt x="552" y="352" on="0"/>
        <pt x="559" y="376" on="0"/>
        <pt x="567" y="402" on="0"/>
        <pt x="576" y="426" on="0"/>
        <pt x="579" y="434" on="1"/>
        <pt x="576" y="434" on="1"/>
        <pt x="305" y="0" on="1"/>
        <pt x="278" y="0" on="1"/>
        <pt x="258" y="195" on="1"/>
        <pt x="241" y="355" on="1"/>
        <pt x="236" y="434" on="1"/>
      </contour>
    </TTGlyph>
    <TTGlyph name="afii10079" xMin="43" yMin="-6" xMax="505" yMax="512">
      <contour>
        <pt x="505" y="500" on="1"/>
        <pt x="417" y="56" on="1"/>
        <pt x="490" y="56" on="1"/>
        <pt x="490" y="30" on="1"/>
        <pt x="470" y="14" on="0"/>
        <pt x="413" y="-6" on="0"/>
        <pt x="386" y="-6" on="1"/>
        <pt x="357" y="-6" on="0"/>
        <pt x="331" y="18" on="0"/>
        <pt x="331" y="32" on="1"/>
        <pt x="331" y="50" on="0"/>
        <pt x="342" y="96" on="0"/>
        <pt x="347" y="119" on="1"/>
        <pt x="369" y="232" on="1"/>
        <pt x="175" y="232" on="1"/>
        <pt x="127" y="0" on="1"/>
        <pt x="43" y="0" on="1"/>
        <pt x="131" y="442" on="1"/>
        <pt x="70" y="451" on="1"/>
        <pt x="69" y="476" on="1"/>
        <pt x="83" y="483" on="0"/>
        <pt x="120" y="496" on="0"/>
        <pt x="159" y="506" on="0"/>
        <pt x="196" y="512" on="0"/>
        <pt x="210" y="512" on="1"/>
        <pt x="230" y="500" on="1"/>
        <pt x="183" y="275" on="1"/>
        <pt x="377" y="275" on="1"/>
        <pt x="421" y="500" on="1"/>
      </contour>
    </TTGlyph>
    <TTGlyph name="afii10080" xMin="41" yMin="-12" xMax="469" yMax="512">
      <component glyphName="o" x="0" y="0" flags="0x204"/>
    </TTGlyph>
    <TTGlyph name="afii10081" xMin="43" yMin="-6" xMax="490" yMax="512">
      <component glyphName="n" x="0" y="0" flags="0x204"/>
    </TTGlyph>
    <TTGlyph name="afii10082" xMin="1" yMin="-200" xMax="508" yMax="512">
      <component glyphName="p" x="0" y="0" flags="0x204"/>
    </TTGlyph>
    <TTGlyph name="afii10083" xMin="40" yMin="-12" xMax="432" yMax="512">
      <component glyphName="c" x="0" y="0" flags="0x204"/>
    </TTGlyph>
    <TTGlyph name="afii10084" xMin="43" yMin="-6" xMax="737" yMax="512">
      <component glyphName="m" x="0" y="0" flags="0x204"/>
    </TTGlyph>
    <TTGlyph name="afii10085" xMin="-16" yMin="-209" xMax="475" yMax="512">
      <component glyphName="y" x="0" y="0" flags="0x204"/>
    </TTGlyph>
    <TTGlyph name="afii10086" xMin="40" yMin="-200" xMax="661" yMax="752">
      <contour>
        <pt x="311" y="-146" on="1"/>
        <pt x="344" y="-152" on="0"/>
        <pt x="381" y="-171" on="1"/>
        <pt x="381" y="-200" on="1"/>
        <pt x="230" y="-200" on="1"/>
        <pt x="221" y="-192" on="1"/>
        <pt x="276" y="59" on="1"/>
        <pt x="251" y="27" on="0"/>
        <pt x="192" y="-15" on="0"/>
        <pt x="145" y="-15" on="1"/>
        <pt x="101" y="-15" on="0"/>
        <pt x="40" y="49" on="0"/>
        <pt x="40" y="126" on="1"/>
        <pt x="40" y="213" on="0"/>
        <pt x="81" y="354" on="0"/>
        <pt x="149" y="455" on="0"/>
        <pt x="238" y="509" on="0"/>
        <pt x="285" y="509" on="1"/>
        <pt x="308" y="509" on="0"/>
        <pt x="343" y="497" on="0"/>
        <pt x="356" y="486" on="1"/>
        <pt x="390" y="682" on="1"/>
        <pt x="320" y="691" on="1"/>
        <pt x="320" y="716" on="1"/>
        <pt x="349" y="729" on="0"/>
        <pt x="428" y="747" on="0"/>
        <pt x="462" y="752" on="1"/>
        <pt x="482" y="741" on="1"/>
        <pt x="427" y="449" on="1"/>
        <pt x="444" y="472" on="0"/>
        <pt x="510" y="512" on="0"/>
        <pt x="557" y="512" on="1"/>
        <pt x="579" y="512" on="0"/>
        <pt x="617" y="497" on="0"/>
        <pt x="645" y="463" on="0"/>
        <pt x="661" y="410" on="0"/>
        <pt x="661" y="371" on="1"/>
        <pt x="661" y="284" on="0"/>
        <pt x="620" y="143" on="0"/>
        <pt x="552" y="42" on="0"/>
        <pt x="463" y="-12" on="0"/>
        <pt x="416" y="-12" on="1"/>
        <pt x="387" y="-12" on="0"/>
        <pt x="353" y="12" on="0"/>
        <pt x="345" y="26" on="1"/>
      </contour>
      <contour>
        <pt x="519" y="462" on="1"/>
        <pt x="484" y="462" on="0"/>
        <pt x="434" y="424" on="0"/>
        <pt x="417" y="403" on="1"/>
        <pt x="353" y="54" on="1"/>
        <pt x="361" y="43" on="0"/>
        <pt x="391" y="31" on="0"/>
        <pt x="415" y="31" on="1"/>
        <pt x="449" y="31" on="0"/>
        <pt x="508" y="90" on="0"/>
        <pt x="551" y="186" on="0"/>
        <pt x="575" y="306" on="0"/>
        <pt x="575" y="368" on="1"/>
        <pt x="575" y="416" on="0"/>
        <pt x="545" y="462" on="0"/>
      </contour>
      <contour>
        <pt x="183" y="35" on="1"/>
        <pt x="195" y="35" on="0"/>
        <pt x="224" y="47" on="0"/>
        <pt x="251" y="66" on="0"/>
        <pt x="275" y="90" on="0"/>
        <pt x="283" y="103" on="1"/>
        <pt x="348" y="451" on="1"/>
        <pt x="336" y="459" on="0"/>
        <pt x="310" y="466" on="0"/>
        <pt x="287" y="466" on="1"/>
        <pt x="252" y="466" on="0"/>
        <pt x="194" y="407" on="0"/>
        <pt x="150" y="312" on="0"/>
        <pt x="126" y="191" on="0"/>
        <pt x="126" y="129" on="1"/>
        <pt x="126" y="81" on="0"/>
        <pt x="157" y="35" on="0"/>
      </contour>
    </TTGlyph>
    <TTGlyph name="afii10087" xMin="-24" yMin="-6" xMax="467" yMax="507">
      <component glyphName="x" x="0" y="0" flags="0x204"/>
    </TTGlyph>
    <TTGlyph name="afii10088" xMin="53" yMin="-201" xMax="496" yMax="512">
      <contour>
        <pt x="374" y="-6" on="1"/>
        <pt x="352" y="-6" on="0"/>
        <pt x="330" y="18" on="0"/>
        <pt x="330" y="32" on="1"/>
        <pt x="330" y="50" on="0"/>
        <pt x="340" y="135" on="0"/>
        <pt x="357" y="196" on="1"/>
        <pt x="353" y="196" on="1"/>
        <pt x="340" y="168" on="0"/>
        <pt x="301" y="96" on="0"/>
        <pt x="247" y="32" on="0"/>
        <pt x="178" y="-12" on="0"/>
        <pt x="136" y="-12" on="1"/>
        <pt x="101" y="-12" on="0"/>
        <pt x="53" y="37" on="0"/>
        <pt x="53" y="82" on="1"/>
        <pt x="53" y="104" on="0"/>
        <pt x="67" y="190" on="0"/>
        <pt x="87" y="292" on="0"/>
        <pt x="110" y="399" on="0"/>
        <pt x="119" y="442" on="1"/>
        <pt x="58" y="451" on="1"/>
        <pt x="58" y="476" on="1"/>
        <pt x="74" y="482" on="0"/>
        <pt x="111" y="494" on="0"/>
        <pt x="148" y="504" on="0"/>
        <pt x="182" y="511" on="0"/>
        <pt x="196" y="512" on="1"/>
        <pt x="218" y="500" on="1"/>
        <pt x="202" y="425" on="0"/>
        <pt x="169" y="290" on="0"/>
        <pt x="155" y="215" on="1"/>
        <pt x="150" y="191" on="0"/>
        <pt x="139" y="132" on="0"/>
        <pt x="139" y="97" on="1"/>
        <pt x="139" y="76" on="0"/>
        <pt x="162" y="50" on="0"/>
        <pt x="177" y="50" on="1"/>
        <pt x="199" y="50" on="0"/>
        <pt x="243" y="76" on="0"/>
        <pt x="282" y="118" on="0"/>
        <pt x="317" y="169" on="0"/>
        <pt x="345" y="219" on="0"/>
        <pt x="364" y="262" on="0"/>
        <pt x="369" y="275" on="1"/>
        <pt x="413" y="500" on="1"/>
        <pt x="496" y="500" on="1"/>
        <pt x="414" y="55" on="1"/>
        <pt x="488" y="55" on="1"/>
        <pt x="488" y="24" on="1"/>
        <pt x="476" y="13" on="0"/>
        <pt x="463" y="-15" on="0"/>
        <pt x="457" y="-48" on="0"/>
        <pt x="456" y="-83" on="0"/>
        <pt x="455" y="-100" on="1"/>
        <pt x="454" y="-127" on="0"/>
        <pt x="433" y="-162" on="0"/>
        <pt x="400" y="-185" on="0"/>
        <pt x="358" y="-197" on="0"/>
        <pt x="337" y="-201" on="1"/>
        <pt x="330" y="-181" on="1"/>
        <pt x="348" y="-176" on="0"/>
        <pt x="369" y="-156" on="0"/>
        <pt x="380" y="-133" on="0"/>
        <pt x="382" y="-108" on="0"/>
        <pt x="382" y="-98" on="1"/>
        <pt x="381" y="-63" on="0"/>
        <pt x="420" y="-10" on="0"/>
        <pt x="449" y="16" on="1"/>
        <pt x="446" y="19" on="1"/>
        <pt x="434" y="10" on="0"/>
        <pt x="392" y="-6" on="0"/>
      </contour>
    </TTGlyph>
    <TTGlyph name="afii10089" xMin="29" yMin="-6" xMax="450" yMax="512">
      <contour>
        <pt x="429" y="56" on="1"/>
        <pt x="429" y="30" on="1"/>
        <pt x="409" y="14" on="0"/>
        <pt x="353" y="-6" on="0"/>
        <pt x="325" y="-6" on="1"/>
        <pt x="296" y="-6" on="0"/>
        <pt x="271" y="20" on="0"/>
        <pt x="271" y="37" on="1"/>
        <pt x="271" y="49" on="0"/>
        <pt x="274" y="71" on="0"/>
        <pt x="277" y="85" on="1"/>
        <pt x="317" y="254" on="1"/>
        <pt x="313" y="254" on="1"/>
        <pt x="297" y="233" on="0"/>
        <pt x="256" y="196" on="0"/>
        <pt x="210" y="168" on="0"/>
        <pt x="160" y="151" on="0"/>
        <pt x="135" y="151" on="1"/>
        <pt x="101" y="151" on="0"/>
        <pt x="53" y="194" on="0"/>
        <pt x="53" y="237" on="1"/>
        <pt x="53" y="255" on="0"/>
        <pt x="58" y="292" on="0"/>
        <pt x="67" y="339" on="0"/>
        <pt x="81" y="400" on="0"/>
        <pt x="90" y="442" on="1"/>
        <pt x="29" y="451" on="1"/>
        <pt x="29" y="476" on="1"/>
        <pt x="45" y="482" on="0"/>
        <pt x="82" y="494" on="0"/>
        <pt x="119" y="504" on="0"/>
        <pt x="153" y="511" on="0"/>
        <pt x="167" y="512" on="1"/>
        <pt x="189" y="500" on="1"/>
        <pt x="169" y="415" on="0"/>
        <pt x="139" y="300" on="0"/>
        <pt x="139" y="261" on="1"/>
        <pt x="139" y="240" on="0"/>
        <pt x="163" y="213" on="0"/>
        <pt x="186" y="213" on="1"/>
        <pt x="202" y="213" on="0"/>
        <pt x="240" y="226" on="0"/>
        <pt x="278" y="248" on="0"/>
        <pt x="311" y="278" on="0"/>
        <pt x="323" y="295" on="1"/>
        <pt x="367" y="500" on="1"/>
        <pt x="450" y="500" on="1"/>
        <pt x="356" y="56" on="1"/>
      </contour>
    </TTGlyph>
    <TTGlyph name="afii10090" xMin="53" yMin="-12" xMax="733" yMax="512">
      <contour>
        <pt x="315" y="80" on="1"/>
        <pt x="315" y="121" on="0"/>
        <pt x="337" y="196" on="1"/>
        <pt x="333" y="196" on="1"/>
        <pt x="320" y="168" on="0"/>
        <pt x="287" y="96" on="0"/>
        <pt x="241" y="32" on="0"/>
        <pt x="178" y="-12" on="0"/>
        <pt x="136" y="-12" on="1"/>
        <pt x="101" y="-12" on="0"/>
        <pt x="53" y="37" on="0"/>
        <pt x="53" y="82" on="1"/>
        <pt x="53" y="104" on="0"/>
        <pt x="67" y="190" on="0"/>
        <pt x="87" y="292" on="0"/>
        <pt x="110" y="399" on="0"/>
        <pt x="119" y="442" on="1"/>
        <pt x="58" y="451" on="1"/>
        <pt x="58" y="476" on="1"/>
        <pt x="74" y="482" on="0"/>
        <pt x="111" y="494" on="0"/>
        <pt x="148" y="504" on="0"/>
        <pt x="182" y="511" on="0"/>
        <pt x="196" y="512" on="1"/>
        <pt x="218" y="500" on="1"/>
        <pt x="202" y="425" on="0"/>
        <pt x="169" y="290" on="0"/>
        <pt x="155" y="215" on="1"/>
        <pt x="150" y="191" on="0"/>
        <pt x="139" y="132" on="0"/>
        <pt x="139" y="97" on="1"/>
        <pt x="139" y="76" on="0"/>
        <pt x="162" y="50" on="0"/>
        <pt x="177" y="50" on="1"/>
        <pt x="199" y="50" on="0"/>
        <pt x="239" y="76" on="0"/>
        <pt x="274" y="118" on="0"/>
        <pt x="303" y="169" on="0"/>
        <pt x="326" y="219" on="0"/>
        <pt x="342" y="262" on="0"/>
        <pt x="347" y="275" on="1"/>
        <pt x="393" y="500" on="1"/>
        <pt x="476" y="500" on="1"/>
        <pt x="460" y="425" on="0"/>
        <pt x="428" y="290" on="0"/>
        <pt x="414" y="215" on="1"/>
        <pt x="409" y="191" on="0"/>
        <pt x="397" y="132" on="0"/>
        <pt x="397" y="97" on="1"/>
        <pt x="397" y="76" on="0"/>
        <pt x="419" y="50" on="0"/>
        <pt x="435" y="50" on="1"/>
        <pt x="457" y="50" on="0"/>
        <pt x="497" y="76" on="0"/>
        <pt x="532" y="118" on="0"/>
        <pt x="562" y="169" on="0"/>
        <pt x="585" y="219" on="0"/>
        <pt x="602" y="262" on="0"/>
        <pt x="607" y="275" on="1"/>
        <pt x="651" y="500" on="1"/>
        <pt x="733" y="500" on="1"/>
        <pt x="652" y="55" on="1"/>
        <pt x="725" y="55" on="1"/>
        <pt x="725" y="30" on="1"/>
        <pt x="705" y="14" on="0"/>
        <pt x="649" y="-6" on="0"/>
        <pt x="622" y="-6" on="1"/>
        <pt x="593" y="-6" on="0"/>
        <pt x="568" y="18" on="0"/>
        <pt x="568" y="32" on="1"/>
        <pt x="568" y="50" on="0"/>
        <pt x="578" y="135" on="0"/>
        <pt x="595" y="196" on="1"/>
        <pt x="591" y="196" on="1"/>
        <pt x="578" y="168" on="0"/>
        <pt x="544" y="96" on="0"/>
        <pt x="496" y="32" on="0"/>
        <pt x="434" y="-12" on="0"/>
        <pt x="393" y="-12" on="1"/>
        <pt x="355" y="-12" on="0"/>
        <pt x="315" y="37" on="0"/>
      </contour>
    </TTGlyph>
</ttFont>
